<mxfile host="65bd71144e">
    <diagram id="IAVD1oQeV6I9MJ1zhakM" name="ページ1">
        <mxGraphModel dx="1322" dy="591" grid="1" gridSize="10" guides="1" tooltips="1" connect="1" arrows="1" fold="1" page="1" pageScale="1" pageWidth="1169" pageHeight="827" math="0" shadow="0">
            <root>
                <mxCell id="0"/>
                <mxCell id="1" parent="0"/>
                <mxCell id="3" value="" style="sketch=0;points=[[0,0,0],[0.25,0,0],[0.5,0,0],[0.75,0,0],[1,0,0],[0,1,0],[0.25,1,0],[0.5,1,0],[0.75,1,0],[1,1,0],[0,0.25,0],[0,0.5,0],[0,0.75,0],[1,0.25,0],[1,0.5,0],[1,0.75,0]];outlineConnect=0;fontColor=#232F3E;gradientColor=#F78E04;gradientDirection=north;fillColor=#D05C17;strokeColor=#ffffff;dashed=0;verticalLabelPosition=bottom;verticalAlign=top;align=center;html=1;fontSize=12;fontStyle=0;aspect=fixed;shape=mxgraph.aws4.resourceIcon;resIcon=mxgraph.aws4.lambda;" vertex="1" parent="1">
                    <mxGeometry x="590" y="336" width="78" height="78" as="geometry"/>
                </mxCell>
                <mxCell id="6" value="" style="shape=image;verticalLabelPosition=bottom;labelBackgroundColor=default;verticalAlign=top;aspect=fixed;imageAspect=0;image=data:image/png,iVBORw0KGgoAAAANSUhEUgAAAUUAAAEjCAYAAACl2RMaAAAAAXNSR0IArs4c6QAAAARnQU1BAACxjwv8YQUAAAAJcEhZcwAAFiUAABYlAUlSJPAAAK93SURBVHhe7f1nkyVJlp4JnmtmlzkPD84jaSUnlVXd1Y1mABrNZhaDkZ0RaVnsrEBmpL/t/gB8w4/Y/bi7IsAMsCvYEaCxi0ED3V3dVV1dnHWxzEoWSYJkBg9nl5rdfZ+jpvde94zIzPDICvdbYa+7XuNqqkfPefWomppa7Y//ZG1kFSpUqFDBkZTLChUqVKggVKRYoUKFClOoSLFChQoVplCRYoUKFSpMoSLFChUqVJhCRYoVKlSoMIWKFCtUqFBhChUpVqhQocIUKlKsUKFChSlUpFihQoUKU6hIsUKFChWmUJFihQoVKkyhIsUKFSpUmEJFihUqVKgwhYoUK1SoUGEKFSlWqFChwhQqUqxQoUKFKVSkWKFChQpTqEixQoUKFaZQkWKFChUqTKEixQoVKlSYQkWKFSpUqDCFihQrVKhQYQoVKVaoUKHCFCpSrFChQoUpVKRYoUKFClOoSLFChQoVplCRYoUKFSpMoSLFChUqVJhCRYoVKlSoMIWKFCtUqFBhChUpVqhQocIUKlKsUKFChSlUpFihQoUKU6hIsUKFChWmUJFihQoVKkyhIsUKFSpUmEJFihUqVKgwhYoUK1SoUGEKFSlWqFChwhQqUqxQoUKFKVSkWKFChQpTqEixQoUKFaZQkeKeoPYJ4eNQs5GKLYTpc0c7AtDxkYrYQ1qGqWtY9xDP4dhHg98rnuP7ZhEfzdck/58UdLrnPysDcpyWxU7ZE/hFdkF+k3Mr7HdQWhUeKErjuKPxKTji8qMI5FQa5pgYixBqQ4Vc6wQZpseXWm3UsFrRVGhpPbVkVGjJXfSn7XHQuTvTE+7HveqKMdM2cc4oPE/kpwzkF/m4jCYh0bFE53rQGYTaqC75tYMMi4aupww4AiRv5D6WfyFZQYzICpmmvqWVjwkV9gtiqVbYL/gk+4DNnABLIvQwZVi+iMQV/JSwM5wbjpSm7kZNgBwgjPI64t4Z4n1i1DMH0j5FXNN5GoPMEaJckFEgNRf7WJZRroAlsgtb0+eE+EvCnJxQYZ+j9sd/slaV1gPHJzHLxxVJadhAJBZ8mdKYx54LUBxuyTEuDFSQ1zhSGF/j4Bwdd7LAgCGOQBiTlIT74ElNrpslKF9JT0vyVZLdtiX5YxnlMh30Wxvoh+tL+HlcswNjspW3GCsw4sCzlKddYf/jDqVa4RePSFZ3Cx8HvJShQq4QiMsNFKMuvZqJoQeDnm7ejWS0GGtYEvKpQLMvGnMI3COEqfvNJEj3hLBCAGVex/K4Q+DP5SdipMJweUY57JC7l0Mwq2nZBVAeO0OF/YbKU9wT3E3kn2wkgZyip4jxlYboTeBgjKGfkXvI8McEBwmI8hIMXNtjj2iCsBXPLy/1vdPnbr9mdiByclITJK/w8AOZxVyX+S7lFSQAQt5ro/BoK8iaoP2+Xh4fX4GcIc2SeH1JfHV56Ds9Re5XLivsGwQrqjA7wBBHdQU6+6cD+0rDc08xGKs2tMBI5QkmeIqDEJK+Qi8svWmo4/4HIFoMOMQ5CcTtVjyDULrJQxHywsOnSZ5KeblnGGRkNeRTBpdXkJt7i959AeEhLeJNS7lHOTUnoYjr3GMnoixnVaa/nKhIcV8BI5sOH8VIhDWSkY2KtpYhFNouZIwFxskTYs7hXEjQiW/TinRddnlbJd7VkejN0KyLy+DRuEpgwNuMPJP9EyLZziBiFwP9elOVyDZSdEB29KlOyQVvT3IbZbesyNZ0umTJthMoFUmQO/IP5dBQ+bQU5lQ+CqzfrT/R08VKRYz7BRUp7jtEQrxb0C92hDFGzybBCyyDezUQIZ4N25zDVfwkTmxx2EmtmDQLaf55/5e249l+PwihvE/wkMLxmQNenRNdIDz6TqfzElrN9P9FWUhaEpwPzymCzCJ5+qku29LzRt6+RE4EyiaWD0tdwFWehjKEWMr9HK+wX1D1Ke4JPk7kMkgZyUjkVBQQkgyzJgJjH0f5KbfZMxrl8kxknBBaeS1G5mPvdB4W6SbuticD118xzC3NRIG6Ls/71mzVtRxZrze0LGvqPHlQIRIB8iAdeE0CnpXimD2IDN1LFqY9RWUSCRWjvg3zLeVfp4n70kRNbHl3eS4hqMldS0eW6xwnU5HaWP78iUxdzpIx4zhrNVU6NXnWdENQ5Xhx06cZyDaUre+0JKEsOQc5V9gPqDzFPQGm4VY1BYwkGEqADEil44aUsF9ehwgQcqrhEZqMuOjIUDuW1XMRmxpxdbygvmIeWJH3bNjvWT7QPl2Wiswya+jynjyfdZnrhmW1TWvVdV7vhs3p+laz0P6BlIKn2xh6mRKlIf7NLCRul7DnJWaNX8hoKBIc2ny7Zu12YYP+DSsGNxVuWCpZ2fCWZDZw+aUQqYgSuSLfYthzeTNcJ82GXg6ZyoFyGRZbup+Op3jYqrgov0iOKlOWkzTsRNSRO+lKhV8kKk/xgWNawaPoo3GEbYxl2nRrckt8j7yJ4D2OrN6Q96LlcAgBDuWZhOsSeSlZKndHTeORgnswMmI8mJG8k3ZrU6Ejo1RcMtKsntlgWNjmFt5m6KssvK+yKVOlf5IEcE8MWls0u2fQSENzV+RF2kVsoY8Ub46n+apIki0dW5MMO7a6qvznko886kTn9roiynzeeoM5HQ9eOp6je4xUWApDlUGh8sErxAlM5GlmWUMSE2X2dV/2qWxqKiikF7zHUD7BU2QbcJT9cR1ow1fHJ1X4BaIixQeOYAhjyLCCshMC4U228Sb41bqsxpvI2s4y+XPyVCBImtYyNd+fyrMs8oHlw66IUR5LJs8vza2ejazRSKzRTG11ObEjh1q2emjVDh2Zt4VFOT7iu//f//aGvf/+LRsOFiwvFmXYC7plS9zqA1GULrwZmuihmT5rcOlBYOXTe+9TdUKS5yyPOUluy9O7ZY89etD+m3/8mORotn7b7PqVLfvg8jW7eqNjaxvyz3uF9fsiyaHoNE9VKcmvVqWTZi01u+uSnReVPEVKS5WUSLBer+s8kTLF64wKMUYiRBcoZJY03Ka3AUudONaLCr9oVKT4wIHCR+UvRV8STlD+yXogxKlj7GOJtygvsC5DpO9r2AtNuUYj9SZwoz6wucWBLS3nduBgzY4db9rpM6t24sSCLc+H9yo8RsVfOjH2V399zf7yyz+0zQ3I8LCMe8WJsfB3nmXAJFdeVeLNc5qDswVVHxJZGDqT+MMmKIhKZUPEpeZxcsWWl7fs93//8/brv7YoT1FyUjGlyrfqIOtDkh2zS5c27f33rosoe3bz+sjWbqe2tV6XHOvW7SUiTHnfjaZlqoDy0UDk2VWZcjOeUFPuAGEGjzu8S67gOhH1Qsu4P8L1gpKq8ItGRYoPHBhAeIoZgPil8JEMtaTvKfY3jUlR23gdmZqBMj15gz0RYs2azcSajZrNtxNbWW7Z8WOLdurUsh06bB4WIEGxIATLA4QM96TgqakW2tkf4AkmdvOW2f/8v3zd3n67p6biIZHiqrh3SXduKKgZ7cmFWuhzpCk9W8C/zSWvkT95hxjJ9VCktyY53pCnd8Uef7xp/+yffcnm2pKTyiFLhu5NpkkmglMkup76CBEOVS9sbJpduxrChQu37fIHa3brds82O4X1RI4EvPA0oyuiaUPd17s/EGbpLUKG8eHMhBgrUtxLVKT4oOGKXxrAuEkE6aH0sqApUgwNMO1Tu4uHLmmaWiPrWivrWKs1tMWlzI6faNujjx6wc+dW7OBBk5eIh9m1ugyYO7nRqalnhchAf1nasVpaei8QhYy1N+QpbN2++rUr9p//y09FkHMixYMiggkp0j2JiSZKJjQ6ayiU36FIzsmogBR5qBRIMUuu24GVLfu933vafvM3DyuffWumkL+a1tqiTzYfMtawRUl5GdUyBJH79kBEx7H+oGbXr43snXdv2ttv3bDLl7dsfS23bjez7mBO3mZL8VC+yI++SZrweK/TpEiFqWVFinuGh5QUpWwx11N6F/Bx4ggnx3ePGZ7CwN3x0iEy46EET4kxGVdm360QeuN4AlpjKAaEpR14IwmunM4fFWqe1ga6tqdzuh4ajaEtLNZFgi1bXa7bo2cO2mOPLYoQRYK8LKErFZ0IjwcJNG8JYQAOw2uSUUNL0qk7FJvyGLv+MIA015KGyC+z3qBha2vyFv/1d+3117tq9h2Xl3PQBiM1n1OlM+3pmqHVRSikO9w1/Eap8B8MfgfCCZ5PD1r/6FnTe8oLSsTzR9QM5TGqjJ2ReH8dGKdhEk8hQsxVoRS6f0Z/6SC3hhg+rV23enbJnnlmzv6P/8PL1pI8282e4lAoBjouyXk0C9pueJSUX8EbL5JzQZl5CBXLMJdXSLFrq983u3zJ7K23btvb7163G7eHknHXNjbUrO6LDEWSYQA+S8lVZQEhFkEptFpWjCosvFtQQ59Ig/6CPkGgdAdwPOTXddP1T0ueequcR5DuHYGswnVjuPim9nkF6jsfCjycpChl8trYMZX9Tyx8tBF66chQulNPalFqEQfRcop7JLIIn1UFglOcHJTyYj6jTPvQ0UKEM0wsFWnVMQhZUzHYkkfYsfm5gZrDAzuwmtuR46mdlSf46GOH7bC8QX/wWSZnvPQVeTAQLqv6jcvyLMfIRAwQLsNzFEqzUz7URJQ7+K1vbti///c/lYdzyomxh4so77No3JLBb1hT+U1EjCEu/bkB4+mE4M1DAcOO+5Ar5/FwI3UD9lPGuJPEJykO4Jyihsc6Vfn4hbqPJyHci/uE/ZRw3KdrVbkMGxsiI7P59IT1N1XRNHlE9b4tr1y0/+6/f8k+/0pbXiNEGftM0RFd4JVMS1st3xvATZBAWPd7+EZJ3OGAg1VivHrd7O23r9o752/ZlQ9yu3kjtbXbddvcakjWTUvr87pcjfrRQGWi+zKUh0H4haq3vK1Y8S4huTD43N+S8TGXzJXJuEsXtc4JrYVEgSWtAcJH4AVBIL3TEmd9enuqcn8I8BB7ijtJEW0ql3cF16GauYwbH4HO8xggxaA8jCOkph4VDI5WM0z3yjJ5bFLivMgtk352ehs+lKbVqMsIObdrSwt1O7jatLn20E6fWrTPPXnAzp41W1pSdFFPud432BeW07jTvmkUImk1JGUPeCUiGO6tffzm8gpv38rsX/2rv7PXX5P32Jcrms3bUOdsDC7IK5WXlS+4AcahKZEMooeYpTyYCdu+Z3wsHHeiYuUT0rkNHpcI1w1X5aZr4+UsWWXJ8KTxPs7hiK6FoAsqseamPzlu145ao9YQ0Wxaml20556v2T/9p8/JEx9ItvIOuQf9qAXyCRWce9yqRD4OUQYfgZLhTWwROqdQb+CVv/+e2etv3LILF9Ztayu1a9d7ti6ytqSp81Lr9qQ7aWat1oIN+yJGHtbIWx8MeR9bWidZ1xLJW+n0tErPQq6Dl0ig3zTXfekN/iiUGIS3jRBB3I7LihQfAqiwtylCqRyl4d4d4TqfxVqeVXjFLkwa4BMIsC3lKYZS2CST18FM19Tmuoa+I7FHPqTZTfObN0lyW1ga2dxcV95Kbo8/uWpPPHHIzp2BXELwhxryHGoi4SzFs0H5FUhNZIZ7AGMdMV6PB3iae7pLzzsFitEB++pXL9t//A9vy3APqPk8Z1mrbd2R3BwZYn20quQ3ZNjISvlSGhLllSV9Y0M1S50wlfKQvrD0sXgi18IHnsvAdLkTZxl2IlwTgiLjTqpc9KsQ8oCRcq37ub6sNxh3yD7e8mEfzccQFx7XMFmzZqNtg826P3BiAPvKym37J//t5+xXv3RQldNNfC+lWF60v1+uLXe9JnnaHSD13P+GOWnTnprITAGCZBjPO+dH9uab1xVu2q2biXW3WraxpmWX5rTylYoURZAsXVouF1VvauLnCjjQsXti2zjMqKc+RnOXGHuUDwce4gctUp5t+DRiQOG0KPuA3IvwWVTUTIYYITCRIoN0WYUEUxlTwvg4KS41bibjXFwwa7eGIsK6nTy1ZE9+7oiax2rW0W0lo2nU5YnKEOnLol8wDCGBDMs0Y5s7k/8p4QSkf0iGpQ9qVtOyULOaxwaFHbabN83+n//3H9l77yVq2rW0X5VAg8HJukqe4igPzW7vB1VIPC0l2YZdHiCq8LQVoekMySGPHodO8MumlmPofL9iaqkfkRiDqZGxrvF7SC6QbYjeiZptwC62y0slMxFbpoqoXrfO2tAa2dDmWh178sm6/Q//7GlbWsTXvy5SROJqJhdM6kAZcx9IkZXdkqKSUGYbDw/lKKggtIQQc5XtYKA7q9LrbEGQZm/8/KpdeP+2PPeBbXXVzN5U9ZiTHumBvMOioAJTfoOSKA7GVpE+HS8/PRGa1lRKyKx8xfGuKIW4E+NiucvxX0I8xKS4M9vj0v9E+CwodKxDitTAHmiSovn0nelXzVxeHatnkMWGYt+ypZWmHT3SshNH5RU+umKPPXFC+6TT0uXEOjqnp6t7oqDgr3ifkbyyWq72doja9V4tP/2E9Lux3gtgCfcmyk1ISgZT1DpupINiWflr2p/9x5v2ta9eFCkuWqfbFKGZ1ettecH0q8kT0W94Qh6a3yMn/YGuHSo/qhh4TM0xbZN4zqU/kKbc6A5pnt5TJm0beGiVSUbJCBlxjsirhpwY5iJvSiRBk5P3lWlS1jim7fAmD+fzFpD8815XZ4j2mh2ba6/Z7//hE/abv91WM7pn9dptUQreVbskRUhX9/buEAT/0XR/KijBuepNisyjoX5T5RhmAqc7I7e+jzig3y885SbNt1Q5vfnmJXvjzTW7/GHLPviwa2u3O7pOpFdrmZxyr6hQIJ6ue5OfytrTD7ErPu6pY0mNN3buAr+WUAE8pKR4JyVA4T+d0vvV8VQ2pFQYbezDSfAei00p4rq12wNbOZDYyZNL9vgTJ+3Rc8t28pjJU9FlMhB/OkjzmGshKJFWhtVAirlO8Ke9KDrn+m53BoLHEXBPxOgMoWvd89S2LqVTf5Twni6kOCePpG2XL5r9z//yx/b+BZF9Tc1oXhXUuXi9vNoWmrAQHpNIKD8iajlhWufd35G8XdGT9kOOqbwZQsIrN3IrSS9P33kbh7GXYT3sx9vEAxrJw8TT82Yw/XGeZslK5DuUe8UEFoXkw3hBBqAPCH3Rs7ZZ5xi+JSTpQlN+i1we1rCw+baa//k1O32mbv/sf3zODqyS/o7kvqUzJe9CpKImqJgmlC0PPLywKJc7405dABMoX3AgpxANwcuPbhdVHApDXqHxeyj4ZBKB4Ii2p2svfmj29vnb9sYbF+3SpXV587l1OmqCjxZ12bxkpbypsqIiDQPC/SbhX3HE2Y8COD4FT8v0cfAx5/+S4yEmRTyZiFjoLO+mABMxjeg/VE3PV934yps3UfTHoGrGtjVbW7aw2LfDR0Z29uycPfHkITWP530gNa/htdK+zAtCKRWX6/Fy3LsJno33X3FLTw4r5f1pq3JJ2Lo3QgROZLgYpfepy2k0j5KO54n3n3t9eU7a/x/+9Jr9+Z//WN7uEWvPrVjC64Jzm9Zo5Wr+N+R5JU6EDCBvt1JrtRJbWKhru6b1zJcNeWe8aVOvZ4pHxJmGZjcEybjLEJQtuIB8KWPez6Yk5vohFLyHrAO8WteHBPUzkJvEQ5Ner5Anm2s5svW1nnW13euORJQ638mScYJ963Uy623OiRR5F3lN8V233/+DF+0f/aMlL4Z6Ji/Un8qLkFQpQKLe0sfjVXm5e0fr4GNwN2L0EvKORI6zpeCZ5QC7VaF6HcUNIUctRZTSBN831HnKkmS0aBtbNXv3/Ia9/vPbWvbs6pXMNtab8oBFjEqfv7XDyAefPq7roZbPKUopX4STpqcq4COkuHN7x/m/5HjISZFlLOxY8HgrviMAT4Hd2onycgrvFReFDEjnobgJzehR35qNvh061LCTJ1r26GMH7Mkn5+3IkeBBEUdKXLqvPzAIscvo8TBFEM4KiibcIvz4im7i/WgkigCRyoI8UbsALkskRTeOgFGq5rOMicZwv49nt2wX3s/tm998XXsWbHn5kLXadVs5OBJBms3P10V8weNl/gkeCuEIkkQnOaIm6QStsgmtcMpuATlMc4uLQCE+rGB3JFQ5hE6KXbVQtzZFnFsju3kdEh2KPK/Ji+3Yr//6kz7gPUk2lHaePFMudFcog0RGgBRp5npT/eNJ8e5Ad5Qolb0/CHFpIImJNLzcy80wrIkuCO0gfzpIfyxPkAs16ZEBHvEVeY+vv75l78iDvHixY1eudrSfYWJKay0oXU7EypM/rPH7huCVro5T4bBrok4x4zEAEjY+4ZceDy8p0vnsq7Gwg7IQJqQYiBCFQWHDgwSatzo0pMnbEQH0bW5uaIcPN+zMmXl7TGT4xBMtW1wMRJGlPDCB+CBEXSjlLNQUHesbcRNfue4LNw5OkAenwDJsE2gSYpzxonuFmAJvcYSn6DcKUfkDI/oVw4BkXkuj77QoWjKscB5y4b1qnpyHi6KZhT/AY4q47stSvv5Lc5TtmPd7QYgmSKFc9+jLVboT+Av74p8fKX8zf+Mkypr+Xsbx8S53eHURmmDsppg+p9+0hHttkCKU/vFDcu4OSjFURkE2hHDHMeHEIgYsFXyTHx12ndAyDByXBy2SzSWIvMhsfSNRs/q6vfnGbbtwYWCXL/at21lQ3paU57o/3Bpl6LEi4ZocPZaHnohgeRgVotZPeeNtAZQ3f0hQeYpe2DtDBH1ZDKHIvXlHk4/tZNix+qhnc/N9O3VmwU6fbtqTTx20c2fraj7K4BQFQ2nwlqLqO1zSgR7L1e23KzGptXUJTLTjHOLcPURoToo8mcT7KSGPyLsFdJyOf7wSHmbweMMHpnNPJSWjD5CVMg3hDRWOhaX/eeZKTK+D+0k6ccX4puKBJH23L7VWEuSk3zUY/hAPTOd4CYgo6P91z12BIUpUNj5+sxyc7vCHaZAiFdFuSdE1ScFv7wEgqzHKpE7LblI5a7+fGk9SfHiP2vbZeKhotXNzy+z8+b698fotNa237P33NqzXaVm/psotm5M+or/KsRLiXZja9unNFAcjJULcLKcDmE71Lz+qPsVxgZcBC9Px6KHV6xBCrqZYIAs8xeZow+bTnj393AH70t87bafPmi0u8RrcmtWznjVrbRkaxoU3Bvl4lOUtFG868No+7ADlvXXVhEbDMW8u+pqgFYwD0t098PLwFklX2Rws0xa8LR0TEcT8cyjcH1pkMgWaloHmowFPG/LUBZNlhC5jjHGZtXuD4vIH2rHYwHQ8cb1cejGyjL/yDBl2RBmCSOBxjQrCm87kjYv8et3MRxYgMwhR5bkLEB3lSNLLZDkoy5CCib5B0uEKAr+qmuImD8c8HaQ3Lgai9p71CxF3wlPrlnW7qb39ptlXv/KqvfX6DdscLosYDzkJclHCGEkJKB8GjzF4kDoUsY0YwXSqf/kRtPuhA4VM1oOSjEO0pHKBorqyoiSQmAgtq4sa6ht2/NTQXvniSTv3CP1rIqq0K7KSd0gHPc1bb55CjFod65biYCgGw3fcOKMBcEOuwzAnrDG+TJseePK7jYF2A0XkpBbzxLK8F/l3T2lOu+cV1ASzBaUohMTYpwayTnbJkSau4ycGDpAFAg6XB12gMKIvlr4x3fOeA54sT4Ezyc+D1tmOgWEzsKY3d2N3Bb4uSRLtifQSm5vKy4L2KiiPxkOIEU1mKkDB80I8yIcdu2XyAL9SefCy87j1T2C/A1oO5T+5FykhH6QBPQHKjZdRuSmEeHTOiCFdm9LPLdfHxx43++IXz9nho4mlGbOz62pkz1tWDPZWWnjy716iKyj3LIPbwXR4uJA+98o//xfl+kOGHQUfCRFoNT4N5TW9QkrkDw8wajU9Dyzftl/71UP23POrNifHKc02dNGmNbNMKq0TZWA1jKzkPNdjopeHWKPvriTE4KNgBCWRcuMd8IHDOp8p70NfHtfdj5GWBuBp0vo4GnZoMQ4hdfEtCcgwNJV3gB0elFkfzwdBibQ8KL08pCgDb1bwIEdSVGDtXkLoA6wx3g7PzZu0LKlkCLqvE1mZAU9oTK3nRKIjD9OBfQosuYTTPRBXICO/Dg/NvSzCbkCeld6y/NgOt1IatARhmz/uEQsBPSFAXoy5DF0ZIF4X5F5OHpJyLnqSqsXSsFarbr3ewD681rUNNaPJIH88yIEHeW0wVJCkg2VIxRhTqw8TdlvKM45Y+GXAKMbb2ixrz9RfqcLQ9K9atSjCMIlTpw7b5546YXOqkTGkLJUHkizp2LwNBzycYFiE4kHnAudpyVsMmAQ7IECaYgyChhC5bzCWCPa4mkJEeJ+8uqVr7u8hi0A/orxBjCzcj1fARNQMx0kxMPIagt9GwT1UeWGE8DRWRsXregSRR3grRvtESMzRGHrpeN+Wvi7Gz0kmZX7x18IovHsNpJd5CRl6EsOcAtN5ERhQL9JQ/AwOd/l7miC3EBiEHQJ5UN49byGQ75AfyBvygmC0r5TXtv7XewYlzLvTTQWWocxjKcalbqIwqSy9j9PlpnxJtnjK6BE8VnKZLpau8QnVfFFnreqqFb+G5jovBjzz/Ak7cXJF+chtwBycqWTJE0D3Dsvg6xGkpgw77OJhwUPapxgLPCIWfFASiJDmBcaT511vMhdFX82Ovp0+fdx+93fm7OXneGdZqivFRMfQQiZ4YKqpTB4jD1mAxyaDpFs8KDy6LDOH7KaTsA1letyyw55twBh2CR+hQZxuULwdIq/IQ7CyQEGRMAkh3SGwJ6QtJKtMp4dwLB4PiEsgX0TGR9gtwiw55cZHEO8e0x1DTAWyh+jYx56Q31IQ2iuycTmQT85DDrEbxE8J5LlLjDloKv2h/OMBwh2g3f4+vTzAcAZlRCUJaQZPk/0MrfEHSXh/Ur4+/YVadjqFffO7I/uLr/BZhavS1UCywwGVvioT/34Pg+chfWKLMU6F6H0/JLiPYp5dULz+soi8BRQOBfOpmVTjev2tf1dEPCim+WLoxmjLVpc27aVna/bs58yW51UfS48IPm09QddRC9P0jvrF4Go8g/AX/SQpc3RP4onjEPeVizuF+wCG6N4R656WMAwleKGsYxykAWIksB0923BO8HBjCCTKknwyJGfyF8w2rnue7yOQdq19TKD04l1JUwjkI+SLtMdAntjHcc6PsiCPyCPIwuWkyO9egX06eDz68WW5PgEb5GB8dGpfyE/wMGNQfhSBx6HAkpER9BGig4Rmppwoa0tziT3/dGqff66w1cUtqzHDjnS5Vt8S0fYUqEj0pwqYKeGSXGVaPg1zzx9v+yEiRIDUHzrggHlTlhqQPhnVlN41w7g99yAhS4I8Bp+4tWut+tAeO9OwF56u2WE1S9qyK5SOMYuoEENVGg0pbHQRpxBMFcKYkKJrs4eg+JMQ95fxTG9O7d41tsUDWYQmWiABiCKQRAieMwX2T8J2QowhENBHiZG/QFP87SS6ewkkWWt3CSH+8BfvGNJEmOTjo4QYQpRFrCQ4T8e3yes+MB3Ptrimd27Pke9z5gtpmzS9Q26nwWl1VcgZzWOtN3S5Gjiuo8cOmr30TM0eOVm3Jl0h1lGUHfnDdBUoJsnWP/wv/U8VmOoOOwh28rBRYpD8wwe4UD90tvsTYic/KUg5Tb//4UHWZOBMDKCa9cBqz55//pSdOdXy19UqVJgV1EWMZ04tSX9P2MrBNe2Rhzho+9CchD5Kunek7+h/kfIOPN0Igljxjg/XfsnxcJIirEgnj9eI8hpcIW5rc9MJkfdseWPA50SsNXyaqcceX7BnnlmwOR7ilbFUqDALQNXn22bPPLtojz0Z9LlWzMmr5OEU4zd52FaoqYxjsCVW4Ak2eg4pQhEPl8Y/lKRIYft3f8vC9kk4/eV51aA+jAQvUl6ivEa+e3L8WMtefvm4HVr1Q7rAL6tQYTZA15B09sghs89//rCdON5W8zqM4XTCw1OUl+gTJmMLcUiSe4p0MVSk+BDAabFsGkhjnBQHTog++43IkL6bYti1dmtgzz170h57dNGY0CGrdeRB8nSyQoXZABOY8Glc3vd+4vF5e+G5k/Ica/6ZXIiPt33cIXBCZBhTGJEgdXdSxE4eJjycniJkyASiuHw+mJomc1O/jAejlmSgMB3XHTtzJhEprtoCzWZmxvHjItIKFWYFrq9dY6bbhVZD+nzAzj2SWF1N5Zq/88xxKnrGltKk1l9sQlfN54cFNAvwFFnlrQgpwfgTA9SofDagsOWlkT333AE7dQJBiTIZ9MvUW3nZEV2hwizA59AcWEMt4VR6fPK42YsvHrClxULNamZxwiVk6A1HsQEMg1dRw8PIylN8COA1oP6GOU1lBmhLIYqmSG9ehFeXEvSsUb9hjz4yZy++sGhNHlCrRvUBrgkPZh7SuqTCbGI8YF6KPKxbUyr8wgt1e/LJBWu1NkSFuRX9TOTYcB0fDKj8peO6bjLg/eHBQ2vdjOtqMkMqBa6aMEtbJo60RM1qvul8+ODAXn7xmC0vqhktKTHC0PtffHxbRYoVZgxU5Dw8lLrzosHyktnLLx2zI4fQ/641Et5uYV3+oir+xCt/aTpDNd1zfHjwUFr3yOQZ8l0UKYq/aK99Nd5eybvyCHNrNTr2zDNte+ap1D+FiZD8fdnxRKMsK1SYFUS9ZSB9aELzobSnP5e4nrfqPe0TAxZdK3jbhenE6GMf0aSmz50+x4cHDyUp0lfCu679AQ9O6qoZ+cTkhn9atJ707fiRhr304kEfk1hnAgERaKHA6H//AH7VfK4wS0joJwyen3/pYDS0rMYnXuUtvnjITp/gGy4dq9fjR9cKn9SEp42DnPfjK1L85YeUo5bGJkHdMob8jzYtTW/Z0tK6vfjCUTt7atGKftc9xUCifEBIQdc+ZP3OFWYcVOYDeX/M0j3iMwzS5kwtpLzXkZ631Iw+aguLt+QcrIkH+TpjoAW+EcOkEg8bHkpSDFODFVZvNGw45CFLbkmqGnJ03U6dNvcS2/XC2g0GeeMp0oxQQyIfBFIs46lQYRaAvvK4pIfXV+urki98bHYrq6npXNhzzy3Yo4/RxL7lYxd5fzp8hkPnhU5Fonlo8HCSov5y/0iFlEXLMIlsYcsrI3vx5WU7elgnDemQ5qGKms3F0PsfvflRC5OAVagwK0Bf/VtpMGEqffaKnskjGlaTU8AXJ1/8/LIdWAkDtUejvvScSXy9t70MDw9mlhQhtvAX4aX+0VAWamgE03CA3LRPzWfmR2yotuQzAvVkYI+cXVFT4riaD/Ql6vwBr/wxTx2KVPg8idxw+q4VKux3uLbqJ2MmEyp16TL9hUW/b1kysmZj5C8onDm1bAtt2UjRlZOQW6aWUs570WpZhSE6hCnbmg7b7Ey7PGy30FnBTJKii1pERv+IL30ng0yp6crgWQsFGb5GxyzQYSZoas086dpwtGHNTLXmYM1W27n92sufs9UF5j3sWlLvWk3KAkPWm01Ls8SyWmYtxZW5ElSoMBug+9ynlvVxiAoMRcsKS1oKjYEVwy1bbtftt371KTsw17Wid8sHem91r1vSZJwaxFcnhjLI1soQKCSVjZVB24Enp+1ztohxJkkx4E61EEOy+RN06KPUVXqLOsA47LpIr9e9qdqxsCceWbUnH6nLMVQN6cNveJ2PO/C0mf4W3oIJCjbDQqvwEMJpC3vwyjx+skGrKLRIiwlpM3mE586YPXJm3pbmzQZ9OQwteh/Da7AeS+kMTNvVZN0j9DXOdmIMa75vljCj9g3xBY+QWmqSDYqBhyKQmvekaAm58ZpTeNWJD0DhN/J1Nz4fkKRbNr84sFe+eM4WV4iDLmkKV6zp3+YI07f7faRAPvr1IRvMWuGXAJiI2wT2gm5Lr9FvJ0n5fNq9sGj2+S8+agtL2M2GjsuWhlyIPfFxMALeXwx4gcTJpx5YEpNOmW61+f0CWc4KZpIUXcQSvH+rl2UUutd8hFBQTmJOjGoiqxDDZA6808nTN/0Oe7a4NLJzjy7b40+JMp0PuS7E7e+BepVHwVLAHOtoHYKtUGFG4Hrflf6i4NJl9Fl6HfQ789dced2VuSGeetbs7CNL1mh0bDjgGvRezoaToAK6H+3KbQubwN7K3kTMjz8nRuKnmT1bmElSROyhxqNwET77gpcYCouCiksKi/3UZiJHvEXVgPQcNrKRasee/cqXzlnLP1Va2HDIkAV8yag4AgXtTQeu51OVxF2hwqwAR6CrpWzAP+nq/6V+8xSaj+PnljYKt4Nf/bVH5Sz0rJFqn1ME5IeXGEgwtMQwih32pm1iDL7JxFvUlsLsYEZJUVCBbpu9IxZSKJG4syx96q5Qk4UQZgdp1Ad2+nTbPxzOa3xppqZ14o1rXcNyCkTrK6USVKgwM0BfIcbtCPoNBUjXfYPX/Ib22BNmjz+xaq2mmsfMueikyAkxYEWsaemRxv3TpEgobZRDM4TZJcVtiIUSA6Awpvo2fF0+IEGFzLufB5YT+8IXH7N6Q4JQszgMXG2GWUKIZ6cW+Y4YKlSYFdxFb31Tfp9U3T9NUPTdDhp1sy996UlbWWK4WtftJbAfAcooW2m+HgiSeKao0s8c+yYzhtklxVhzuXdYkpj/qjhEgKEfMPSZsB46fUN2a6O+CnvdPzPw/LMN462mUVFOqqlrEn/aTLxqkodyD/ANxTfDYqvwMKLUWyc2oTSRse24N5equdzQmaF/8ZmnUzt6pGHtZk/2IC8TU3PHQrbhYWJbO8kxeIyl11junSXMqHUjbAqUPr7YnCWA0B/IuOssbVueJzbUej1r+ZRIvOxez4a2vDK03/rNR40XW/gUJG+vFLzDpxjTjGE4PFnThfQhOukClIGn0ShChQqzgh166/rMRA98YJ8HkLKmQpak3XyCl89wYBf/1X/1pNXrt22Ub1o+0Lm57E4kmA9kJ0XdUtmXTxyheP2lCBCJ1pvc0TZnixhnlBRBSYxOjlOC99owVYE1RYCJk2Gr1fbvMfd7m940qNe79ugjC3bksFlL2zkzaeepn0s0eR6HGrDkiRsFTNwSF59E9dqxQoUZAR5dwRAc6a/0GH32p8ilbvOIMjwxDt/wDjRntrRg9vTTh63ZGNj8XF0eY2GtJl8DbFg+FKX2GNXB5ws4Ozae9TsmRpazRYhghkkxCj0ufaegLHnhM8Jem0z+UKjwCzqM1RRIOirkrr344nE7yNf5dB1f9kusqcCofQqWJ2y5fiMpKvBqlN+K+Mc3q1Bh/8PtwNmw3MCDixV/mOwkvNrPELe6v/nipLho9oVXzsip6Ir8tnRpV2QYnmInPn0eX7ykCc06IcDtZxsxhv2zgklOZhJe2lNrsRdDtZ4KLVHuChHicLhlw3zd2m3I7ZYdP9m2J5+c82nZ0Y9MJzL0oFDTGgVJmSXEY6U0ERHLsMcX5WqFCjODsc6yMtFrbGXS0sJblGuQ+Dzz/hmOxx9v2NmzSzp8y1tYg/4tORhdYyadLE1kWxBsGY/HpVMJ47/Zw0yTIsWwDWW5EBIVWlgfWL1ZqCbcUMV229LGbXv582d9OnYO8x0qvuvDesJEEcwO4k0L9tBXAnMipooJK/wyAD2m3x29lpfnuk33EA8adUz8yB5e3GJKvUU1ob/4xcesPbdlWbbub4A1Gkwr1vMxvWF27oCxM8o6ARMizBhmlhSDrIPUtxVELAVtMLM2ncnNlmqs2qb1h9fs2MmWPft8W/v5jKm8QkmAb7OMpBdpppoyGVgOU44Jkb4YKU8s4DL6ChVmEygwZBg+6RsoAE+xpyNaYkS0eLX0ERnyIj/3VGZHjzUsL27KRjpWFynmeUetr77WY5dTMIxgg4IcDPb5+oxhZklxXA2Nq6O4HlDw+KzG5LFDGwzXlVPVcO2+vfDyOVviHWd5hD6KX5cQQv8j/Yfhk6cojvex+F/iv/yPQ4UKs4Sx3upnbCdhcojQv9j3FxhgMUyHveHTp11bVKvq+RfOqMXF4O4NkeOmZWpap+4rTGgvNqEDGcYbxnvNDmaWFEcqMP4grISnZiro8C4KbWF5ellPBacCUzug1x2o+Jt28tBBe/HpQ5aq7BtyEUe88ykJUMAs/alzkelcxms5DTo/hmItC3c2y7nCw4wdOuubpV7ziDFU/vL48O60E7+Rg6lYj95FphF76flVO3ZwxW2t3x9aWk8slcfYG97WZbwaq5aXmtLhBQnskZZW+Js1zCgpStSMI6SDWMKvMWaqoDB4U4V3NJkrcd2KtKsmM83ktiWDeXvu8afs9CGzdrIhFahbBht6lahLpBNpnW8/L6qAIUUevlBb6hQFn3m7PBeFqVBhZoC+orfSX8Ykos/eQvJdPGJs6ZR5bYkCZQfuJMgL5MkycwRkozU7Ibt58Zlntb4o5yG13qAnUlTLKtmUQ8FbL31LZX8Zdlg0RIq4kTAvFDtbxDijpAgo6chOCD00dH1dhMnX92ryEpk1uN1u2Fy7Zs89s2x1NREyv6y8djoaByKh9rzDoQoVfkmwXb931PZjpWeFyZV53W9oTz+1ZHPzic3NNX1UR5gEQkHN79BgJh6uwR6DTU7C7GBGSVFCLl8vCuOh6BPR+nhQNQWkYlLzOE0S7xQ++9iKnT6nK7TN6P1ZK6gKFfYOgexOMQntYwdkXvIMZT75UC0zH68YCDDOvO1zLvpDG9nj2CZnBzNKigBiDAUSBqFCchNSzNIw1qpRp8DW7JUvHDW1jn3sYs73CCpSrFDhUyC8AsinTlM1rT//hWPat2F80SBRK6zOzjGwP3xGHJVok1jhbNnajJKiCkmE6EFF4H0X4wKIa4kKTIVUdOz4sTl7+lmRIeUkpGlDvxUpVqjwyYAQeQhjNpT9PPW02THZU23Uc/vy6cHKM8cEKHv05rTb6OzZ2YySIkDYiJ4s8Nw5eoyUifaLAUd5T07jbXvppTO2uKj9SfiSWcLc6xUqVPhUoK/QP92R9Gx+wezFF0+r2bwuO+OjVzkc6Jh8pCra5WxihkmxBP0YBJWM9y+qQPxVpVpqg+6mLcwN7eWXGXjKRBAMyqZjePZqrwoV9gbu81lN9tVo8MpsYS+92LTFhdzy/pYazHiK2BP2J1KU4+GE6F1bs4kZTTlNZuZrA4zKhxQZosNUXxAjxTi0LOnYo48u2YnjFO2As8pryqqtQoUKn4hCHgUPKHkKTXfUiRNmj5xblPOxJRuTLfHmA+5i/GQBw3G8fxFbxAmZLXubWTqn/vKCcE+RkfkSfkKh+L8NVIvNtQr70q8+YQVeYgqJFubThFWoUOGeADFCbrzVxxsvX/zCI9ZqypZGzBUQuq5wSnBO3FHxp85cQ5gtzK6Py1ReBKAajJEBjEvkXc1ENVarOXAX/8knE8sH8ho5R9ll8KpPA1ahQoVPhTRN1WweynpSa2Z16/e69uQTDTu4yiz1HdkV3VL01+f+ei2zTQF6+hm6M2uYYVLESyzdcgmeh1yhk5eaitk71uzZZ0/4bDhNRt4zLVhRszRJ/XW+ChUqfDpAcoxH9OkEtN2sD2152ez5509r323ZFLN3h1dm3Q5LWwwPPgmlnc4IZpcUVTwUEP0YPq26SqIoVHCqrUa2ZWm2bl/8leP+KYJmJnde7j+DTWs++axfWaFChU8BvgudZU0nRZ42z7Wablcvv3TQGq0t2WCYeJZ3A2tyOmop7CnvUU5LaJTNlr3NJimq4onPvMKU6gMRIs1iHqVQIB07eWrOTp/mPLn1+SAM5hYh4tnzonuFChU+LZhhO5EN1UUYidVkRLXR0I4eMzt7bsny0YackaFsC4eDfqy+nA8+qVpa6Ww5irPsKZJ0ESGdu/6Bem2PVGhapNnQXnz5cZ/aqNmgTxEPkZmCM6+5fDLZChUqfCrwqiw9VTyB9tdmh4U1m5lldbMXXnpU+yFBnSD7gxTD9HvsEyX6lzFnCzNKipBaTHooAIYBJLWWf0ogq+f27LOHVCBy/Qdy/dOGlnQGQ4hMoe6rFSpU+LTA2/N+fPoX1eJSk5rvpT/x5Ko126b1zFLZX5gyjMmdZZOCzy41Y5hRUhz5LDiMieIrfRRUbZRbg4kSizU7e3rRjh4x/56zj0/05jI1mE7lzb8ZzXVE7MSOX2ULn6qMgW01ZcqQa18uJR1aV2FLYUNhvVzv6xgf6JJM0HcXUAz88ECKygRPnH4jlt5JNIMg3eQFY2XJcBLlzw1dmywUXBb6Q27IbCB5DWxNIcqs6/LkeJRxlPlHy4HyoZy4weyCFrF/r411WRQPKxM1l7Gvo4fNzp1eVpN63RqZjkqIfAoV54PRIDSr3YeZIcwmPcCDKB39FnLbUxUAswSPcils/6a9/OI5azFVYm1LBUWJ6Bz5+iOdxwQ5ePSzq6al9crYAmnh9mLkMWCMGCKmzV8gxsINORDjwDYVWIcUOSfIw/nBV+IGpBHjhxAhlFklRTJFPmhVaOn5KnMe81wiSDaXfKhMOgrr2tpy+QU5RkIMcibcqRxC+ejYWKizB0859kaQAxKawyOry89IJJO5ltlLL5yzYe+msttzQsmSTOdhaLqaMGOYTVJUodC/wVyJjK7J0qb3dfDVPr7H8tRTi2XtRIGw4htCKKC4NYugpuY1Kr61Ox3oDI+BmZT5XGtqfKqyqa22lvNaLlo2WrWsOKKwojBnqdyAMDkv/a4y4HFAVsRX102l+TYnebNk3yyCdKudN5pT3pSPGjOpSv3JayICS/geyUBy4M2nXLJictU5q48OSE5HtX5Q+xa0FzkiT+mcT0Zcd3lH2RN2lk0or9nVuphyf2GiXAtB21p87nMLbne8MJGKOLFH3pHAPr0lN75uNjCjpIjAqYH170+8RASSfSLlPnfuqB1YLU+KoExk5LEoZx14u+H9nO3k6EZJ/4CIrsZ0T6owklykl6eW5jLzoYhykFnWTywbyLvWsVTtIlUnkl9PoSMB9eQV0PxDbKnukXnI6USHIGdYgj5sy2UWQiAxcopnhyes/GvpU+szplXySvqSG0FyS4eqZCRH5IlckS9y9vYlci/LIQbu5eX0S6B04yzcwfNbOWB25swR1THIUX6zZOPD4wreIMNbni3MLilK3Wi4JKrxR0Mp4bCrJnTHXpArTwnWvOkC2KBIeVIdCnSWdTT0T5E3AhIAyj+vOvLOqXcAaaHgB/0Ezg3NuyCJSZg08wB7MHBem8Swyyi0exw4bQaxLR9x28O0l6eD7C27DdAhDITXe4PqTDWLywhczi5rEW0sg1J24QCypW8x7JlFIBUQ8sBWDPyqhSEhvfTSOaunXWW5L1mp4k2a5Wmzl++ZJcWED0/xJIxmYq2u2qlrjXrPnniiIfed8kCpKRCyGIt1sjbZM2vA0DBMAusoa5mbUv9cF/2HIKOs6VwG0yb9sA1QVvZ5PFFxdYF7PEEt4l6Woe+Ma+Pe2UPIxyQHYYmQYp5ZZ6EjY7lJxuxOtO3yk8x8P8f1TwhXjSOeNJU/WlazhpiTcR4dyEqesud0aLwbgd01Gn3v10/lqCQiRW8+8w3hGcPspbgEtRO1Ph2/FFjNunby5KIdOmSW+WzbPHCYNoBYrJO1WQSDYVFHQjDl0Bj0POkntuRGqer1VB4KT+Tp12EOSb7OhXFnkSBLg3c1KGPSPh5gYfg+AFch9rON7zODCD2x5CF4gOhHeGeXca50F0BayAGpIitkpn2pzskkK+Tm8tMxyRO5Bvki5yB3hIN8YpkQUywr/mYVk5QHGox2FWxraKlkcfCg2YnjCzoqb9Ef0tWs0HIWPWSKciaR8z5mElSuGA6tLkN/+qmT1m7rWL6m/dTOwrhEtaKCmhTpbMKNTvkghM9Jah9tOHkukBkGHobg9BV4gup1uQ1HjRBUm+SJjqjkcwbi4mWrZufRQuhvQzbIjs9W0r/W114RI1757IrNwXARz4dkRL7oPwxj6sKTZCizEJUVan0gD6qDobzGXLJFbmMZ+jHkinx5gk8cIlavTJh0NcgqlE9ZViEJM4tAh2Ft+0JSkL21Wub2hx2OcqSjfKcQI5XNbGFmSbEoVEiqzYuip4JQbZVs2FNP8RRalTs1vBu3ilLnSCe1qh/WvRbb3wVFB7WncwrjbVySXIbb07aWDCDLhzJcyQP/x6lMrktv1LRu0bD1bmYfXk/s/ctmFxTev8x22za6TesN69YdZLbVT62jZWega3NIlSEnXRvmWxKVPCUEOEht1NfShTmDULrVslM+yINUYSRjLrZCPkVqneHAuqopunlT65LLsKHQtPWtln14s20XPsjs/Utm7ykgzw3JtSeC7FtTIRAoD1WYYYvy8IF9Kp8R3Es5TcmNsoxhFoBmhR78QI1kBbvCvkAmb5khOo8/3pDtbcqRJtOhpRZnzJkl1P74T9Zmo2S2gWLqqTBUH8lYG0lHzear9n/+v7xoR46J6Ws3paL8MVyCYSSR+/GDRB3KcerjrSaKup+AIoVXpEL6ogH5PnSsL48k4ZVFZSSjUSgV5FRlqadD125t2TvvfGjvv3/dblwf2tZmasMe3+Kds7TRlYfd8fwvLy/byVNH7OzZJTty1Gx+XtFSoRS3fSA8jwtquWSoYLU57dc9ZvXzNmg5tupp37Qi7UleeHry8URgtWRZlUDd1tfMPvhAFcj7N+zSxet26/aa9uP5zFmRt3X2lmTYs7n53A6spnbq1KqdO3vEDh1YDGNjVRhoFo9bRiJHaIR375OmZMho5xI7CTGW9f6DLIYHT0qed9iIET3lrojBQ/YXAEYH7ANVGP+3/+sP7fr1IzYYtS3PJN8hnxTGBmdHaWaSFKG2QoVRz+SiD+UbFdftN3/jgP2Tf3LClpYhRWm2CoHxY7XxODK/ULvxfNSMon9onxZUJMCISIrAKZBB6vI+MNQtunBka5Dha28M7Gc/P2+XPrxhN291bHNLTWoppykM5QnmqkBqiZrDUtZ6mlmW1VWxFDa/ULfTpxdl3Mv2zNMLPi1UWwaeJQNLC8UxlCeuvxpfbsMlmB39ngDx4cYN6FaQDqhJkTONnCrNnjZvSWV+/ONb9vbbt+zChTXb2hIZDFMbKO9DySAf0k2TWtaQkdfV0E67KqOuLcynduBA244fPmBPP3nOnv5cw9rUIbpVq6l6JN+0VPKuZSJUZpHZQX6xbOkK2p/A2oLX5+82s/Qs0MVCkH5gjfm8bW4k9m//7Xv2rW9tiBRXrNZqW6+X+4MXrHFWMKOkiNMy9Hcvk+Ftqw0v2f/0P/2KvfL5zJp1vvXc9dfW/GmMaMRJUcxBsdSYQAIlZPDujBRUJETAAONRsakamOmb5qwvg/7Za2bf+d55u3i5q+aePEM5QT6mkP7CQmSYq3bXMk1b2j/0V69QUl7FGvF2h1yodotJeQs7uBpmVX7+2ZbNi08bEmG7gS8qj0CEkrYWSrnOGEbSmO66CI1yr1svz6yvbG2qUvnRT7bsO989b1euFra5qWZxH8+GD76LNOW1p5nIMGGEg4iykHBrPHHFmxdZFGHA93w7sSUR5IljLfviKyLHp/i8ru5U74hI0TnJXqQSMU2ClO9+9hTxBkFRIDvtwR2WHrk9uTWO1Hipy6PO7Fvf7tq//Fc/0NGjVmuuWq8r+UkPZ4cSVV8+98o//xfl+kyBPo3Q1LthCwsb9od/8KitLNF0gfACGUrTtEUBihDHpKha3kto/zafd8KbzWUYykg3ugMraot2e8Psy1+5bH/x5Tfs/QsjW99YtG53Ucq5IkNbEPnJOxkF4x4xoFaiYFBtTc2ZJG1IhqlvQ6A0HTtqZq+vm736s4t245rZwUOLNicOHOqcpD5UwHjxumeQFHkQlYrElP5Ov+Gf67yo5t5//I+X7K/+6rzdvNmWZz1nXRHiwI2/KY+65bLKh5k87cK7K2gQ+1NoeZh5zrE5VRYLNhi0rNOpq+m4bm+9fUH3MDtyfNHqcht7/iW8MO3WdAUHYrnuZzDkHfiLEiydFOX90nqIYaQKRE3rTC2Jb33nLcmwaXmNt6AgRP5mBzNMipAetfR1Nfsa9ht/74S1myJEkZ97QBhuDSWmAFUoKjQKxpufXkIY9iwVlfIsg1JjxLpFy15785b92X/+sf3g767YrdsQ4CE5cEekvotazmtbHqK/baGGb5Kp1dtUaLi3SJCVihjkNYpkEzWjk1rbjbwmMs3SA2pCXre33rpm84sH7OgJyZNWc8LjBJR89kiRJh5PkQfWUHM5se99f2D/n//1VXv9ja4qiNNqJqsykVxreNPSHwycipMWRWJtBfRKMvC+aFUw8rwLGXxSW5A3uKh9cqsVINvNbs8+uHrJLl+5as25eVtZXbJWXeUwVblNY3+TIjQIAcrBYOwRECkiz0QtMEJNlaYyoYq1r4oztZ/+7EOvsAe5dJGms6LYzznciRklRRWQe4NMHnvdPv/54/bM00vW5Cl0SX7hHJEiwyRUdIyyZz9NHi8lKfwsFRWEOBzSNE7t52+Z/ac/+4m99votGfOyau4VeSNqxOmcIqHjuyPllGwyBpmoEshzK2StxQDFlbdI9pktubalazfldW5KTmoiSRwDnTMQaTQaapqrfXnx8ntyjJoixnmRopqRIoXZo0S6WxIezdnWILWvf/2a/cVf/NxuXMeTWbXNjo7JmxulPQXJJdtSXummUKXhT5JFfhi2BBem3VdI6SfU8VpP125p2Zd3FCaLwFvqS9CXP7huH17dtOWVE7ayWLO6rvFhZCIQyjN6jbNAir4mG2ILHcN7pILECfGd7KdrR574h9cKe/vd21K7A9rbDHbnZ8wG9ql+RzHeLehXCsUg3DTr2YmTeEfah8JyGAX206jf+BuXm8DWXmeb1ExStH0rgj0oI7WyCDGveb/N+xfM/t2//4ldutySWp7U0VUbqok8kjeYi/CHo47Wu/JYtkSYm1oy2aeqAH+w0rBGnbcNaMZhoGo4q6XIpLx43bW0sHqzYc32ojyltm10Gnbh8kBN9J/bX3/tsnWHjOGLYI30lXu2ZYIV9n80V58tdtyHxfiW29PH72Yvsb/66gWF1+XF5bbVbUpePJGfl7coVzilb2xLst7yAcn1Ol4deqZ2h2SGDPmIE/t8XKJotpaKBJsQpAKtap3TzxvykpYl++NqorfsT//0J3b+Xd2/k/rAAa7mSYy/Isf6GH5kHPYPID4pkf5JF2nGioItCdrJKLc6IyGK3E6fXZWMOmqhcCDmhHM/Luwf7LGnOF30UTBaetPl7gEjT9QUytJ1m5u7aL//e0/bsmpiHgp4nxlnOUlCiGzzUCEUJM1oHzARWHMPoDzLA0GL/J0HJSNIgV+llAWuHOMD5ckN8q4TXqef2jvvm/2bf/sjeW8teXOLigJPh9ep3BqVR7yQsknjQU1d7wPkPsFz5q78ujCQhbwgUxw1BVOTEO8FshyIGJIsNK2vXlu36zcKm28fsVPHzLY2uiKDjuSvfMA2tK1DX3zID/132hHuRQWEGYVcUha7RYghLEPc3FRpIFY8FqVFdYB+htruSUkYi5jb+joDszP73g/lYf+Xt+zSpb68uVVdpjyL7OIAY+SWal9ic+IsNaMLnppKPs4JypNCITLzLHu+JD9kSOvEWyjoWrntslfFlbdsc9Ps/fcv2ckzR21xGd7MLR+siUREjD5bBN09ypGTLXETgmIE0mRl93K7P+i+NI+VL/9SprxkculNZ/rpZauIj3GySRb8RyqGb3/7VanwqrYkY88L6f+YwGIM8hyx7cADAbndI0xnHOzc/hjIcBlMUSs6duRw2xZ4IOqqquxAfmWuMMBADvxBMsGA7uVWvxiQ1mCIJCWGMcpaueBpb6YmX6+w67fM/vpvLtnlD5VzNUuKfEnKOK/Q0vnKY2mYiS/Zpu8PshTRSSDYHgYdvsure+s8KyDCttVyNY3pT4PclBKa0vmoL69mYGl90Vpzp+3a1Tn7L//lvP3gh7nNzbfUlCcepXqkZiePwLU6ZKIZdil+ej/D0nd9pohxTt+HHUO1fMVxtrG27qowZIfy3p5v2s9eNfuz//y2XbnS1PZpz1c/FzmNmDIMj02n0kcozzHJpVB5W7KRGw0Z8ZT5I4QoWVEZIWdVJkH+kEQgRKZbGxULXk6U15XrTXncl9S0VPo6Q5GyzlHFN2IWmVJAUCI5woccywxPy72t8Z4HjvChtyAH3gQK5I9dBbgD4jaXuPwZ73r0yJxkKI8bfRt7i58GO8998Pn2rMwWJCSITwqa5z179NGz1m6r1vJHyiI/V+Jw5rRASz8xbOwpSFPIQ2jeBUDbDhSIUuGJb6ommDzCQb9pf/d3V+1HPz5vvd5nkA/uHcMOBPuTv5PyvQ2ZQI8np/Ql1eyDD67bl7/8bduQ5+Npy0UMSV3EonxoNYyHj3GSRjIyla/7xNhrcuyIX/dVMn2zzlgYJWZk8qiHTet0zL7ylR/IW/vA85bIe+Zpsq/rIqbMv2Pq7iCf3QDZDQep/ejv3rbvf++yypPhOYtK/pI8cp1QZiGsBJOc7NIJ0vX9g3HKSkhGSnLsF+X7R+12ao8+ckb2qRYFOu5y/Gxk+SAQSmBWgHAVgldIZ+/Azp09ZVS6kVT81+U/XQg7C3KPEXrtPZCymDrveCePNK8xXF41k7NzQc3mb37jLTWZGWLTcLLaPZDLzhABYSTuBfIdjmZzToo9sl6HB1oNeeQH7e23b9hffvm88pBYp4c1iFTKmVB0imKLBsy+iXptJ7Tdg3gmuZ/cg/uKn/0OLXmyPHkf5E3xXs2+8tVL9tprl+XBrFqWtayr/DB2s9FAnqqahro2uDpTiOmNaY7LXUDlVRR1yXXOvvudd+2iynNrS/fN5Zlm8tZdFzgxtGli/pxQXJ73ce/PHKQuBhDShocI4EbG9589e1JbYbINt9fSdmcBOzVhH6IUpteWMUhZRj0peWqHD4VH/jj0rk5a58P3obAIYLoQ9wNIF4QY8kPK3JFSRmigdQYdb+6uy3B6fbyc9+3iJRpWeBe/qFemgowS3vIQKfrrWWK5uo/Vkzc4FAkqPVl21L76N6/bhYtar/OwJ7Uhf2pu0+QO/YnkkGYkzUnPVvlDuB/Ecg3REf943kfdtzcggbl11Y6vKe1DNWtv3zb7q6+8Kq92xXpd0kO/aap88Z58Q16bmtA5fWXu5hKRx78d95tuHkCIANMDdvVqqvJ8zzaV1HV53LUss26/ozuQt2movMuKM+j+/abhfhHvH/QkoNxXJi8SOuHwoZbNz9G/Sp9KJPeYH67b6/zcHXtMitPCKcW5U1Yu/3heGWhSWNeOHl70/kQ6eset5tD+0wbLiFhc+w8xVWFJfx6DpJl7RIWjGvc9eRU/+ck1eRoHvCnI2xiTqz574K3SdKZZCTEOlRDIg9ciB2oCZo2jdvVaYn/ztbedP3i9MFcBMLCb99GDAQBUa1q9tvWU3QcUzzia6XswaUFPaeIpemKbHZ6kq0L5mw/t+g2ayAdF7GGcJn1+g4F8GDWhGXfIWy5MMLKNEMer3CyG3WMwlOc6pOwO2Y9+dFUet24hzmDEj3dPOmmUnTza58vP4L6fCcYkNk17Zcp0zAe1M1xJm5QG9rjo/YrL2uINIHQixlGGEMUEIbIygHjug8e01u4BdmTalfJO0iLEWgbloWO8a6dPHvCX8PG4PCM6zSdTiL58jH9bvNq38xYPHKSPENIVjZxhMhhHltX8FTQI5+vfvCZvcdG9DD4LUNzRk/nsgNfkQ09EioN+IeIQ2RQMR2laq3XAOt22yPqYff+HF+z8O5I34uQDwCqTNCUjwbinVWsiffaXmb1n3O1a7sN+SJAB6T1L5QV2+4l9+KHJq33NGs1T1h8uKv0rylf4fgiB+pMB7XWRIvkeY0wC0wHE5b1CuZdODuWhjmqLXp7f/PYlL9+eyjkViQdSVNAtpksYqpnuMNh7TEozyglyL3hdSvCpO7WvqQrpzOlVnVlWlGPbJUzLNEIXfkS3dyvv+8NEc/cV7iAcL4AgVH9aWOvZoUNz3n/BcBt/zqJTQr9cec02IHQW/Ow89qBBAqeJsUyWlAZ/q08/jPJ18bLZz159T8SzIKLnLRWdG07/hYHxeBBEr8dT2dTarXkRSV1Nz6H1eyPr9uoin6O2vl63n/7suhsEie0MtzztoYxAKW/HZynzqXh8NQoE2TG4fcs6/YHNL5p97/u3bGNThFcs+YOhjrxH8oGnOD+/5E1ovOHQ0ijj+Vj92J3wiY0B3Uy6mjOEqrZgP3/zsl0Saav1L6mFcnfdLi9gqEu433TYK3iCyvXpdLCPY0q5nJFyMh23x4b09/DBOa3z7Z+oFwi6vGYb9jJvH8U+JMUgoCC6KEBCUBy8qaKgo3zTzp6ds1Sn8xXToT/Go6mnDbTcCyEIPzStEy2VXaIn7Bm4OWKnv0V1qpLtwZMalAfPYKMjUvygZ7fWu1bw0EVE5W9SjJXzFwcIIssyKTT9i0qPbsmMOox5TLN5paWptCyLdN6Q56gUex8d3iJp9xj89xeFcVdJCe4ZpGbWVNMBTxEPlvRZbUleo7zeIa87Kt3KA3npi/R5iIRHPH7Q8omy5Q67CZRvbo1WGB6V1Of83ejX31rzwdykPXiKKn94w1VX1+FZjivPvUPQOULZoNcP3fZ8DsTJXMu6SJ9yQZZ1qTafKDhzti25r+vcoed/UmmG+MJfRJDTfsDeSvuuCH0X/OH5oTD8ujEkUhM105aW6j7bL8Jn5DzvlU4QhB5CRDy+c/+DB4oefILyQYTW6AIID17IKe/emr359vtWl6fmHgYDkj0LnHM/CHebyONO2CE3N1AMIqSbt2vyomlbWzW7dDEYSFT1cdzbRLxt4zPAVHxa9QrP7wuCSl++ZPIMGZjddtJm8otAm5FkQp5CeuOCeGPccT1u3y9UrmpiDoYiY7p40oadf+eSPG+oEHc7nFOmxoG8Q9hLTMnBF9OUMX2MZRAjniLEiH1ip0mq/MpG0V+02+1Z50cbH5fBPsE+JUWJqSQ5r43c8ytJUQLHHT9yZNHm2ubCD+oezvfrfBXh8xsDOwnTe/cCkfqk7FNJmJAihly3rjzFn7/+jtUb8npkNrm841Ik9w8ng52YlksZtnlO4Rqay8wvaKOGbW2O7K03r/ipPNGdyHh7/OFNjTsf+/SYXO8luy0aNlBlyIVB66pQ3lizTaWPwdU8CKrR38mBkuC3yWBbPgHbMdw/wp2UatdlXiKAJOr21vmLtr7BIR6g8bQeKaEHkyQFUgxH9g4kBt0M6XDJuAjjfkJY+CcYtMLH47DPw4cX3F6D3XJSlEO4ZtxtsY+wb0kRxZ8oPwINBYALXhR9O3pkxYXOELmgSDqOd+7XxHMRvvaUIayoMMoC2QuQDE9xTNMYnnghtWLYtFs3c7txY1PbDExXQSWifV638leu7gPxnr7cqZDs3BGidQLadUyUUBuqidpQUymzd89/6LEkxitxvOWAcccqSghtQVb0e38GMElVKFtAjOF+ECKTVYgUddI7b1+2QU8GyiB0nuinyHcqLxGevxjA9PpnBaWvfCWO3p00lSy0vr7etxvXe1JHNXc8/SDkK+osW2HPHgIZKYTSmy7DsN/ZTgsSGsqDIU5mbXmKR48uu73GpvO4Ke6XlDa+z3CfFvYLRGAxF3KckDMQosJoaIePLPmgbQgOA/Gi4hKveVhBle4k8Lvtf3Agxf7tGK2HbJYKo1+MOh/U7INLGzIe5umTr6ADGeNzeJ2swHg8t/cJxTEWgyfi7mFMHPQLdeXlDFQmkF/DrlxZs6G/b8w71xQIZTUhxeD9ci177jfdMQ70IlBFiJH70YSWfOTB8mT5ww9vS7ZUKCLKbOjpDmXP6WWexvm6W/gMQWWWpypTyU1NSYY61dNF+/DypsqbHAQyD5VjuHdIRSSOzzg9nxrc9w42M94MaXOPT6toNf2HNQXs8/AhkaLsFbsNxBjsOZSbLtjuGewL7FtSjIqwrTksAbKJd3jwYEmKjOhzUgmFMkG4/s7Yy4IISh6aEL4poHQKvp55di5dvG3N+pIVuQxemeaBQI13cf395KBSuwPXxuvjcpyQHdixT15fUXRk1Kr56ReTd7Nxu2sdObRMYhu8RDyi8nRfCQYVqrf7R4gnxBubZNyZezNJAaPeu1tmG2s9rUtRJOQkgRQZL6e0xMR5HHcKd8P9pF/XqjLz99HlIfrHnEZM4NEWKa7bkHkttB3uQBomLZxQ5SPDvcbHyKa0UdJLSYTqXqSo4jgkUvTWnB9nv5+kbXIbbGG/Yd+SIhgTooQZ+xX5uHajWbeV5cz7LcbTL7nQ/bKPYp/J3Zt/pXGSPVQ/BDKRyGhMHtiG5TlP9NT8y5V/kWPis9lQE4Sr7g+fFEcU2rTwMNaeSEbeug/0S/jkiXU2tKo0JzQB6Wwag2tDuX0WoHyDEd0p3uAtUqFsKT39rjwTEWQuNzaRZ1uM8BSDpzK5Lsa1M+zEfcpbMqHcMmt7+oqcp7Vt66t5f+umms/a570Mfp/taQjdBPuROqYw3R1FN49SS4WF07Kykrm9ho/il3Yc2LMkxv2HPSNFCrmohU5klxCK43tZp9bc3kwcqdanTy1TrT8/VyjQN4Ng+VGVxKm8U+wnsxH7tzgnxuQnlWEvQV5DukLC+CG/TLwQZLOxuWYDXleTkjE+EaIcy6TM5p3hEX4KxDuBmJCdAZRLJ3GlWyTNhAqMCXSSxDOTExYIS8FnlMG/YTs+JACfhWErtrJyDCD+GDOEF+TUE//RBcG+PGdWF8lNOhXysjMVMa+fJuweDPnB23c5qTx5B7s/GFmHl9sVtavs1H3cy9aqVzSux2H/gwf3lb2U8ospDIF9tFx0nD6eaFrSD2Yqx2nBTufaI60zkxKVKqXFHzGQLy6gTGh5qAwRhCoQ1xvXo53l9YsHKdoTYDC8h8K7q7HpQD9R6JDGGwoTmvorZGK/etrUnoZq1Q07erjuX0oLcyRSKL5htbpicV897KOfxstKIRAQxxS3H2fHXgBVQtXDNEteAvQX+oe0Gv7OM3TTL9asIYXiDQ0JQEnn6a7+XEc8M3cJnwA3Nhg2GF0AK+PE7AigVEyVDdPv8x4vH/bjoQsTKzD7FacGBY6d6trWJuVM/OFYGc+uoJiU5lDmwG8YHEZJLHzUPsiHPjpe4Ws0ZHKp6HuAkfI+KEY8jSizmNe7hbGgdg0qtwFfnkxJU2qbm32bn1+2ze6aSYRhpIsrKWlUHpOupbW+tlJpOPq6VyBN2Ayvjsk2tYk9YWbh4ZpsD3ty+ytPZz/EKCcFOz18iI9+rbkTw9s76PiA8a/Kl89SVBIis+I7STIdnvJdMOgbPX3AoCj2BgjPBTheCWteZeKRhFqJGpb3Uqldve9oNFDTuenjE4MPQhZCNoLhAb+yXO5EiH8/IngLAXzvgloVz8cNhcoCQrhvJeH66fBpwbnBE6Nfk7fiIGomcUXZwc6+ryDpUA5l6fn+3eGTryUtSpKP8eR0Jj7lPW76ZQss8b7uf38Ir8FJQyUivGu87Vy1Cd8uL58jlqUR08kWZLEfENO0MzVsT+xsYn+xzEV7slPs1UZ47OEMKq7wKu4kPo5BjsEIwhb/kzgfHMri2AtMZzYIIsDFNt7lc90xfoXA/lFuhw8fKB+yzCLIx/Qygu3gYaEvWYp3I43iCer4qS7nbCeevQBdFgwj8Vm9VZvzSQPSHGawdh9YxziPIoQOw18gyPuAN62IY4pefYUfpUnWBikSQleK0lJ+iGovjGsa9KX5sCrSL4+V8qVfttViso3yJE8jG+SRTIwPzCyw00OHVlQp0P5RKaiMIMXwSYy9aR5/Eu5TS+8XUSBThe+ekIIbmJQcReIPC0OaNrADBxb9ydasYpsNAPLsPe3hoRF9MYvziyocNf8hHxGjX+PNiSCXvQLlwDAX/2yqDBxCbKq1g7cYfMFgzKR3EgKR3T9CbBNyDXLAq6AbhmYpPSTNts5K1RRjAtw88TGVztB7hpBOvCMqFGZHT7UOKS4vzZeVR1nZuaekTJR9eHQNjI/NILDTlZUFrfFgjpwFLWEy2jACY0KL7h3uA+wdKUoSoSUoQbgHMC0QahAEJmXgPEQpIaIcGN/8vLbRmRlGoI1poPiMzeA9UbODqwfDZ1oYghMHbPO9Xb51vae6w81l0EOMWuS91LQG3UraHYyb2opzyE9s/umXsvbyvh8QG4TBUsErCbxr5EPFUfNmPaTYaosgRUC9Hk3ofVCDlknmx+t7tXwYy3fo4HIpFnYC8scyVi7kL3hZswjsdGEBz1jkpzzTHUagcg3fDKIMyR0/LqAJYjk/YOwdKW5DyHywG5GhP3WSQWm3z3OnYy4aKVGrmfhI+UmTY7YwndNt8BoCw2AoidmJo0dsNMzDO92SgVcQkgsDfz9y7QOE1+7esagqajS0Q4cXnRTjx5+k9n4sGDIGLXxmSVa8bijxHkFerHNfl6DS0ZB+HDzMt7AZ7I/s8EbQqT0CSSUFyMhloZ+iL6LI7fixg6URlqnzcwXy6V0FtB7KYWczCLpV+GZLq0WLh+yFbhT0iAlOQhn6AWGceV/D6uOeB4lQHnsBz20s6JB1F4VLDkWHFGV4MkAesoQzcpufy8KT571L+WcC8hPyJPhKMFwMgPe5T5/gS2gjq7tLLJlARjrGOXsHykv3VxnhufME8sixJffMIjkFYyZDoQz9kulw3xhLTUAW8b5sS4NStSbqqlROrsprHBizt0CO1C2h4tkjeC1eyk2rfACqmRV27HDLGipiSG8sojI7gRRiHvcw7fcB7LQl/ZifLx8CuG6o5FQmzL8ZHxxi+6FCFcbl5IUWVh8g9oxawnebnQYFzJ+kxPoQRWBNwQmRmoX1whYXm96P5Uo+o4hF7Xkt88F62D+yJp3Tq1KkFn0vPZEPw1z4ZCivOCKbvQLlxTRbkI08wdqWnRT5eH+iEo8PEDIFQvkGkix3fUaY1hyPXP9hC6JWUHpOnDzg6SOdEFAYyvMZJ+ReoPvzyQT/RGgylKw6trRYs5Wl0O9G+r3q3yYul6jCHqb7PgEpNmSviws0J9hDjiL5aQdyCRseQrmW+f0F6M6nwZ6RYoBy7BkPAglB+0phMYwhlafkg17xGIuhHTy44E+03BB3uIv+MGYGEHMKKPNQ7mEPv3hgDHo9IS9slK8rr3zqFC+RM/c2j4nKphh2VAY0/7r25BMHPQNUWqFpRAonufos00v+JzPu7Ch73c7vLj1BLc6eO2RZvWeJ0jhirKea+nsJuhrw9GtqMlPRjUZr9ui5gz6pCaIKUtJvzFrYIUQ57n/stD+22VXPRnZgRW1o8jlKlX9GLqhNlPe9op/kMF4f97C9Pc4Hge2a9UBBxu+Qea9RJ01F5hKENFF6yILPmTYaMosHL6vPHjHbnhd+wkMK6gT6TZ9++riM+rblo5sixaENc2Z7oTm9N4DsUnk6+XBdWzfskUeXbXmF4UNmw0FJOp4XyjV4/9vqOz92H0AJgrshTCINTUyhPNyUGI8cNjt+nPGsa9rP94fpmuCEvQD9iYyhRK87Es2G9Pe2PfvsKe8Korwn+dFGXHVA9eONmYOTYiP3z576BNDkxR0hlQUZZ+ngWKhUkVcoqrD1oLF3pOj5nVbSKICSECHGoC2l3GRiycgW5xvWhBT9yCyDTIX8hzWKgjd7qEklDe189rkFa811ZEwbOr6lZSLj8kv2CJDiSJXS0Ab5B/aFLz7qRs3DDGbx8fGkJNwLJ+SHdX9ewAMiJ7X7AYSBTigej4oKgsjRB1WmzKTNto4tyNN+8flTNuhftiZNaDzFsQE+eDBJcMrHvQoRokhxeSW3x59oBil5ebOmXKiJjS8cgfcd8jibGg8pNpqFLSzw9gsVvnYQPIuUJytsU24hn+SUsFcgFXsDKSiK7JmXXCbfpGCB4ocHLYjMH9qV5y8sNL2DdrYRizwQv+fRDZzOaGrUkfczHZa389RTh3TspgiRiQ1UkzJwenz9g4WXVzEQAfZs9UBuzz2/4DyTDwZKL69gUm54jCxJJ8GLVyF4/rsHsYQKE0MKcaK+VCTEK09Mfynvwg/DkZc/f8Lm59XUT9WMlpyDNj14cNdEzFeMBlryOuJte+GFM/4lSlo/eNrkA3MMDgHvj7NPcKLwE2YSZIOn7AvzfEVRJSBheEAq46fPEeNM++82TniA2DNSDNl16ZTZ1q/Lgh8IUXuUOo6F3VBBYXPyFOmo/qWAGzdKQS4ZDM03rGUA8ir4GhrTub/yxUesPd+VkWzJy0Aue2kgSq9IkX7OV754zlbUdMaoeaJKNlD2yZPSMDaQtVCikRT9pF0CUqRvjsqEbd3cBzkrTh+zKA0ZKE1a4n0dP2b20ksnJM51SXcvn+DKk66n8q57NizWJbdEhP2INegbLxUch4nB8EF+TOSrhedR+Ss9qNkEzwWGIkXmIlAeyJhnjkxTjrFMdubP/cqP7H0QQNr7CBMRTJoQCAYPSUuF+bmWe1JuhbOKYNHCNEmwT0EG4BNyyroZ/3f69II99fQZGQzvQkvF/MXevUKomI4ePWC/8itPycD78hr5HocIUFkJKoxRR+93OpDX+yuz6B/yW64Kuqcblu4rT7XAS9QuyGZkffvVX33aDh9c0Ck8hfYL9gwj0lAb2AsvPmmHDjVU6dE/SyXDQc5AfsgoyNABITopziYod7q95uaaXnliw55NFizJuJZkP7SAfKewd2W1z6SNgMoQ3A4XYhgFr2al3JJ2S00kbz6H47ONqXzEVQU6pPOio+bWui0uyVt85SlbXZVhq7iKONvBHgBSybLEfv3XX7Fjx1EdHrgMQmqULMoIg3ZPTtse/BB/ECVb94MQzzZ4lNonr6MYhgkW4JSavxm0ZmfPztuXfuVFETepvN/77x6Mx+MJ9MlTR+QlHrPWHKnZcl3eXpo7SNGPIuvtZ80K0BmfLadVV0VVvs1S/kXNcB1xhozV1t6VE9gzUqTXRyYmYchYEvpRMCaakPI6mE+NZpE8Kr6AxnRUNTUf2+2hPBMl2t8F3md8fi9QnlF6FIN+sKgirheSxRCiyVIZkXZIP544l9kXXzhuC8k7Nl//QAYOGW3qmo6u6esc5JP72y7+5stYqbhecpIsaZbX+GRAkXrgswb+aQOfnbqUJcTCFFw1xZt2RMy3RDI8uV2XzNeskd6wF59N7eXnmJjNrFGb86n/Xa3hQ4+GI3wOVZsE301pU2actHvwCiHTVXmcilv/QWbeVG9ooSNqknp2lN+6zVlbt3z5hbo9+xT9jVeVgnWdtqnreeAhGSqfo1pXEdJkpTlHfpRiRTJy+QR5JdpOCpVTWSaAfBeQnQeuJdAfyEfGKJctpXHT6sm6te2qLWdX7UsvnbLTx5VaokbH67o21b1VdlACU3HVrKUUoBOQvQRMiDedMVBmmcqB/M7NM0Hxuvb1JEflh0mUy/f68YPQlCADvHryPHahHyhcjfcGyr6UAkUqEvrMMGY65pmIE6NiCSmGwbeQwNycXHGt8UJ9oJFZBIUcSFGZljJIEViyX4Y0IjB9vjLKZzCLYWHzsvdfe3nVfuW5ts1nl0VUMuysKxl13PCSFK+o7+O+tr0GiAGjaJEQtcTA09LQ/b1ql7nujq2rDAbyUNM6L11vWLPJh8xv67zb1qpv2bFDuf3D3z5sR1e7UJBlRUtXKw7V/oEYuClGDXlRVoWOE7hLXdvcb7flhoyIl3jIFeP96GNFlpEUazYYiZC4oc5ORy04x44fGdjfV7qPHeYj7Ztqrt6wuvKTaT2tdyxrDqyfbyn9VM5cyh1grVBx+AQOvlQlRjERvaQWZKZ8J1Ts0mOu5/10ylAVVpKochltKFnr1hp9aL/+/EH7wnNz8HaIo1bXfVUJpdJvSJSS8NnVWwqcQVyUxd6Qw/3Cu7xUUklR92+zQ4pWY4gUpKhV7cfBQZD+hy0gAyp45T0QI+X7YLGHpPjJQC1iXyIeQb0uIUIWfmRW4blyRXDxw35jfQ/5YkJSDKIoej4DDaeuHjL7nX/wgh0/sSTy2/QnlkEuKJUqEBGDP5l2Ix0o9BXw+oYlYfGoQSTrQefhnctLsnTTg78xo7Q0s8M26K5Yf2tJZx1QCnlqesOWD9623/7dR+z02TmlqWlDkTVI5Z2FMfQoc0j/XoLXQn3YkpLCEKHhcGRtNd0eeWzJfu+PPmcLK9flAV+X/CSP/pz1Nxet6B30vOIZIgeTB2nykC2TFyk5Ia8gu7bCZFZoq2HkgdDgUaa5ozzxZik07l+XfAaDTTuqcvuN33rWlg8obTqNt7IKPu2g5jNjGCeUR8K1cP0gINy9l+t9QcnnbdV6ho6yHex5oi6T3Dt2bD5ouDrvW5QCjGg06hbGLu+x1O4b5CkY0ASeWV8b8l0R8ihCq8mLqKtFio0cOWYyrJftzNmjMuyeP5DJMsZ/0WbEoLmKJhzNMXkrqc6R1+mkKMOGLGi0+2cgnBTVbJTxjxIFmn3uUbYs781bMz1kRV8koPbx4nJuv/7bp+wLv9YOJK2ImCA1gn5OxipuJ8Xp9QeDMGQJMsILVwrom+XhizZ5//alVzL7rX9wzlYPp9bZkgdnKzbqH7DeVlOezLzyr/JADiLFkVcWasG4/Eq/V8chxYJ7uFcYPHuGIfEFO598gg+NKea6vHy/sY498sgJ++3f+YIdPKqqTuniARpEymdXM6V5MBC5fkSnS30Yk+ODl+dnCey23qD1V+ZznJ275HsP87uPSRFhlUGCpK8MUmQmX+/DmmkgdsKOgi8NwOcrlG/Ck12jj2+k5mpTXoeM6dnnzX7390/Y556mgvjAhoOrqoELnUuTWARJ4OPqZbNEO2S8JUnqlqH/luYdMqXvDK+GJhvNa+y4Z/NzuTUb6zp2wVYObNof/MEL9qUvHXPvFE8Mssm81hc5cA2PT6OyO2K+fhGKHWR0N/irn+XhLFWDndk1tA1hMUHEb/zGMftH/+hZO7DKmyWXrD13W/Kjb3ao5jgnynAL5Ce50CzXLpfXuGlNH19ZIVCJMIyK6fMHKg8t6/Lck6Jv+fCa7n3FnnwqtT/4oxP2/IvBO2y2eH+9I7Le8ipMN1Q5UtN75IqTiEt4pUmhcWx2gWpQLNiv93mHgceug1oJJ90Re5NvpL4vEWwsCM29HyfFxsRT3GaEs4RS+XcWuGcHL6NmvO9Nnvk+SyIjLEYbyvvAssbQp8V68imzvy+P5/OvHFXTcMv63TURGn4in9BUKFi6oDye4P0Ez3GkJrWx7jKVWXKuiJT+vlQeZSqvsZZct073LTt5emR/+IfP26//vRWbb8tXqsm7ynROKuIWgeTyIqn53UMTUfqnO8eI+ftFKPYd5CfgvSI70uNesadN2dWpqdLdbHSV/tx+5VeX7X/3jz9vx04g20uqcNbk7d72YTx4eSZ5IJdASnjekCJyo3+PPu7oJSvf/vAKT7NtSS6SxIMW4bUam/bSy4ftd3/vMXv8cyIElVuzNbBmMxc5b/i77HnBFwYZ0oS3f6c8sU0a9q2ZfiqgI9itk2Jpy9sIkQ7GuD5GlMdOmfzikT73yj//F+X6HiFkmg5ZFIMaGe+G2phhDDz1k6q5QZ49u2zPPNu2OXkyboj6mz1EBSDsUHYRDc4Kr4QxdGEwYNIFGYzyisHTLEzrhL6tLDfs5LEDIsWWra3dVnPwlqSBzHg4Ep5+hg8B8aYHndY8lGCdprmMW4pZE3PgrXA8TTq615rOuWytJq/wHbR/+A8esxdfqMuTkkLLiBPdH0+IsuJ7KAUkJG8sNltDFqbLJK6zjOF+gMzuFEeI2wla6XEZqtkcmmrhGDO401QdqqnaVOV6/FhiR46uiiS3bH3jsnW7132iEe/cpysAFdSV4WEOw45KObpcB1pnphvl34O2eb9aze60ds2OHBrYb/3WGfvt3zppJ06ObK69KeLT9ZI//YjelJQcB0NVdKkqJRGxf6zNSThgnEsS4kuOjffODKC/XC2JbjexN9/o2aVLG9puW03l5AO33Qsm/3jdCshbMnWidLJ88PneB6QYMCFFKYGaeMGItSqhhcbFhp07u2JPPdW0dhsFm1VSBBT2xGCnAalICvK6lMc0s6GIp+6fzuPYSIatppnJgNPC5ufbdvSwwpFDIrK6FG/Den0Rm4zUjVeGSwjGDNEOSgPWfkgREtHxTOdCiPX6DXvsscx+5++ftd/4zdN26qQpXjXjmdVFZNJQOuhPDM09lY1IhgBh4yWyfzspgpjHnfs/K8R4qVDCffiushhxnJ7gzeqQjLOuZZZKFunIVg7U7Ix0avWAKh7JZu3WDSdE7xdEProE+SBLJ0HJ0OXnpBiWqSqZjCEmtmYHFd9LLx6x3/qN0/bSS207fBjv9LqIknjxtElPMHa8WD6q1dkaWKM+p+tDGUeEXMHMs02KaDnT3fV6qZPihUvrqlCVX5GiFFHHydf+IsXaH//JGnd+4OCm0zf28UoSCg8GvA+M90QltDp9XVLyWnHJ/sFvP2p/+EfztnpQtW2NGhaBzRrItQpdiqI6SctJobs8tIpi0P+FIftEAjy60wGeejJYOreO5NPQsaaWTZGA2bXrZu+9P7Tz7161t89/aFevrtnmJv1fklNNzUHdJzQNMXhFLK8lzzsy1J4dWG2JDA/bI4+uyhtfsVOnEmvTrabmcT0R2TEzzkAEUKdZKcVNFM8UwkTAEM/EY/zFIGrNznts3/aHPlqGp/i6QpcgPca7BpJRVSEZDHKlVxUPn17+4IrZ+fNr9vbb1+ytt67YjRtMOdZSnpCx8qtIvLpSheLTp8njI775ucQOHVq0Rx85ItkdsnNnmnbkiEoWESc9eaLhvEKeYFJjuBJUB2nL3OUt9vu5SLEd0kgSSwTyhBwUSuLQBodmBugED/kG0uGbNxv2Z//buv31V95W9XJY2cksV974AJqqXh+24/3hqmgYgodzFMcuh/w/OOxjUmQCBDXX6CMb0nS7bL/3u0/a7/1BSzU7fW2zTIpqvrL0poPyoHyj8FEe7hQ4opQIpUFgPVIyjJs/vlTHwLyh5NeR/a1v1GTQQ7t6ZcuuX+/ZrVsdu3mjI4+EcY2QYuZN8qWVTGTYVAWTyaNpKcypSV7zKctCJU4dHjz2QOAKEF7CA4jgKT54RAmBeyQI5DYKfXjByELHgSjfnybzVLinYrl50+zK1Y5du9q1G9cGkmXPbt8a+ut4TFTLV+narYa8zJatrDTt4EFIsO1yXFzgw+9qGssT9ZoKmXEvytm963HBCmXZA4qUU4WQKxGwdN8rzzEp4klOX7//4aSov6H+bt1s2l/8edf+85+/Kl09ZCORImM744O+8UPCihQnmJAiT0ohDZqAuaV58BQz+8D+6A+esd/9R5ktr4gUcbn3zDjvB+Sa/Enpx16i8uEEWZpEWNwR7ujI5oxXHZGVlMiH00ge9HoN85YMWJ6QzunLMdraMtvc0B2Hfdmlmrs8HVX8fOCuLQOemw9Lf8gg8mOUHanyB9/jAsIwMVDtoCm/zRv8mMT+QkCidnFPSDGXQFy46E3QHYoAkfqMVsQNQWpHR/y5taml5Ddg1A3nan8+lC5KjkwCPKfAxB08VWZURJryAftSVvKonch4YMPX7nE2Xag70s6u6aVWtnuJHKBEZpkUB7a21rIv/+XA/uN/+rE8R5EiDxMzvG954mrxjEnR7R6djqTo2hgifEDYp6RIMwfLH1ompUqlpcnosv3j//oF+/v/oGbLy12JCU9xVkmRvEGKbGMkZcGXxPhxBTIhRYUEw+nIoHkjiKM8tVZzWkqW55KlzoUAY3dUoSb5cIDRyVts0KdFRGUFJHbI8L4ZjoJBxwKKiYmG6qPGxzt3LPcxSLJaHM6CsdZhQWAXg7RrPTdhn57MSagugqyLFHmyLl1U1rOEZrAOEZ/ki2xTXcvUbmZ4omW5juRym2obNdE9OkiRMoui24lyv7+h42TI0iNSoABnlBSVn+EokOJX/3pof/r//aENa0cCKbo3PE2KdC/QhwspihAhRs/zg9WvfSRlFf5YCYJA6cOJM2vw4AEHBUMP7/fOLnh90UVPhry8yY8MAWNQwFNg952C/2BcDjqqZSyjthSrLdnIEGXEdOgzPI9xjklNHqJIs5FuWqu+Ia9wy5qtDRmy3EeGhEig4XUrmjGyXOJHWdEM7sPS9ZIDOh5SUSKU1WS5v+FNMfIR8xaDjM+zrfz5u9WMPZT+MT40qa1LXuvWUqjXb1tW5/MQ8ggTkaTEAVFyZaEWTSEvnXJwMlQF47LiXohNy9grfMdAmZfl7/LUTs4OY0m9ABRmEegGzWQtlAVGLWDTjAZAe/ejLSPt/QEv8x3GhaJIeDxwQHhhyVk7zpspkNGg6K705CV6B+4dYxRTxjEG65ynpcgOj8bVCe8uaUvReIKJdyKC0y/9go2s8P4tSLE26mh/T9FsymG6rWag2oVS0AyvMWnqfEiRK8u04K3L8CGN6Fz5u81eTtOYnbIg/ThuPgcGZEb+VGmQXyQ60gHe0U5rTHMlT0be4XAgeQ1uirC2rKFWTGKS24jPCWxJH2nqUYqKmAqFd5YhxJIUKR/5n3K8yzL2PV5qO8Dxssw9eENeOoJ+BD2ZaUhGBVlETCORomw6PJCDFPef/mAF+xIuMyHUJEFwWYYwfXXGgdhhG3dTFMhfMCEnxtIwvHl8h1CkMjSMW8LgQcvYcLTNhBC5mivDYVdOIEaM57ig6JbVSl61dHTImulheY4HZfxLIseGDfsMqwlJoblTqPmSe+jbkCFA8hwhE5K7/1T400DGp7yRfuTm+VHeQhh4fsNQMIkoH3lf7JA3VGzJmnXJKzsqKR6SePhG84rkxkeYUhtIxoPBluQtjxvvmvhVBh50di4yGCreXH9h/K3K1suQMtb5MbDPy17rUcK+INEIXoH1GQYOTRbcakdwbCI57i8g7T0D4ogh6kJErEl8wlWa0tr2mYol1yDG2TRPB0mfVnrPUcxPPBgNhOX2gEKFyyBDmZN254yvY5d+fayXovTX1njirKad5TSz5Q3mTRsNmYWFTu1MHqKajEmq9RAX8saMQwj9a8z+wkwwpf+iMIugfwtyVC6UH8+Xe9shrwwwZuwgckhTntCLFOk/VHOaWWusUNNYFUihwBPTRJ41k0owWqrGnIgqDyQzVDl4eWgD74h93Jdy2xacELU/EqErNecBL0VtsjPqxyyDt7TUhqkHEsSe/Xs+HHE7319A4nuCIAqKfiq4boR1n0dR2wzSRoi43AMqUymh68oMAwPyIIXwmVXoF7TmVGCbjihq1hjYDoHnw5kEwbT7XI3CZZIP0zMpRu2XQfubMIoHpZu6nCGGTJTNbam9CVQ0yJcmY0pTWs3wTE3A1IOMX7/clfvxx10+GvYzQhoZr0A+yA/5In8hn8qvmsx834Un9MgDmUokLj5fahvd41srXmbaqCGrtKXrqGB4sq/4dTLX8jS/LuHWxZr18s6TciXopHGIBaRKy4NSySgBXevlQgJmEK7f+osGy1P8RApIizkGxpTuN1AiewTILyCQYbleLqPUgv8T4DzJ7m17Zx3TRhED24Rpw4nnMQg7vM2DrAh+VCthm79wTjjiO8uTQsDQCb5/OuiHJ/q8XUEIcxfKMP1vHJvwkQv3PUjlRAT8ka+QzxCCt7wzR76tn+3y4oeYYjkRQnlQDpP7cCTGyjmxbOPRGE84c3uIx2cf2KoToMJEa/dv3pD8vkQQpMhvKvjUTH7AT6lQocK+R6imQXjQPCFDP+IVzBS8q2FvDXx/kqJkMq5RpuTj5LhDsBUqVNj/CEPpZL++9Un2u7fEuA9JMZChNzpUi9B/E0IteInCbE8GUaHCw4Zgu/5wxW04ODuhA23/2fG+bT6LBSWukiDp2GadcVtRqBUqVJgBBPvFU+TpfrTdqScK5fJO4Hw3+AeKfUKKgfB2wkWinxgQ6qT5/HHCrFChwv5BsFXnRCE8BAxOT+hT3F/2vM88xSiYKSG6IPEQFbxfgl37R4AVKlS4OyA+t9/SdoNt77Tfu9lzyaIPGPuIFEthuceIKEO/IZ2z7KvXG9bpdH28GNgbcVWoUOFewKMVRo3wnni3w6zjWpGJBw9RxnyHFuJeY595imBaSIEgY/Ap+WHDfSjIChUq3B3YbfiGj2y3dHx8/z50b/YhKUZEwZHEIMjBIA9zd46PVahQYX8j2C58iP2O7XYfN/X2KSmWghs/gQ7o9wdh4oIKFSrMDGgqY7d9ZtoIe3yft6D3Ifa5pxgW8QlVr9cPpFg1nytUmCmMSdE9xOAmhq4wX91X2ENSLIltG8EF8ov7gp/ItjYUEKo3n3d4kBUqVNjPCE+fpz3FEPYn9thTnBYM5Ldje0cY0qdIX+1+rF4qVKhwF4Tv3gz5cNA2m96f2FNP0ccb+hQ5uH/OdgJDcZQs+dbhexVQIOemNsxHNtTpBbMlm67x4Tpcx/Vxfrw4R16Y/4+jYwplJYa9xFQ6whM5nsH54AUPIeXhuVz4LeGr/PAUPsqsPB5O3gY2OSPKgVkEQ3zldS6/sPqRsCvEi8NdQwhlEwLb94Odccf7xfBJuNO105iOi3MmaUeC4ffuV39kp3QzlBNBB7y9GBBPDSUS/0K5+96dZbOXmEpDXI1yCLoVZqecSEhnePqxXB1N+PYNpKgfZgoaMXcQCPn0T+66QxRiDt9nQRLQ04Mnzz0jRbIfMiyFqfVKYhRcQKlqFmZD7us8iVsnMzfgZmdg/WJLtLepE+mf0DWFzlEorGf94aZ1hhs63reB//FxRQpLp01KMYQ9xLBPupWD7sA2NzaV10Do/WHf+vnAeoO+DQulXEY1GAx9KBLkmbtWaan8+ozPQ74pLOFIQHxlLleNEQfJksWhNoaSEao60J4OH65SCHIj6CwPHq1HFYPXNayzYNsNvIw/Bt8fwmSn4vWgtI64F4GyIq2kRKu7DOFmMX7SX4aYGBRFYTpd29Lq92fi3CBH9vjM7uMTy6XHGdNPBdyTHPvW1T5pZRnDVKWry7Tql+UD7WWGWcUzVPn0KSeVF+nt96SnkjflitdEuVPeQ8VLbD2VP8TC8c5Wx/WDeMnqXsJFg1gISg/JISAL9IrUd/pbCh0dR2466mWDYPo6d0N569jW1sDSlM81MFYx8Xk9HUyJ7lSk8uDLlCJRrekvU3jwFLVnpAiCpxjWyq0yMFFn4pNr8mpfX8QwkMHnOYLkOyR8JEgLJwGuCN5lI2taltVVAFKmnZhEHsIeIqsz/X/fGq3UFpcWZBwj29gUgfPhKeNLfC17552+XbhQSJHqttVNrdNNZECZ5dSyTFzaaFiSJsq/DF0am6ZhctOgvdqXSzkVWKKo+NoNXceX5/gCoNWYQp/KSLLyQBlMQTIa92a4x07QtUy7H7dlDOHTCZBNue1lOQ0iIWFR1XYev1cQT1mIvoiJVLxKk39WAJP1Spb0KXie2QaT9ASDUyCjY29FwaMkvngd37kxqzPLrOLm2y0FcnX5ImsC3xBSeybjhQMRm46laWoNlRPl1RsmauE0pceJra8ndvt2ZpcumV26yOcP6moFMaFsy7rdwrr9vs3Nt10//F5UZHsJL+/JB9UmYCuxgfLfaLSs1WjrHNKMCso2B7nIn2syt1u+MDkYkF/yxH79lc8HiCnEjX4ge34pnweP9LlX/vm/KNcfMIJC1qRkNdUOtRHT5VODIBAFPnVKjV7Uyw8riRgHt+z5Fw/b4SNStpoKQE3qGtWNlJmmdQ0irfEBJgiC2Y61TVQUpit4+HxiMGgUfHsRPxhwb9Weo26YRVxb3X4hkhMhauPKh2Y/+3HP/vX/8uf2zW++JSNasVZ7PsyWzUTaEhue41DEP+STnaiOKg//VrCM0eWpczB5DNlny9Yh/6YzX/cz3de2JKIgDycRD6RE8JMRIUrLPvwh7hODyoRvjXhgm/yE6wOn+E8ZogdA0Lp2lV8v2UUgHYoHr8JfayJ+liX8/qS9zI+uGaeTdc8LuoJ7outIp3a5lzeGJ1Ao4ynTGvIoXSWDkn2ii5hVG/n65L5+GfcLciAM5QHi5fN5gsIrssxw/DY2zK5dNfv2d67Y/+vffNm+8+03bXXlCWs0E2tRJ0opyGmWcV3Pev1Nyxq6txOyJ+4Bg7xTecrbLfMW3zZzMfmSGcdRZr5qqFLyb4srzwqJnJS+zrl00ezrf3NZlyxLaPOSloiROP3Txsxc7jHpGspMghIf4Cn6Pm70ALGHpBiy6wpPLbSNFFGuYHRBYHx8iRq6I1I8bgdWw1T8kGYi5YQM8SKLXGSo2jljzn2RgBugrtNR3YvCpUBBaaTl1oMFyt53kqPJNJCHUUtb2lezC++b/d3fXbf/8B++Zb3esmrTVfvRT96z733/bbu1ISVJlr0W5tsgfH0vqzeVf5SH7JI/ZOk34TbKnuSr4BTChZCm8wg/QenCOkouGtW1fj1lwMJ/PXZfm4Aj4boQ4jYyjfum12MQnEhjnPcS+CW9JJItfmKIcbP0g+Uybsf1SZmHfPrqZN23da8y/2FHmQ+EIxl7LCKAycxN6CrXaFXrfKWxwJhVkScp3+BuWLeX2ofXzN48b/bVr76n8v2B/eTHV3TJIZVz3V599bwtLB7y8lxcMhEk3+9Ww1QeIt4/90riJ1P3BJSZoNtjdYGkwpL+QGwR8xp4gyPxV/pcXPqjjbLZSe3yxdS+/93rOkE6zCc3sGcnP8nSZz4PpDipyGg6Q4rxfg8Oe+spSoBOiASvMaSAsbaVZ8iX6fAU84FMVvsajZo99cyyHT2mbZ1a8CF44pHS8G2M0ATSpVokajLyzeMagRKL91QBeEEEdtgDjGyrsyGFoDsA70KFL+/2/Du37c///Pv2ta/9XMZwVF7gAZ17yJL6QRFn2965cN1eff19u3x5yzqb5AFClM8p/SF3aSZjHDG4PQ8VhrwZ92wQiO4VvissAtZ1hS1oP4rJ92AiMaJ6KF9QQq4MwVVVv4E4w/kxQBgErKAkD50VrvY7bwsem5PibkCcyCps7URIJ4E0xHQp8OEuX1f6lYhQUcY8omuUQQjBa9ap/qNrqKjRF2uUOaOlUcZPhnQ6REh8A3mGikFxNL2rY3PLbFNe4QV5SH/34zX7y6+8ZV/7xtv27rt9G/RXVbEdUzhkedGUNziw19/8qchzzQ4eXhExNlTBd7zi5K6bm11rNed8/cEDXSLP2Crbyq9TXfCYEwpEx+lGxATlGEoPRZAFvmBPZ9WVv5pdvGD26k87avm0vKugluIMyO5Vpm77fif9xvKgrNnPrlJ7HhT2vvksAbiiStECKaK5UlgJzR+25Jk16nNeYw76HVtabtjJk3Wbk1036g2dw1Ad1Sllnxod2Qnf2VVNC8F6s9KNojRkV3SMU4s9Qj0V0Q9Vi6qpQV/M5kbPvvvdH9nP5DHUbE77m1KDlhQrk0JJSvSjypvc6o7s9u2evfn6BXvjzSt28yZ9NfOqE2rWl+LV5D3WG5Cdal6+vqT8u9Hqz8nBmyR8jS6qIPtZp8EGteJVcz4B8AuZECifssy2/W2HPzWVzCPBTocQL3/EcW/B9aXUjUnQbi0nZTlJjR8ah/JP+R4bGdcrv8HA8UwwRAL7CeU9ge/Co5FMvZmIty+ZIWKVZSHDLyTXTq9hN2/X7Paa2Xvy+r/+zav25b9+1X74o4t25YbZ+mZDOnpA5LHgfYuFmERVpKLckqc4tPWNC9Lpnp06edDm2yp/FT5yn28v6kakZZK/BwnXF3RAaQiyRiBxgUxDP2IkxE5fG9LJTPbJm303b5p9//sde+vNTUvri+5BD3n4lOAJcxFlHP4CIaKLpadI+cb7PSDsA1LEUMh4VH4JQILA8aYvqyaPhj5FdDgf9G1j85pq1KHVm5nNL0EKvOkysHrGl9gkznxLS4SKoiNM7US4XuOLFNiF7PdGvwSZYE8pEsk16lL8QWHtuZade+SMLS0etFtrGzIY+hmVdxkcn9/D4NL6gnIzLw+yLoVqyNtsyOvYsJ/85Iq8ETyVBVdIicI/R5rIq8bbRhIMZ6rJGy3oYkC8Zd6dIAguq7L2HxMDoDwgAS3LXVw6DuOy0128AuJaKiM8KvqgCGyz7MlOVMJ8ZtXjvbfgulHr6m5ywRh5wH0UIqGFz7oSvOcxECDLGGKW2GLD0xryHeJhO1bQgFjQnQCMno/le1eNtnNdP1Ll21fFdXtzZNeu1+yDD+UNvWb2V399xb7y1XfsrfNbttltWz+ft3y0orQvSwY8fU1FGEpDsql9t2z14MiOn6jbb//Oi/b3fv05W5xXpSZFbUhHMum/35cOzD2C98wgMv9DH8J2MKZQ9oVIrlavm/wT68pOs2bdOtp4860t+/a3bttPfnTNNtfbIsQ5qZNIlCYy37+OFS5/rozER7x0IaC3D54Ua3/8J2sP9o4lUF3PtJQyQSnL5jN0SDNmOOpaKsOujeZs0A0fiGw1eBL9rnjiQ3v+xVX71S89ak88tqimhZl4RfH0bTTcsmYdduQugRClUYo3mK82/B+V3xOUejToirhE6JCXnEZvFjIGEy/je9+/Yd/9/jtqKvdUAbRFkm0RvUhRnl7Ok2S+wazmCZ85xaiHg441sp4dPtiwc+dW7LHHVu3I0ZYdOmi2MG/Wlh3yHXKaOOhd6qRAh3hUODwWHZSSB5IE/BK/JMUp7l2yrhBOKIGgQ3ws8X6II25PPEZ20Xekwgqb9wbFOXJS7GnVb1AG0sRBGRfyGKeT5U7oxpChX0oiSHsIZQoVdK2W6GZJrx4XZQQ50F3NyKhOV56fmsfXr5tdudK1t9++ae+8s2bXbvSlo01V1i2PA8nS7x1aMzyAoLzWLcvkHc4P7cTxpr300ml7Wfq8ekDlxO2kCM26VrinuJ97elGQvD0AvTyglEYA5FWodmcIjtLWU02e1FVpqwLvqs6ihfP6m7ftW9942376kzU5NEfUQjpjW9pPdPIHFGHH8j5SwukJFV8Yo0hlHvq8/ZmDl9GDw56RIn2BKB31boIhaQ3B+MfKUVK8HBd8+HC7919wbnLLg9Vu29FjdfvCF87ZK68ctoMigMTWJfihFAuPhIcz8kqK8CCCTl83CMXL5y2D57gHWkZi0IoodXQ/6L+8j7DkKeWFS2Y//dklhQ/sww9yG/Tn5OnNyTNRFYLxK3ifIUEXhXqV6LoyvoEdWK3Z2bOL9siji3bseEPbiS0sjWyx1bWmmmte47sctKQdGGtsNXsCUeIxlTLzVEn5dW8biWX9gZh2Ac9HmRkRDQ98iCMwo/azzz0KgFlx3ylsi6fEnfYBeZ3Bo2NdJznxKSh5eHIMfRnvA+ViEk9HSSBNpEF5QN/8/ABOIzhFOnmGQIXRy1u20c1sXZXWzRu5fXh5aO+cX5e3vm43bo5ElDT3WirD2AER9Jj8E+qFWjfonmTfaHRUaSX27DPH7LlnTqi5XFOFHyTjoyXK4IkhkESIcZLUBwjlrRwSlMiW3KPzLclJpJiPOnJewviEnlox9FdfU0Xx3e99YN/+9nnJqa8m8iGduxKCclmo7BiDbElX+ZTeydveaf+FyohzkSQSfZDYQ1JEMJCXMo2HgnCU/Qkp5oEU6QOUEdKh6+fWZNA1OqG7qpFvqunZtReeP2lf+rVH7fFHE/cY+72elmp2DuU5QqYYKdrFQgqaMmRANdqeaBnSpox3SN2JUQHl6vRD90BPPPTuO2avvXbV3nzzml2+tGm3N7TflYu045WF/DEEAlal2UXfT+oPmHqS04YtigxPnV4RQR6yU0datrpotrg4b/Pitzr8pqhCUN3sfIfcQyKd31hTvHx4KJAoe3QvnvT40clxvCLyps2wX8Hj1pKSFb1rW9cSnIDDOVzANZzLT9xPnB63Ah+rp0LjCH/8e5OrTAPeM2kK+wLGH0vSLvoB/Z46zi7/vIXy4k1T7WCEE94gWec4T1N5YLKxMbAb6yO7eHXLzp+/au+/d1PkKCnli7q+KWKQjhKF5JergvcK2NME6UoeIsSmKvKVxVzN5Hl7/PHD9tTTh1RpmamYbaCCntPKNkIEcal4lfmYzQcMJB1KzlVCSkpZ8EAvUZoSKUxX+po1WralOuettwv75rfeth/9+JJtbTasXl+1fNjUNarUCVQa5Ifmsyq5QIqQX0mK3Et2D3FyLvrM3geJPSTFoESB7Cj3khRLoeBGOyn6PsYbIiDOCB3jAzWTW200cUskeN3Onlu03/yNp+2pz6XuNfpA5tq6ln15j2gT5yJ8mjB85H2vql5l1t+UYKk0uJem3UoKpIiH3M+7rhQ8lZaP4cZ54YLZj3/0vv38zZ59eG3Z1mWtg2JDSilL1jW8zRLyhUfZlLzol8IbppYn0KfXs9X5mh1bbck4V+z48SVbPZTZ0vJIXiR9m7nNzTGIGHYgfZQJFYiIgzQKWYaBDHSPkOjwNFZl5MaiPX5NQOQmrvXscmqd/sAyshJOcTqBP+jQCXMcS4S2B8qT7uO3LA97vGFNmiPS083cU0WPIrGnKnfJgmYg5yPncATD1A54S95KZ4s3SdTeEOGt3za7ca2wy5fXVBndsg9udO1Gh3TyoIoKNQSGlTDeLkl7Wm4qnoH3c9eKhriQ4WHztqCa+tihNXvqyZY9//wpO3VKcnQehRToOiq8/zChC4mEjUH6CEpwskeVuMBgdCdF9Mg950L2x4NQbIi+7sTHXr726sC+9rev2TvvblijdVjH5qzTKaQzbZ1D3zijB3S1MukVr0Kwa8oHvZkmRcoJZ4m9DxZ7R4pOfBKKmmRBMCGEAbgIDlJUAZR64B3nTqCYC+YjsmuoMTXE86BJ3FGttCmlOyqv8YTXwt6XJo+Svg9qnHoqskCZFQdvzOwNUAaIQUsnRUJIS8i7LFcBf6Mv12WYi5QSxjGqWa2sXLtp9pPXbtv5d6/IY/nQbq8N1XSjJqaThjcKePos5ZNcw1AKlKqMX25QneY1b7OMZMjJQDKq2eEjC5LXITt2bEkEmdmcPMjFBXNPsilxISq3S4W6tiEeRc6/SCCuo8CcDxFzL+4cwLWsU5aUqdZ8PxivEYcWfk3JpuE3grKX8SA2HeDe42u1zSW9vloGvq4fJTYMate6gCzoC8QTJMks6ffa2jRb2xhpWdja2sA+EAm+9951u3plw7a2lCYMX5XT0OZVCfGkP+ioP31WGTkJK4zoX8MzT9HHrsKWZJhKrkftsUeP2/NPLdrBA+YDtEnRaKRzVZk1M7xfCdiJoawgHQgQEuKBo2zDh0+FcnzQ4NVFl2PK66dBxlTYA+kd3uElVdh/+7eX7Ed/d1kV+HzwCGVnadawfp9rqdwpe8mpDIAFZUogUuw7OESQokKia1Vu8MODxB6SIoRHf6KEIvc5EiOJcaVzoXBOEBKK5KRIv4bOoy8DC8l4l1Jx0KeW5/IM67fsxIma/cZvnbEzpzOt163VGFqq2q7OUBX6xYQwBmwvgD8jUsKgVHO6IcQmKZlUPvA2GKPJLmYXyZGLzqPXEE9yIIO78uHAzstrfOuNvr3/bs2u35Bhd+shmlQ1uZpsdEGktZai5QmmrLHgIceWTKsrzsBr1smQDP2A7oEP1NRObeVAKqKs26HDma2s1nxA8dKSyHKuJsLMRHypNZsMINflXC+G8oc3LLWPSot8eFOefMqg3Kh0T/LA4ah0nmUwXhHKg9vO4XJVFTwtil4l5KaI9UO8Okpi5EbixNK/CIkjP8iSsNXpiehyeYJDW5MneOuG2fVrQxHgwG7dZB8EhPcnPSlrAjfQkfYXi7qPWE0tDx4QFCN587yVJN3NGECvpFFhz7WHdlAyO3WmsMeerNujj7ft6LGGZaO267lS5PnIVL486MI/8gpE99RvGbTDq0XdF09R+UvNn0woPGBIljlZVrKKFN9apCjZ9vqZXbzct/feH9rXvvKuXbygSry/ovJf1CUyLuVvoBYP+UkS6Z/bM/MZUHLaW9r7xPZdG8N5fm5wirAPJ80HiD0kRYxWHp5qYg/K+J1IkfPCo3sECSny4AWhM+yDp9Ghj6pRl8JQ+6ZdeQTX1WTp2TNPH7UvvPKIPXZOhk3/mWSraL3fjD75vQAqId/O16IJEDCOuMW7tDRLkQWe2FCWjV+S8PRS6S6kpYxl5F1SXht7n4Gxr9+w8+/csus3t9S0zuVlSp5JW0o6r/Pk6QykgKqxaeoxeYYkqW0CawKWOTXg3XzSjS153wNbWKzb6uq8LS/NeZif480Lli1rNGv+9L8tm8VJJDS1TYj9lXh1gNxFTK/H4yzifue6EuXhgHI/C0iRfsCenDS8PpZ9OVfiPuuy3sttc7Nj6+ubtrnVlVe9odCxG9c3bH2Dp8A0SRkUTX+XZKMK18dzJjw0IX7JnT5CLemWSEbzSmtP+qPKPBuIcLfEGGqhaHtJXuHBAy07c2rZnv7cITunlsqSeNRfrUy60su6VyAFfXFKfCbSdU9W9/GxpIwnK3MaSptlSSC6e0YFGjP/oCF1dS+bVf2sK9tvvzO07/7wHXv1tSt2+7ZIOzsoPZtTubXVepMOy5azesgzwI4LycG9RC88bB7bvxMpSuaybwIPYTjvQWIPSVG1hmoOPD8PTorU+KiGvD4pk3uKPmkBRqoFNUuuJiJPo9XsGAzl8UgheY84V/MFD8bf5siHqpl1bb5pRw817PMvnbIXn5+3k8cxVmbqkNfIIOc9UDLyR26CsstAxoFt0gPracuf9GqbA6y6dyTN5G2AvpQIe1YkXblFRVazjiK9cLmwt95atzffXFcNvmU3b2FoPC1uO7lieLlkyuxBbm54cm7wWpa3ovvV6Vj7mWwiaHXwaCRZbTPRgQivLv+zlYgY6ZNsiCwb7kk26kPvtmhrvdmQz1DPvcJqqGzqGSMCZCwi90w1E69kTpq3ShHp0fb0vvCetwjMJ7aQ96H1fl95UJNuIKKHDL0vUA2H/iCVNxgGuK+t9USEufW64dych1DyWDy3ZI/8UMPgEWrpBKsf9ntQGoI9kxZ8+rplkj0TNIT+anlBtY6tLA/s7Jk5e+yxRTWTF+zU8dTadDkorpaEydU+SVBD8oRMVb5eDel+fgNIgkk2CNIDUhDWePpKSYgUtE1xB6k8eAx68oxVyQ5UiXzwgdkPfrRu3/vh+/bB1Z4aaapQVIkwppYXKfp9pTidlx7N2bAPWWZSITzEnjzNjpOeQzZcU8sFUkzpJ/Y/7YYQnRQHHmrODaFL5kFhz0gR4SAAmrPe0aqip7bwY34cb1FreIo6LxyQ4PwBgs5XLctL9xyry+AKKSszz6TSWIw507XU4KOCMWGbakrP2+c//6g99VTLjhyUb4Di+o20ROtYhThcSUmH0of1UFj0I7GnTF8Y31em6VNhos5cSWOVZdwKgzgAvwr0MmMKYacDb4I/rzh0nLQxaQBJRBkH7JON88T6xz8z+0//6V3V5pIhSifFxawLiFZNoJEy7n/ODsRJvnU77ocMytR5YCen6Rzk6k0+Xc/DDgZrj0ZSeFk9IfRTSvZZIWNQQ1n3witvNjN5kw2Ro4glEy2IDOtOijJ4b6aSQYWIctunSxMZQoSBHNVEGwyt26U5TF+qSFNeyVAB0iOv1Bb0YdEcJeCxUK4FS3kcNXmC4UEMuWQ/v9pWPklCSIbWXRgq+3JJmdR0H3iUfOfyEKmsH5FH+Ed/dMaee9qsJdtleCEvVOVyYclamNkJHSJuGbnIjoqBKMubCZBivDvpYQ86R5rkCPgvOlISykdAZHdC2B/jYiuULWVPpUdZKi0c8bRoWZY3lajvErFvyi+5et3sjdf79oMfnLf33ttQOeBdz1lPFZO/QZUw0w8PVXhrp+FeetA9CQyyp2XofaQeq+6h/XiKbtMhbb5bx6kWfLyi9ynK1lV2DxJ7RoqfDUpRlmQVBI7iKDiZqimYYrQdeQGbtrwyZ08/87i98lzdXnjMbFFNPjwj9IAYCjqgVID05zGvnSsMBlSTh4Wi4MVpMxWhM1D8k0CcDk9f3ArxOentAlCxVMub0JlIqCHvx6SYg0KEpNXbnbZ97VtX7M/+ywV5iiekYDIllK5QLUDNjPHFSuaegXx1bVRs354Kvj8GML0OdC2db9v2fVpEuRGm5QnKbY82Hps+DiRvDHGXcudajLyWDtU6CQQ1kge0vPSe/dEfnrbf+JXDtjzXU0tGtYA8Sn/zV2WSiyxSVQZN3Za77w7jUvetaQRJRlIJ+S7pzNcJPPXFR/XKjy4SHXeC5TTfh0wISmFJ2DQQqIw6w8x++KbZ937ct1d/9pat3aIrYEFnz1k+yHQ574XT6tK1rueK1BPjkZfbpJv12cAevub3WcFLoFwqeM3OaqhxKAwfkqHC5sNX165dtwvvfmjDjpp6jXlrq3WJPvjzF/eiRKJSIa6mGMMQntB4jLU104/xYCIUNPdDzej3UHBXv1x3M2BJ5GXaFLz55NftDn5XFJCamTSbmiVyYYajlr1/oWZf/8YVu3hJ3tVoYXJbpSutNX39Tsb16TCVZo9oZ4j5UsC4tu1jKTnygAdvbRchyJMQ4lKmp7Z33otlDJw7vf/e4e/9+ppk57ol8iFOVbb0nR47sqKmtLa9O0IUlNXl0aq14vMpKpU6xN13i6DLxFDKwPWMFxPwiKf1jVSiIQSu4cEOVyrFjONUmt33dHmI2BV8RID0iIHnvBxAQ4WJRt59L7FvfedD+/JX31Kr47ptbYlQk5brEf3ZIyoJNezDiwC6iCgJ4/uXafB9s4MZJkUEXmJsoEBL/TulhVX9SBHk8SX0HalZ0NkY2sV310WQfdvsNvw9zfaSFIcxeImaRfKmwoBvFbYK3psZRKemoahVK9Ta1N6cQ82MQkpJUbSpZMXjIX1SaBblvli33ytUsctLVMoUZ0bzkIcm6YYUuWWbnbr96Mcd+8531q2jfI1wHV0pReTyFJMRpIhkSPv9IKY95MWD5zFix3p5DHPEgHYbAgmGmEJgO65/zL4xIcbr7x2BEpGd5IlueFoY+jSwQXdgR4+27dgxughEPvSf5WpGkm4lmy4FHmjtusz9D3C9dM0fPOj+ni/SUsate9DQ5orQvRNJETJUGvw8rgu+Ik3UnBZPit6LHNXs7am5zzvcP/hhx772tYv2ve9fsVsbcgHkKXulChEzTEkhvBXGknvGvJHSMuAhjlsVs4MZ9xSnBO5lUiqJAn1g9Gc4EcqjYlaaoEQoFWOsGnb15oa9d+FDu35rS+rDk9Sm1estKTBkEjxE+iqZRZnCdZ5U3K4MIiEfvDv2DEtMkuAh6q2HEoEcdgc5IsqL7ghHMPA37YsQeUd6xd5/vyZFviYvUWlL2lJ0+tp0P/rS6JvheifJ+1HU6QztDDIOJ8Cp7W3HlQaasBDKLkLs55vEO70szxvfK4ad+3YH+hETHg46OTMuVHqQhKf39J+lKoejR5dtfkFly1NWvCi8S92ebjXvR7wPhBIr8+NyKBdlKHcFeDcBZMXjGbpNlFZV7DIGHVOViBLpfFoXPsNPbd4GamVcv5nYT1/dtL/52/ftm9953967yOcxFiR38qsm+DBVk1nlUKjVIY+R+KmgwwS4EaRUwZvMBDCduP2PGfcUg6oElNoxDlJIlFJ/eFex2YbC5FLqIe/wpvPWVSFfuXZbzc4rdv3GpvSmZfPzDTWJuA7vMk71rziJyFlOpIORRoNj1zTYhnh86XvGKSU94e8+IEX0h8IyPksZ4NO327eX7bvfGdgPfnDb+oMTbonMZydO173ktZB/N4YyXbuCLozEM7ZCltOhPB7D2HIxSAil9HJ2Fabi+tjt6f3T27sHLwjwdlRNlWGRt/0BjRu+8lPkddtYv24LCw07drxlrTbv+4ow1KDwTxSgO9tY616BBxhC2Ao/E1Kc0icUzZVNeyBu9BWvjokbOI8n4koPHUGMx2TALkNsXn+ja1/7+vv2jW+9Z2+9oxZUZ0k2smp5wWBs4qfc1FTmqTHL0kvk2ITwy5uPCZEAxqmbCcwwKSJwCsG1ogzRCBgCIqXU4ZwnJDJkPMZIiv4UWcrB+DPaNxT0xnpuly/esksX1uzGNbzDOSk330JJrd/PfLgG/UREz+XhHdvydkELtT6tEGFfOIW/comCcb0fvXe4kyf97g82rC7j46lzP1+08+fr9jdfvWXXVNvnjBWrMR5RRszDFZv3wcImkvQnzrv2WkIuJqkvlxNBlMvpwL0mYdLU2mXwtO8Mdzjvrvt3CXmJvAHkw5vUygijI5AnD+ZUJAMmjx3ZiZOLtrpKNwV9z3xcjAlKpDdOjGVcu4ET0/Sf71Sc26gyFIWvlHv04090dX9IkBlsuozPlD2sq1n8xpvhbZRvfON9e/W1NVWuLZ23onq3LZ2X3ahyDY5l9DxpPtMniZecyXmgtRR0Peg8aSptwJekgrKYHcy2pxgVwFdimBiDv59LTZaEzmgfkqJmjXao0IfiQ5oE1PR4Uksq7HnbWKvZ1SubdvnyLbtxQ56WvMrWXGZZXZ6XiJFB5f4iPJ3TrvgEGQZLKcKkTifob6zMpKhc8rNb4CXKNtNMTbk6Xy6cV7NnTs3mm/aTn9BZzvRNhbzhvkicISILPg6UOSZHtuEVQuiY3w22yzdgejkVxkQ5FTAkLSHGIIt7+wvmfx+Bxa7RE/nxuuickyKyHclTp2JNs1TeYNs213l/3OzkKfoWB9KZdct8CBmkKLnt8v5+WanuHvQzWQ9EFKQTdND10i8IF0GIAxFXn6ficgo2O0zcMLRvfvND+9a3LtlrP9+069dFgsNV5UeEqKZ08CJ5tKh45WnSj4h3yPv1PtSJIWDcmhuMwf0gwvLevhynVGE28EvwoCUaKZgI39/JFWhCT8Zi4d2FdcZp8bDCr1DpUobUfLwFgtLfvhUmA7h4cc3fjU3qc9acTyz119toOHcUh9hJSjBOgetA6Q3lugf66aSofSw5HivPkMxdgY7zUSpaVzo2t1bs1VdDbX9rjQk84X1er6IPlHFgNJ1U2+PV+DAiVQrb+oDuBTHhMfHTy+n9EdP7FXwRl7sIjjsdiOET8ClOuTsgHfSGCkWBz3AyuBgCUsFCGDSjO53rdujQih08TEW6KS8Rr5HzdXMniF0AvZkO7OMRsW+j08TNeeGEQIx8fBT9HIoQU+sq3XiJ775v9u1vXbVvfP2yvfYaZNgUGS5KPxZ0vhwE4hZ8NqFSj5kvwPUI3fZuKDReQbfjEVDIljZCgrYvPWGc7yfNBGb8QQtA2GVwuQfhxzcj+MNb9ODHKKBSRylQqUE8l4cmo7wtMlN1rxpzyBx6G2aXPrxm71y8YDfWVMU2MptrqiGRMlCZuOQ9ioCDcmpbwb/7i17qXq5Y3Btt+0x0hAHTPemqKE7KfuVK0778l7zix4v6K1bwbm45XyJN56ifzF8XZsbGqIMM7h0kOoaIO+0D0/unjo+NZTeBOKLwdgYQl3fBJxz+eFCOqlxY5YELcvbWgvZAjLx+Kq99c/OWv1119pEFm5vfUinIu/KKSDcn7BboTwzckuikV4yM4N31QE6+M5zAHqVrOOzbra3E3ny/Y9/45gVVnuft5z/v2q0bKzYYHLI8X1ULqK00S/c9iVwre9AGIVSq8g7Jg8tAJ3GMP93P+dFBouK9hfE6eY5lNhuYcVJE0DEAlmWhREwfLo9BhD7mEA9x/KdCl9LjSfH6F0f4ODlN5qGU7vball3+8LZdvHTbbn4wtFF3yZrNRcvSphSKF96lVLpuMORNh6Ga2HEEP+9o+00Vv+LiTQceR47TdG8Ir0HxkaQFW99o2ve/17NvfuumdQdq7tCkox8R75VBtQzB0ZkMEQmgT2isxbvALhMdsaMc7g1RiNNp2BlP3NZy+vTxZbu5bwn3EFXJeKWzrvjKitCJAu+J93wVvyqsjc0NW1oyO3Z0Wa2KVOUtr13LMhH3DkU77PFeuq7ndZkE3aISVFlnQ+/SQU+ZSYdXHZmsgfe412837a035Bl+/6p9/TsX7ac/uW5Xryqu4bL0dM6/Re0fL1O8QTJoPaks/0rywya2p52zFcbEF5laCwf7BNILid6Xzj14zDApRmFPF5bAJoW1Y3fYH1dLUhzvotCJC7JKnAQZzZ82VENmUnYdG9X4mHfLbtws7MqFrl0637UPP+BVwzlrybFMZTPYRE1Ky4QL/k0SXlPinVa1o/0+ZdPDJzUt03KvYIzhgL9hy956y+wv/vyC3bp1wGp1kXON75co3UQvonbvRYbDU+owDyDfB9ExGdHusMtER/jlpcHsCtPlHePZGV8s+/u5z0cRPvgFKXZUfjcDIUqmYegL3S6JKsehv9fNMJW1tQ/txImDIkc+TcCgZ5X9OO33Dqcn5ybeW2emGsLQtYGGCa83Dugz1L2ZHfznr5p9/W9v2He+9aH97I1N++A67y6v6Dy1JkYLuo7PJfAA0aMfe3yBBvEQ4xpp5mB5QpTvmBCnwh2z5yeH1RnBjJKihCylHAt8LPNYQLHm0tIJsgy+jxoVkgraMJKmMfYsBNWYfg0PYaTIDOZGCd0DyKQWc7p80Yr+knXW5+Q5btkbb92w90SS3X7bGq3EMjWvR0lbRkAfDEYTnnbTC+njueiroQYdp/newBNBhhHdWkvtK1+5Za++dlv7ltVsljUwl5/u47OPqMnD7EM08civG7V7isr7rklRcJFPyfSuIZ47FZSCOx+4lwCIp1xuO1xuTx8fBxCvv3dAIOhITWTEZL3hExkMUVGZ0ryUOlIBDtS64Ha93rruNrIzZ5bL970Vdn97zwH3wPGi62QkEub7yZDbIJ+3Ti+1GzfMfvLTkX31q1fsW9+6ZufP9+3mTYadMRGsXFdViv6dHxU/06FhH5m/l03jG5DA8ia+Ffb6+FB2uXzRHfZjJwT2ETgzwk9WiDY6W5hdUnSBE0pQMBTWtoIqw7gQwzaFHWtAChzCCuv0w4gEIRjVwoFQeGChpqmaIwWTuarZkUjBimLOBvLGumqu3Li5bu9euGwXL98SWfWs3V5ycixETkUh+hWB+6uGNKF0PyfFXYIZuTdkAD/4Qde++Y1rttlROvxpodKbDGR4ImORoc9T6c078kQVwDASiFp5KiuE3SHK8+PCx4G87zaUKMtxelfAzvvfKS0fuehTwUkRT1+eOK2MMLsT2zSrFUSI6M2gjyeX+IQXa2vrdmB10Y4cbdicnMxdk6Kucz1VhUp1zmdD8QoHedM6/dSuXOObKJft69+4ZN/73iW7cLGw9Y1FNaX5bMUBXc9XIOVJDoKu87Q84YuXshWfeMHlROKwCtmCp5P1IL9AilrfZlvoEMfjEsQMhriU4LCMu2cEMzohBAKnLYHQKRQKS5riy3J7XFCgLKQY6ANiggSdgyI7EZbKATEyASueXj4Y2XBA49msWWdYi5pIalYzWYT37RUM0hXBjvrav2ntZm4HV5s2P5/buTMH7IXnT9gj58xnsuaZDGMm82HH5lvyJHdJjF1x38/eyu3f/buf2nvvzFtPXoJl80pPofT0rE7aJQpmH4IUc3kTEGIuoyUk8hCYrmD32CnbOyHKeickhNIL2TUwSMfOJWB9x3a8nd+3NNJdwKfykmzTkfxFtRz4LEYqWfLEFrJkqruhyoBy9j7dYsMa6bo98ujA/pt//Kw99UhiLfhzF2Cg+GaXiRhaIjQRo4qAGcPPv2v2ox9dtHfeu2kbm4ndvMXsQZkq5Hkv877Yk/GETFBLoIlP11DOO9B4rvJgsRea/XTLxIcr4Q0oAjaG6IKDMJHttIwjpuTrso6BMvg0OrN/MOOeYil0F/yOJfAajZVyewxpJ31sXgNKcZgEwvveYBMRI97dUMfkCWRJyzIejCgO3nNN6MdJOjZMN8u+QdLR0DlLunRBylr3WZ0//KBjb775gZ1/+5Z/tjRrzFmjrXo4qetcvEVPiCPWyGVipzCd7nDsxi2zv/7aBTWTbvpMxzUZCrNsc5y3KHjfFt4K0lGa8SKl4FTaPPiZfNZ0t/g015LWnXkB7IvltpvAYvr+d1svUV4SsCOeewV64WSHh8gDLHwq5B5aGxQokmU8q5OMl0EisrphzUbNzp5eUmUYorpTuU4QjhFXhHuHavb285pduiyv8LvX7Ct/fdG+/e3L9tZbfbt+oym9Y0jNksp5zoYipSEklinUu0q6SJyWg3TVh50ReCNFt2J6Np+nkwlducYJjDJKXW9Y0p0USLFEtKsYtm0QpsuYc6fzu/8xw57iTqHvDCAuOS+CdRiCAkfRoyLgKUboOOPApBDhFSYdQctRT+0OT4BRVY6F23M2jRvecODNh6LoaNmzVrOwujzIpaWGPf74GXv66UU7c8xsZdH8AQ3vVtuoa3URL7V5wbgwj4x3VJmcAvPjyWZmGyLXH/5kaP/vP33d1tZ1LlPkS8FznqIrncFQdTFPIlkKPsxI17sn7GkOYfeYSOnjEe7/EYzLbRcYl/PdcKdjcd993FeIVcnkPXJIZMCecExRS5uCavGWi/SFbzzXahu2vNS1P/5vP2cvPZvavIrMB/7rep5W87mI8P6wgvgnt571h6q8VNlBXv2e2a11s3cu8qH9W6po31OlO1AzPbNeFwJmOjiGkanlowhIC/Nuuqw8u1pX5R76l6nc6YsMcuCRoKfZ00PuSr3xZq/yWHqK41bYNnA+CHEFsM71cb3EJ5bb/sKMz6e4R3ClKcmSEJXGyZU3HKTcasoyQao7mdoP+TWbzFBdt6MHBvb0E4v27POrdvwEH/kPsVFhw71MRcUHgmrZVvh41YCJOxftgwtm/49/+SN754ODugtjKXcqZFyW4SPHCTGdFe4NO+T5EUPfuT7Z5rO8j568bv/j/+l5O3ZSZZtvyKMcqCKUBz9oez8wn1VwznJiNJ9R/PLlwn760+v22hvr9sGNVC2OgfV6ePvy8tTaYYJdbx2kDV+f6CWIaWU5nbYKn4SKFHeDj5BiIMO49OYIqq1tHtTQF8mrgUN5AMNez+bFes2Uj0R17eSpBXvyieP2+GNzdvigCJIvEIoku4PbltQ3dJcF6w2Wbf2G2V/+p3X7yt++Y/3kiO6ikypSfIDYIc97IUXrW7N2xX7n7521f/iHi7a4atZI19TM3bBisGjt+qIN5BHytcar18zefHvTXn/jol28uGnra0znldnWcGhZs2kZQ8TUmmCmJD5m5rqI9ypiDXoZyxmQ5rAIKxU+DSpS3A3uSIqsB8LJ8/DtX2bX4Y0Cvi+SZanV66FJUhu0LJNbkDIPYqE2sW3Kg0zs0UcO29lH5u3JZxbsxGkeknBszjbWM/vx98z+13/zMxsUK9ZnKqc4PmOMKUOI4Y7HY3or3Bt2yPMTSXGypEHbGHVEhLfsf/9/eNaef4WHb1ScW5aOluzy+2av/XTd3j2/Ye+8c83W1tX8TuZFdIvSn7aq2NxGdb5vkttgwGcZRpbJQ8wyJntV9auo0gTvcQcp+u21PmPN171GRYq7wUdIMSpdSY7aDq9Lqdk84gkgfY1l/40Ma8SU9Vpn0oBGvabTcyvkRdblUbbbubXnO3by3JwdP9W0p545bZ0ts3/9L39gN660LclWre/XTyn/eAni/nIfydh2HsTtOyvcE6IMpzEtx7utA5Fi0heBXbdDx7r2x//0894iePWn79mHFwd26b2ObW20/EP8Qx6K1Bn3mFi3xzdpGB+pfWpZkITQd6yKVZUqD01ob/ss2tFLdOLekdaKFO8JFSnuBnckRRC26TRn2APGED/UxGwqfHyJMYp1WUSv31ENT/O4UKAjKTxoYe69Yb5uK6u6JrnhA8jVcrIPP9iy1ZXHbGODfkreTImKv3MJdqx/rIdT4bPBx8mUMtywxaXMrt98044cnfNy5gt5mR202zcKq2dLYbgMXwlkhMOIUBMZzlmz0dS5Ydq3NMnMh4sNiRMdk94kJTHuLOuIqszvCRUp7gaueJEUp7DNA6N+D8pYiCAZ+gAh8slH3khgrsMkVfNJHgBPm0fDxEb9trzIhnekMzlprmY1D204u9liuE+uJnjL8gFNLzBtAJ+wHo2lMpBfED5OpmruMi/noKOWQM26nXX38vJBTc3gBekGT4TlCaY9q6mZXEv5TABjWuUlFnwkqk61qfMHIj9pHu9T+7vUYcSB66Lffrrcp1CV+T0By65wr3Ddu4OSQTwKYXp21d6Md1RlDsk16nNqHovQhvIE/c0ChsowpEL0OFTTyoaWNGQkTSaWqNugaMizXJARLMtzXLTNTcVZm7deD6olAdEAptfvhNIgthF2hQcJyqvfVxHUFrwc82JJ+3gPeVnl3vLyTuhvVgU4HA2slzOPpzQoa3qrgIkeINB61rZGY84JFb1ipIITow8b+zgdqHAvqDzFXUEKeKdmyhh3OxbGtOX+FoQ8RyYX8BlshuGIj52M9RTkxzg3eRHs57sghQxEVzPJw2Ss4Z3u9Un7qiLfHT5Jbncud8rcJ+RQS6HmH9GXR8iAaOLzsYDxukLn8HYJUOXIBBQj3reXVvA9nmmPr1z4tVw+3r4DKk/xnlB5ir8woKl3CuUga55CM4uNvMFavqywJJtg7CFPETmVJ5AYDoQZ+icDEUbljvF9WkTDqIxjb0Clh+wpR8pTZVtOLeeg3FX+6EEtX1FYlH6oEmSm+NiH7S2Rcjld/lWRfqaoPMVd4S5kNPYepxTWsf18n4nHV/AACSh62OWn+gSmdLgzgzYGBDAOXs3yd1aE7XFux8cdq7B7fJKp3F3u3r9MuftbMKWXSJmqYrSRQiGvELCbaPDunDBjhRjjjmkol3fqFvFdU2mpPMV7QuUp7gpRyXaEsYJO7wdxCUIDmtfA4mcQPOjIeL1oBC8ST0EG4zMf01fJdf72TIUHD8pwZ/g4eImWgd/g6YcJFyjPWL7Me8kUZDqHwLlxHf2gzMctBAIo1znJ1zk+dU64ZYVdovIUd407iW1iBOHw1PY2oOzaXzaD2Ar1U7mMHqcrvUgQIhx7DSBcd2d8UnHe7boKHw/kWnr4jjuVwfS21sctB107XqWcp5rE4/JiyXlh6YvyGDM3BYRjIa5yvTxnAg6WwQ9pOSbPCp8GlEqFe0ZUsp2KNrUfRRwr4/bgOs26yM4/WeAfQdpS4K0FBZ+1h8HeDNXIjNe5mAJqghBDhX0MinqMSXkx4sDLk3LVfi9nPi1A2aebrgd0nYRPWQQSDk1n9KUMY89wZ+DYVKjUZFeoSHHXQPHuhJ2KeYfgCgwhBi/Q56sTEUKOIdCfqCXTmcXOeD+XdbxF4qgwM/Ayj+UXA2VLiOXNU+lQ3nHmJsanBmK8A+HFAPFt060dwfdVuBdUpLhrfNpqeIeSKnhzaOfl002tkjQDGRKiUXyae37adFW4dyDbGHZix767FkNJdOOyjZXcHeL2VR7R7NSXqXPRm+mw/USBuAkVPi0qUtwVUDxER4iKeKdwN0z3IyaqzMun0AVPl8MT5gDIMBBi6IPkmM772LhBvP+dQoXdAdnFMo/hE+S6zXvT+QzD8nOniIpxipQr8yHyBNofumjb49ehcfTl+eP7TadDcXiY3ucXVdgFkF6FPUVQ8jA9bBjDGP7Y671OHgKiQVTY/4jEF8sOhLKbLtdY+pPy30loO+OYRtSH6VDhflGRYoUKFSpMoSLFChUqVJhCRYoVKlSoMIWKFCtUqFBhChUpVqhQocIUKlKsUKFChSlUpFihQoUKU6hIsUKFChWmUJFihQoVKkyhIsUKFSpUmEJFihUqVKgwhYoUK1SoUGEKFSlWqFChwhQqUqxQoUKFKVSkWKFChQpTqEixQoUKFaZQkWKFChUqTKEixQoVKlSYQkWKFSpUqDCFihQrVKhQYQoVKVaoUKHCFCpSrFChQoUpVKRYoUKFClOoSLFChQoVplCRYoUKFSpMoSLFChUqVJhCRYoVKlSoMIWKFCtUqFBhChUpVqhQocIUKlKsUKFChSlUpFihQoUKU6hIsUKFChWmUJFihQoVKkyhIsUKFSpUmEJFihUqVKgwhYoUK1SoUGEKFSlWqFChwhQqUqxQoUKFKVSkWKFChQpTqEixQoUKFcYw+/8DHkHJRM431cYAAAAASUVORK5CYII=;" vertex="1" parent="1">
                    <mxGeometry x="200" y="330" width="100.51" height="90" as="geometry"/>
                </mxCell>
                <mxCell id="7" value="" style="dashed=0;outlineConnect=0;html=1;align=center;labelPosition=center;verticalLabelPosition=bottom;verticalAlign=top;shape=mxgraph.weblogos.github" vertex="1" parent="1">
                    <mxGeometry x="593" y="62.5" width="75" height="75" as="geometry"/>
                </mxCell>
                <mxCell id="11" value="" style="edgeStyle=none;html=1;entryX=0;entryY=0.25;entryDx=0;entryDy=0;entryPerimeter=0;exitX=1;exitY=0.25;exitDx=0;exitDy=0;exitPerimeter=0;" edge="1" parent="1" source="8" target="3">
                    <mxGeometry relative="1" as="geometry"/>
                </mxCell>
                <mxCell id="8" value="" style="sketch=0;points=[[0,0,0],[0.25,0,0],[0.5,0,0],[0.75,0,0],[1,0,0],[0,1,0],[0.25,1,0],[0.5,1,0],[0.75,1,0],[1,1,0],[0,0.25,0],[0,0.5,0],[0,0.75,0],[1,0.25,0],[1,0.5,0],[1,0.75,0]];outlineConnect=0;fontColor=#232F3E;gradientColor=#FF4F8B;gradientDirection=north;fillColor=#BC1356;strokeColor=#ffffff;dashed=0;verticalLabelPosition=bottom;verticalAlign=top;align=center;html=1;fontSize=12;fontStyle=0;aspect=fixed;shape=mxgraph.aws4.resourceIcon;resIcon=mxgraph.aws4.api_gateway;" vertex="1" parent="1">
                    <mxGeometry x="430" y="336" width="78" height="78" as="geometry"/>
                </mxCell>
                <mxCell id="9" value="" style="sketch=0;points=[[0,0,0],[0.25,0,0],[0.5,0,0],[0.75,0,0],[1,0,0],[0,1,0],[0.25,1,0],[0.5,1,0],[0.75,1,0],[1,1,0],[0,0.25,0],[0,0.5,0],[0,0.75,0],[1,0.25,0],[1,0.5,0],[1,0.75,0]];outlineConnect=0;fontColor=#232F3E;gradientColor=#FF4F8B;gradientDirection=north;fillColor=#BC1356;strokeColor=#ffffff;dashed=0;verticalLabelPosition=bottom;verticalAlign=top;align=center;html=1;fontSize=12;fontStyle=0;aspect=fixed;shape=mxgraph.aws4.resourceIcon;resIcon=mxgraph.aws4.sqs;" vertex="1" parent="1">
                    <mxGeometry x="750" y="336" width="78" height="78" as="geometry"/>
                </mxCell>
                <mxCell id="10" value="" style="sketch=0;points=[[0,0,0],[0.25,0,0],[0.5,0,0],[0.75,0,0],[1,0,0],[0,1,0],[0.25,1,0],[0.5,1,0],[0.75,1,0],[1,1,0],[0,0.25,0],[0,0.5,0],[0,0.75,0],[1,0.25,0],[1,0.5,0],[1,0.75,0]];outlineConnect=0;fontColor=#232F3E;gradientColor=#F78E04;gradientDirection=north;fillColor=#D05C17;strokeColor=#ffffff;dashed=0;verticalLabelPosition=bottom;verticalAlign=top;align=center;html=1;fontSize=12;fontStyle=0;aspect=fixed;shape=mxgraph.aws4.resourceIcon;resIcon=mxgraph.aws4.lambda;" vertex="1" parent="1">
                    <mxGeometry x="890" y="336" width="78" height="78" as="geometry"/>
                </mxCell>
                <mxCell id="12" value="" style="edgeStyle=none;html=1;entryX=1;entryY=0.75;entryDx=0;entryDy=0;entryPerimeter=0;exitX=0;exitY=0.75;exitDx=0;exitDy=0;exitPerimeter=0;" edge="1" parent="1" source="3" target="8">
                    <mxGeometry relative="1" as="geometry">
                        <mxPoint x="518" y="385" as="sourcePoint"/>
                        <mxPoint x="600" y="385" as="targetPoint"/>
                    </mxGeometry>
                </mxCell>
                <mxCell id="13" value="" style="edgeStyle=none;html=1;entryX=0;entryY=0.5;entryDx=0;entryDy=0;entryPerimeter=0;exitX=1;exitY=0.5;exitDx=0;exitDy=0;exitPerimeter=0;" edge="1" parent="1" source="3" target="9">
                    <mxGeometry relative="1" as="geometry">
                        <mxPoint x="518" y="365.5" as="sourcePoint"/>
                        <mxPoint x="600" y="365.5" as="targetPoint"/>
                    </mxGeometry>
                </mxCell>
                <mxCell id="14" value="" style="edgeStyle=none;html=1;entryX=0;entryY=0.5;entryDx=0;entryDy=0;entryPerimeter=0;exitX=1;exitY=0.5;exitDx=0;exitDy=0;exitPerimeter=0;" edge="1" parent="1" source="9" target="10">
                    <mxGeometry relative="1" as="geometry">
                        <mxPoint x="678" y="385" as="sourcePoint"/>
                        <mxPoint x="760" y="385" as="targetPoint"/>
                    </mxGeometry>
                </mxCell>
                <mxCell id="15" value="" style="edgeStyle=none;html=1;entryX=0;entryY=0.25;entryDx=0;entryDy=0;entryPerimeter=0;exitX=1;exitY=0.25;exitDx=0;exitDy=0;" edge="1" parent="1" source="6" target="8">
                    <mxGeometry relative="1" as="geometry">
                        <mxPoint x="600" y="404.5" as="sourcePoint"/>
                        <mxPoint x="518" y="404.5" as="targetPoint"/>
                    </mxGeometry>
                </mxCell>
                <mxCell id="16" value="" style="edgeStyle=none;html=1;entryX=1;entryY=0.75;entryDx=0;entryDy=0;exitX=0;exitY=0.75;exitDx=0;exitDy=0;exitPerimeter=0;" edge="1" parent="1" source="8" target="6">
                    <mxGeometry relative="1" as="geometry">
                        <mxPoint x="310.51" y="362.5" as="sourcePoint"/>
                        <mxPoint x="440" y="365.5" as="targetPoint"/>
                    </mxGeometry>
                </mxCell>
                <mxCell id="20" value="" style="edgeStyle=none;html=1;entryX=0.5;entryY=1;entryDx=0;entryDy=0;" edge="1" parent="1" source="27" target="6">
                    <mxGeometry relative="1" as="geometry">
                        <mxPoint x="979" y="414" as="sourcePoint"/>
                        <mxPoint x="250.2550000000001" y="420" as="targetPoint"/>
                        <Array as="points">
                            <mxPoint x="1100" y="530"/>
                            <mxPoint x="590" y="526"/>
                            <mxPoint x="250" y="526"/>
                        </Array>
                    </mxGeometry>
                </mxCell>
                <mxCell id="21" value="" style="edgeStyle=none;html=1;entryX=0.995;entryY=0.417;entryDx=0;entryDy=0;entryPerimeter=0;" edge="1" parent="1" source="7" target="22">
                    <mxGeometry relative="1" as="geometry">
                        <mxPoint x="310.51" y="362.5" as="sourcePoint"/>
                        <mxPoint x="440" y="365.5" as="targetPoint"/>
                        <Array as="points"/>
                    </mxGeometry>
                </mxCell>
                <mxCell id="22" value="" style="shape=image;verticalLabelPosition=bottom;labelBackgroundColor=default;verticalAlign=top;aspect=fixed;imageAspect=0;image=data:image/png,iVBORw0KGgoAAAANSUhEUgAAAUUAAAEjCAYAAACl2RMaAAAAAXNSR0IArs4c6QAAAARnQU1BAACxjwv8YQUAAAAJcEhZcwAAFiUAABYlAUlSJPAAAK93SURBVHhe7f1nkyVJlp4JnmtmlzkPD84jaSUnlVXd1Y1mABrNZhaDkZ0RaVnsrEBmpL/t/gB8w4/Y/bi7IsAMsCvYEaCxi0ED3V3dVV1dnHWxzEoWSYJkBg9nl5rdfZ+jpvde94zIzPDICvdbYa+7XuNqqkfPefWomppa7Y//ZG1kFSpUqFDBkZTLChUqVKggVKRYoUKFClOoSLFChQoVplCRYoUKFSpMoSLFChUqVJhCRYoVKlSoMIWKFCtUqFBhChUpVqhQocIUKlKsUKFChSlUpFihQoUKU6hIsUKFChWmUJFihQoVKkyhIsUKFSpUmEJFihUqVKgwhYoUK1SoUGEKFSlWqFChwhQqUqxQoUKFKVSkWKFChQpTqEixQoUKFaZQkWKFChUqTKEixQoVKlSYQkWKFSpUqDCFihQrVKhQYQoVKVaoUKHCFCpSrFChQoUpVKRYoUKFClOoSLFChQoVplCRYoUKFSpMoSLFChUqVJhCRYoVKlSoMIWKFCtUqFBhChUpVqhQocIUKlKsUKFChSlUpFihQoUKU6hIsUKFChWmUJFihQoVKkyhIsUKFSpUmEJFihUqVKgwhYoUK1SoUGEKFSlWqFChwhQqUqxQoUKFKVSkWKFChQpTqEixQoUKFaZQkeKeoPYJ4eNQs5GKLYTpc0c7AtDxkYrYQ1qGqWtY9xDP4dhHg98rnuP7ZhEfzdck/58UdLrnPysDcpyWxU7ZE/hFdkF+k3Mr7HdQWhUeKErjuKPxKTji8qMI5FQa5pgYixBqQ4Vc6wQZpseXWm3UsFrRVGhpPbVkVGjJXfSn7XHQuTvTE+7HveqKMdM2cc4oPE/kpwzkF/m4jCYh0bFE53rQGYTaqC75tYMMi4aupww4AiRv5D6WfyFZQYzICpmmvqWVjwkV9gtiqVbYL/gk+4DNnABLIvQwZVi+iMQV/JSwM5wbjpSm7kZNgBwgjPI64t4Z4n1i1DMH0j5FXNN5GoPMEaJckFEgNRf7WJZRroAlsgtb0+eE+EvCnJxQYZ+j9sd/slaV1gPHJzHLxxVJadhAJBZ8mdKYx54LUBxuyTEuDFSQ1zhSGF/j4Bwdd7LAgCGOQBiTlIT74ElNrpslKF9JT0vyVZLdtiX5YxnlMh30Wxvoh+tL+HlcswNjspW3GCsw4sCzlKddYf/jDqVa4RePSFZ3Cx8HvJShQq4QiMsNFKMuvZqJoQeDnm7ejWS0GGtYEvKpQLMvGnMI3COEqfvNJEj3hLBCAGVex/K4Q+DP5SdipMJweUY57JC7l0Mwq2nZBVAeO0OF/YbKU9wT3E3kn2wkgZyip4jxlYboTeBgjKGfkXvI8McEBwmI8hIMXNtjj2iCsBXPLy/1vdPnbr9mdiByclITJK/w8AOZxVyX+S7lFSQAQt5ro/BoK8iaoP2+Xh4fX4GcIc2SeH1JfHV56Ds9Re5XLivsGwQrqjA7wBBHdQU6+6cD+0rDc08xGKs2tMBI5QkmeIqDEJK+Qi8svWmo4/4HIFoMOMQ5CcTtVjyDULrJQxHywsOnSZ5KeblnGGRkNeRTBpdXkJt7i959AeEhLeJNS7lHOTUnoYjr3GMnoixnVaa/nKhIcV8BI5sOH8VIhDWSkY2KtpYhFNouZIwFxskTYs7hXEjQiW/TinRddnlbJd7VkejN0KyLy+DRuEpgwNuMPJP9EyLZziBiFwP9elOVyDZSdEB29KlOyQVvT3IbZbesyNZ0umTJthMoFUmQO/IP5dBQ+bQU5lQ+CqzfrT/R08VKRYz7BRUp7jtEQrxb0C92hDFGzybBCyyDezUQIZ4N25zDVfwkTmxx2EmtmDQLaf55/5e249l+PwihvE/wkMLxmQNenRNdIDz6TqfzElrN9P9FWUhaEpwPzymCzCJ5+qku29LzRt6+RE4EyiaWD0tdwFWehjKEWMr9HK+wX1D1Ke4JPk7kMkgZyUjkVBQQkgyzJgJjH0f5KbfZMxrl8kxknBBaeS1G5mPvdB4W6SbuticD118xzC3NRIG6Ls/71mzVtRxZrze0LGvqPHlQIRIB8iAdeE0CnpXimD2IDN1LFqY9RWUSCRWjvg3zLeVfp4n70kRNbHl3eS4hqMldS0eW6xwnU5HaWP78iUxdzpIx4zhrNVU6NXnWdENQ5Xhx06cZyDaUre+0JKEsOQc5V9gPqDzFPQGm4VY1BYwkGEqADEil44aUsF9ehwgQcqrhEZqMuOjIUDuW1XMRmxpxdbygvmIeWJH3bNjvWT7QPl2Wiswya+jynjyfdZnrhmW1TWvVdV7vhs3p+laz0P6BlIKn2xh6mRKlIf7NLCRul7DnJWaNX8hoKBIc2ny7Zu12YYP+DSsGNxVuWCpZ2fCWZDZw+aUQqYgSuSLfYthzeTNcJ82GXg6ZyoFyGRZbup+Op3jYqrgov0iOKlOWkzTsRNSRO+lKhV8kKk/xgWNawaPoo3GEbYxl2nRrckt8j7yJ4D2OrN6Q96LlcAgBDuWZhOsSeSlZKndHTeORgnswMmI8mJG8k3ZrU6Ejo1RcMtKsntlgWNjmFt5m6KssvK+yKVOlf5IEcE8MWls0u2fQSENzV+RF2kVsoY8Ub46n+apIki0dW5MMO7a6qvznko886kTn9roiynzeeoM5HQ9eOp6je4xUWApDlUGh8sErxAlM5GlmWUMSE2X2dV/2qWxqKiikF7zHUD7BU2QbcJT9cR1ow1fHJ1X4BaIixQeOYAhjyLCCshMC4U228Sb41bqsxpvI2s4y+XPyVCBImtYyNd+fyrMs8oHlw66IUR5LJs8vza2ejazRSKzRTG11ObEjh1q2emjVDh2Zt4VFOT7iu//f//aGvf/+LRsOFiwvFmXYC7plS9zqA1GULrwZmuihmT5rcOlBYOXTe+9TdUKS5yyPOUluy9O7ZY89etD+m3/8mORotn7b7PqVLfvg8jW7eqNjaxvyz3uF9fsiyaHoNE9VKcmvVqWTZi01u+uSnReVPEVKS5WUSLBer+s8kTLF64wKMUYiRBcoZJY03Ka3AUudONaLCr9oVKT4wIHCR+UvRV8STlD+yXogxKlj7GOJtygvsC5DpO9r2AtNuUYj9SZwoz6wucWBLS3nduBgzY4db9rpM6t24sSCLc+H9yo8RsVfOjH2V399zf7yyz+0zQ3I8LCMe8WJsfB3nmXAJFdeVeLNc5qDswVVHxJZGDqT+MMmKIhKZUPEpeZxcsWWl7fs93//8/brv7YoT1FyUjGlyrfqIOtDkh2zS5c27f33rosoe3bz+sjWbqe2tV6XHOvW7SUiTHnfjaZlqoDy0UDk2VWZcjOeUFPuAGEGjzu8S67gOhH1Qsu4P8L1gpKq8ItGRYoPHBhAeIoZgPil8JEMtaTvKfY3jUlR23gdmZqBMj15gz0RYs2azcSajZrNtxNbWW7Z8WOLdurUsh06bB4WIEGxIATLA4QM96TgqakW2tkf4AkmdvOW2f/8v3zd3n67p6biIZHiqrh3SXduKKgZ7cmFWuhzpCk9W8C/zSWvkT95hxjJ9VCktyY53pCnd8Uef7xp/+yffcnm2pKTyiFLhu5NpkkmglMkup76CBEOVS9sbJpduxrChQu37fIHa3brds82O4X1RI4EvPA0oyuiaUPd17s/EGbpLUKG8eHMhBgrUtxLVKT4oOGKXxrAuEkE6aH0sqApUgwNMO1Tu4uHLmmaWiPrWivrWKs1tMWlzI6faNujjx6wc+dW7OBBk5eIh9m1ugyYO7nRqalnhchAf1nasVpaei8QhYy1N+QpbN2++rUr9p//y09FkHMixYMiggkp0j2JiSZKJjQ6ayiU36FIzsmogBR5qBRIMUuu24GVLfu933vafvM3DyuffWumkL+a1tqiTzYfMtawRUl5GdUyBJH79kBEx7H+oGbXr43snXdv2ttv3bDLl7dsfS23bjez7mBO3mZL8VC+yI++SZrweK/TpEiFqWVFinuGh5QUpWwx11N6F/Bx4ggnx3ePGZ7CwN3x0iEy46EET4kxGVdm360QeuN4AlpjKAaEpR14IwmunM4fFWqe1ga6tqdzuh4ajaEtLNZFgi1bXa7bo2cO2mOPLYoQRYK8LKErFZ0IjwcJNG8JYQAOw2uSUUNL0qk7FJvyGLv+MIA015KGyC+z3qBha2vyFv/1d+3117tq9h2Xl3PQBiM1n1OlM+3pmqHVRSikO9w1/Eap8B8MfgfCCZ5PD1r/6FnTe8oLSsTzR9QM5TGqjJ2ReH8dGKdhEk8hQsxVoRS6f0Z/6SC3hhg+rV23enbJnnlmzv6P/8PL1pI8282e4lAoBjouyXk0C9pueJSUX8EbL5JzQZl5CBXLMJdXSLFrq983u3zJ7K23btvb7163G7eHknHXNjbUrO6LDEWSYQA+S8lVZQEhFkEptFpWjCosvFtQQ59Ig/6CPkGgdAdwPOTXddP1T0ueequcR5DuHYGswnVjuPim9nkF6jsfCjycpChl8trYMZX9Tyx8tBF66chQulNPalFqEQfRcop7JLIIn1UFglOcHJTyYj6jTPvQ0UKEM0wsFWnVMQhZUzHYkkfYsfm5gZrDAzuwmtuR46mdlSf46GOH7bC8QX/wWSZnvPQVeTAQLqv6jcvyLMfIRAwQLsNzFEqzUz7URJQ7+K1vbti///c/lYdzyomxh4so77No3JLBb1hT+U1EjCEu/bkB4+mE4M1DAcOO+5Ar5/FwI3UD9lPGuJPEJykO4Jyihsc6Vfn4hbqPJyHci/uE/ZRw3KdrVbkMGxsiI7P59IT1N1XRNHlE9b4tr1y0/+6/f8k+/0pbXiNEGftM0RFd4JVMS1st3xvATZBAWPd7+EZJ3OGAg1VivHrd7O23r9o752/ZlQ9yu3kjtbXbddvcakjWTUvr87pcjfrRQGWi+zKUh0H4haq3vK1Y8S4huTD43N+S8TGXzJXJuEsXtc4JrYVEgSWtAcJH4AVBIL3TEmd9enuqcn8I8BB7ijtJEW0ql3cF16GauYwbH4HO8xggxaA8jCOkph4VDI5WM0z3yjJ5bFLivMgtk352ehs+lKbVqMsIObdrSwt1O7jatLn20E6fWrTPPXnAzp41W1pSdFFPud432BeW07jTvmkUImk1JGUPeCUiGO6tffzm8gpv38rsX/2rv7PXX5P32Jcrms3bUOdsDC7IK5WXlS+4AcahKZEMooeYpTyYCdu+Z3wsHHeiYuUT0rkNHpcI1w1X5aZr4+UsWWXJ8KTxPs7hiK6FoAsqseamPzlu145ao9YQ0Wxaml20556v2T/9p8/JEx9ItvIOuQf9qAXyCRWce9yqRD4OUQYfgZLhTWwROqdQb+CVv/+e2etv3LILF9Ztayu1a9d7ti6ytqSp81Lr9qQ7aWat1oIN+yJGHtbIWx8MeR9bWidZ1xLJW+n0tErPQq6Dl0ig3zTXfekN/iiUGIS3jRBB3I7LihQfAqiwtylCqRyl4d4d4TqfxVqeVXjFLkwa4BMIsC3lKYZS2CST18FM19Tmuoa+I7FHPqTZTfObN0lyW1ga2dxcV95Kbo8/uWpPPHHIzp2BXELwhxryHGoi4SzFs0H5FUhNZIZ7AGMdMV6PB3iae7pLzzsFitEB++pXL9t//A9vy3APqPk8Z1mrbd2R3BwZYn20quQ3ZNjISvlSGhLllSV9Y0M1S50wlfKQvrD0sXgi18IHnsvAdLkTZxl2IlwTgiLjTqpc9KsQ8oCRcq37ub6sNxh3yD7e8mEfzccQFx7XMFmzZqNtg826P3BiAPvKym37J//t5+xXv3RQldNNfC+lWF60v1+uLXe9JnnaHSD13P+GOWnTnprITAGCZBjPO+dH9uab1xVu2q2biXW3WraxpmWX5rTylYoURZAsXVouF1VvauLnCjjQsXti2zjMqKc+RnOXGHuUDwce4gctUp5t+DRiQOG0KPuA3IvwWVTUTIYYITCRIoN0WYUEUxlTwvg4KS41bibjXFwwa7eGIsK6nTy1ZE9+7oiax2rW0W0lo2nU5YnKEOnLol8wDCGBDMs0Y5s7k/8p4QSkf0iGpQ9qVtOyULOaxwaFHbabN83+n//3H9l77yVq2rW0X5VAg8HJukqe4igPzW7vB1VIPC0l2YZdHiCq8LQVoekMySGPHodO8MumlmPofL9iaqkfkRiDqZGxrvF7SC6QbYjeiZptwC62y0slMxFbpoqoXrfO2tAa2dDmWh178sm6/Q//7GlbWsTXvy5SROJqJhdM6kAZcx9IkZXdkqKSUGYbDw/lKKggtIQQc5XtYKA7q9LrbEGQZm/8/KpdeP+2PPeBbXXVzN5U9ZiTHumBvMOioAJTfoOSKA7GVpE+HS8/PRGa1lRKyKx8xfGuKIW4E+NiucvxX0I8xKS4M9vj0v9E+CwodKxDitTAHmiSovn0nelXzVxeHatnkMWGYt+ypZWmHT3SshNH5RU+umKPPXFC+6TT0uXEOjqnp6t7oqDgr3ifkbyyWq72doja9V4tP/2E9Lux3gtgCfcmyk1ISgZT1DpupINiWflr2p/9x5v2ta9eFCkuWqfbFKGZ1ettecH0q8kT0W94Qh6a3yMn/YGuHSo/qhh4TM0xbZN4zqU/kKbc6A5pnt5TJm0beGiVSUbJCBlxjsirhpwY5iJvSiRBk5P3lWlS1jim7fAmD+fzFpD8815XZ4j2mh2ba6/Z7//hE/abv91WM7pn9dptUQreVbskRUhX9/buEAT/0XR/KijBuepNisyjoX5T5RhmAqc7I7e+jzig3y885SbNt1Q5vfnmJXvjzTW7/GHLPviwa2u3O7pOpFdrmZxyr6hQIJ6ue5OfytrTD7ErPu6pY0mNN3buAr+WUAE8pKR4JyVA4T+d0vvV8VQ2pFQYbezDSfAei00p4rq12wNbOZDYyZNL9vgTJ+3Rc8t28pjJU9FlMhB/OkjzmGshKJFWhtVAirlO8Ke9KDrn+m53BoLHEXBPxOgMoWvd89S2LqVTf5Twni6kOCePpG2XL5r9z//yx/b+BZF9Tc1oXhXUuXi9vNoWmrAQHpNIKD8iajlhWufd35G8XdGT9kOOqbwZQsIrN3IrSS9P33kbh7GXYT3sx9vEAxrJw8TT82Yw/XGeZslK5DuUe8UEFoXkw3hBBqAPCH3Rs7ZZ5xi+JSTpQlN+i1we1rCw+baa//k1O32mbv/sf3zODqyS/o7kvqUzJe9CpKImqJgmlC0PPLywKJc7405dABMoX3AgpxANwcuPbhdVHApDXqHxeyj4ZBKB4Ii2p2svfmj29vnb9sYbF+3SpXV587l1OmqCjxZ12bxkpbypsqIiDQPC/SbhX3HE2Y8COD4FT8v0cfAx5/+S4yEmRTyZiFjoLO+mABMxjeg/VE3PV934yps3UfTHoGrGtjVbW7aw2LfDR0Z29uycPfHkITWP530gNa/htdK+zAtCKRWX6/Fy3LsJno33X3FLTw4r5f1pq3JJ2Lo3QgROZLgYpfepy2k0j5KO54n3n3t9eU7a/x/+9Jr9+Z//WN7uEWvPrVjC64Jzm9Zo5Wr+N+R5JU6EDCBvt1JrtRJbWKhru6b1zJcNeWe8aVOvZ4pHxJmGZjcEybjLEJQtuIB8KWPez6Yk5vohFLyHrAO8WteHBPUzkJvEQ5Ner5Anm2s5svW1nnW13euORJQ638mScYJ963Uy623OiRR5F3lN8V233/+DF+0f/aMlL4Z6Ji/Un8qLkFQpQKLe0sfjVXm5e0fr4GNwN2L0EvKORI6zpeCZ5QC7VaF6HcUNIUctRZTSBN831HnKkmS0aBtbNXv3/Ia9/vPbWvbs6pXMNtab8oBFjEqfv7XDyAefPq7roZbPKUopX4STpqcq4COkuHN7x/m/5HjISZFlLOxY8HgrviMAT4Hd2onycgrvFReFDEjnobgJzehR35qNvh061LCTJ1r26GMH7Mkn5+3IkeBBEUdKXLqvPzAIscvo8TBFEM4KiibcIvz4im7i/WgkigCRyoI8UbsALkskRTeOgFGq5rOMicZwv49nt2wX3s/tm998XXsWbHn5kLXadVs5OBJBms3P10V8weNl/gkeCuEIkkQnOaIm6QStsgmtcMpuATlMc4uLQCE+rGB3JFQ5hE6KXbVQtzZFnFsju3kdEh2KPK/Ji+3Yr//6kz7gPUk2lHaePFMudFcog0RGgBRp5npT/eNJ8e5Ad5Qolb0/CHFpIImJNLzcy80wrIkuCO0gfzpIfyxPkAs16ZEBHvEVeY+vv75l78iDvHixY1eudrSfYWJKay0oXU7EypM/rPH7huCVro5T4bBrok4x4zEAEjY+4ZceDy8p0vnsq7Gwg7IQJqQYiBCFQWHDgwSatzo0pMnbEQH0bW5uaIcPN+zMmXl7TGT4xBMtW1wMRJGlPDCB+CBEXSjlLNQUHesbcRNfue4LNw5OkAenwDJsE2gSYpzxonuFmAJvcYSn6DcKUfkDI/oVw4BkXkuj77QoWjKscB5y4b1qnpyHi6KZhT/AY4q47stSvv5Lc5TtmPd7QYgmSKFc9+jLVboT+Av74p8fKX8zf+Mkypr+Xsbx8S53eHURmmDsppg+p9+0hHttkCKU/vFDcu4OSjFURkE2hHDHMeHEIgYsFXyTHx12ndAyDByXBy2SzSWIvMhsfSNRs/q6vfnGbbtwYWCXL/at21lQ3paU57o/3Bpl6LEi4ZocPZaHnohgeRgVotZPeeNtAZQ3f0hQeYpe2DtDBH1ZDKHIvXlHk4/tZNix+qhnc/N9O3VmwU6fbtqTTx20c2fraj7K4BQFQ2nwlqLqO1zSgR7L1e23KzGptXUJTLTjHOLcPURoToo8mcT7KSGPyLsFdJyOf7wSHmbweMMHpnNPJSWjD5CVMg3hDRWOhaX/eeZKTK+D+0k6ccX4puKBJH23L7VWEuSk3zUY/hAPTOd4CYgo6P91z12BIUpUNj5+sxyc7vCHaZAiFdFuSdE1ScFv7wEgqzHKpE7LblI5a7+fGk9SfHiP2vbZeKhotXNzy+z8+b698fotNa237P33NqzXaVm/psotm5M+or/KsRLiXZja9unNFAcjJULcLKcDmE71Lz+qPsVxgZcBC9Px6KHV6xBCrqZYIAs8xeZow+bTnj393AH70t87bafPmi0u8RrcmtWznjVrbRkaxoU3Bvl4lOUtFG868No+7ADlvXXVhEbDMW8u+pqgFYwD0t098PLwFklX2Rws0xa8LR0TEcT8cyjcH1pkMgWaloHmowFPG/LUBZNlhC5jjHGZtXuD4vIH2rHYwHQ8cb1cejGyjL/yDBl2RBmCSOBxjQrCm87kjYv8et3MRxYgMwhR5bkLEB3lSNLLZDkoy5CCib5B0uEKAr+qmuImD8c8HaQ3Lgai9p71CxF3wlPrlnW7qb39ptlXv/KqvfX6DdscLosYDzkJclHCGEkJKB8GjzF4kDoUsY0YwXSqf/kRtPuhA4VM1oOSjEO0pHKBorqyoiSQmAgtq4sa6ht2/NTQXvniSTv3CP1rIqq0K7KSd0gHPc1bb55CjFod65biYCgGw3fcOKMBcEOuwzAnrDG+TJseePK7jYF2A0XkpBbzxLK8F/l3T2lOu+cV1ASzBaUohMTYpwayTnbJkSau4ycGDpAFAg6XB12gMKIvlr4x3fOeA54sT4Ezyc+D1tmOgWEzsKY3d2N3Bb4uSRLtifQSm5vKy4L2KiiPxkOIEU1mKkDB80I8yIcdu2XyAL9SefCy87j1T2C/A1oO5T+5FykhH6QBPQHKjZdRuSmEeHTOiCFdm9LPLdfHxx43++IXz9nho4mlGbOz62pkz1tWDPZWWnjy716iKyj3LIPbwXR4uJA+98o//xfl+kOGHQUfCRFoNT4N5TW9QkrkDw8wajU9Dyzftl/71UP23POrNifHKc02dNGmNbNMKq0TZWA1jKzkPNdjopeHWKPvriTE4KNgBCWRcuMd8IHDOp8p70NfHtfdj5GWBuBp0vo4GnZoMQ4hdfEtCcgwNJV3gB0elFkfzwdBibQ8KL08pCgDb1bwIEdSVGDtXkLoA6wx3g7PzZu0LKlkCLqvE1mZAU9oTK3nRKIjD9OBfQosuYTTPRBXICO/Dg/NvSzCbkCeld6y/NgOt1IatARhmz/uEQsBPSFAXoy5DF0ZIF4X5F5OHpJyLnqSqsXSsFarbr3ewD681rUNNaPJIH88yIEHeW0wVJCkg2VIxRhTqw8TdlvKM45Y+GXAKMbb2ixrz9RfqcLQ9K9atSjCMIlTpw7b5546YXOqkTGkLJUHkizp2LwNBzycYFiE4kHnAudpyVsMmAQ7IECaYgyChhC5bzCWCPa4mkJEeJ+8uqVr7u8hi0A/orxBjCzcj1fARNQMx0kxMPIagt9GwT1UeWGE8DRWRsXregSRR3grRvtESMzRGHrpeN+Wvi7Gz0kmZX7x18IovHsNpJd5CRl6EsOcAtN5ERhQL9JQ/AwOd/l7miC3EBiEHQJ5UN49byGQ75AfyBvygmC0r5TXtv7XewYlzLvTTQWWocxjKcalbqIwqSy9j9PlpnxJtnjK6BE8VnKZLpau8QnVfFFnreqqFb+G5jovBjzz/Ak7cXJF+chtwBycqWTJE0D3Dsvg6xGkpgw77OJhwUPapxgLPCIWfFASiJDmBcaT511vMhdFX82Ovp0+fdx+93fm7OXneGdZqivFRMfQQiZ4YKqpTB4jD1mAxyaDpFs8KDy6LDOH7KaTsA1letyyw55twBh2CR+hQZxuULwdIq/IQ7CyQEGRMAkh3SGwJ6QtJKtMp4dwLB4PiEsgX0TGR9gtwiw55cZHEO8e0x1DTAWyh+jYx56Q31IQ2iuycTmQT85DDrEbxE8J5LlLjDloKv2h/OMBwh2g3f4+vTzAcAZlRCUJaQZPk/0MrfEHSXh/Ur4+/YVadjqFffO7I/uLr/BZhavS1UCywwGVvioT/34Pg+chfWKLMU6F6H0/JLiPYp5dULz+soi8BRQOBfOpmVTjev2tf1dEPCim+WLoxmjLVpc27aVna/bs58yW51UfS48IPm09QddRC9P0jvrF4Go8g/AX/SQpc3RP4onjEPeVizuF+wCG6N4R656WMAwleKGsYxykAWIksB0923BO8HBjCCTKknwyJGfyF8w2rnue7yOQdq19TKD04l1JUwjkI+SLtMdAntjHcc6PsiCPyCPIwuWkyO9egX06eDz68WW5PgEb5GB8dGpfyE/wMGNQfhSBx6HAkpER9BGig4Rmppwoa0tziT3/dGqff66w1cUtqzHDjnS5Vt8S0fYUqEj0pwqYKeGSXGVaPg1zzx9v+yEiRIDUHzrggHlTlhqQPhnVlN41w7g99yAhS4I8Bp+4tWut+tAeO9OwF56u2WE1S9qyK5SOMYuoEENVGg0pbHQRpxBMFcKYkKJrs4eg+JMQ95fxTG9O7d41tsUDWYQmWiABiCKQRAieMwX2T8J2QowhENBHiZG/QFP87SS6ewkkWWt3CSH+8BfvGNJEmOTjo4QYQpRFrCQ4T8e3yes+MB3Ptrimd27Pke9z5gtpmzS9Q26nwWl1VcgZzWOtN3S5Gjiuo8cOmr30TM0eOVm3Jl0h1lGUHfnDdBUoJsnWP/wv/U8VmOoOOwh28rBRYpD8wwe4UD90tvsTYic/KUg5Tb//4UHWZOBMDKCa9cBqz55//pSdOdXy19UqVJgV1EWMZ04tSX9P2MrBNe2Rhzho+9CchD5Kunek7+h/kfIOPN0Igljxjg/XfsnxcJIirEgnj9eI8hpcIW5rc9MJkfdseWPA50SsNXyaqcceX7BnnlmwOR7ilbFUqDALQNXn22bPPLtojz0Z9LlWzMmr5OEU4zd52FaoqYxjsCVW4Ak2eg4pQhEPl8Y/lKRIYft3f8vC9kk4/eV51aA+jAQvUl6ivEa+e3L8WMtefvm4HVr1Q7rAL6tQYTZA15B09sghs89//rCdON5W8zqM4XTCw1OUl+gTJmMLcUiSe4p0MVSk+BDAabFsGkhjnBQHTog++43IkL6bYti1dmtgzz170h57dNGY0CGrdeRB8nSyQoXZABOY8Glc3vd+4vF5e+G5k/Ica/6ZXIiPt33cIXBCZBhTGJEgdXdSxE4eJjycniJkyASiuHw+mJomc1O/jAejlmSgMB3XHTtzJhEprtoCzWZmxvHjItIKFWYFrq9dY6bbhVZD+nzAzj2SWF1N5Zq/88xxKnrGltKk1l9sQlfN54cFNAvwFFnlrQgpwfgTA9SofDagsOWlkT333AE7dQJBiTIZ9MvUW3nZEV2hwizA59AcWEMt4VR6fPK42YsvHrClxULNamZxwiVk6A1HsQEMg1dRw8PIylN8COA1oP6GOU1lBmhLIYqmSG9ehFeXEvSsUb9hjz4yZy++sGhNHlCrRvUBrgkPZh7SuqTCbGI8YF6KPKxbUyr8wgt1e/LJBWu1NkSFuRX9TOTYcB0fDKj8peO6bjLg/eHBQ2vdjOtqMkMqBa6aMEtbJo60RM1qvul8+ODAXn7xmC0vqhktKTHC0PtffHxbRYoVZgxU5Dw8lLrzosHyktnLLx2zI4fQ/641Et5uYV3+oir+xCt/aTpDNd1zfHjwUFr3yOQZ8l0UKYq/aK99Nd5eybvyCHNrNTr2zDNte+ap1D+FiZD8fdnxRKMsK1SYFUS9ZSB9aELzobSnP5e4nrfqPe0TAxZdK3jbhenE6GMf0aSmz50+x4cHDyUp0lfCu679AQ9O6qoZ+cTkhn9atJ707fiRhr304kEfk1hnAgERaKHA6H//AH7VfK4wS0joJwyen3/pYDS0rMYnXuUtvnjITp/gGy4dq9fjR9cKn9SEp42DnPfjK1L85YeUo5bGJkHdMob8jzYtTW/Z0tK6vfjCUTt7atGKftc9xUCifEBIQdc+ZP3OFWYcVOYDeX/M0j3iMwzS5kwtpLzXkZ631Iw+aguLt+QcrIkH+TpjoAW+EcOkEg8bHkpSDFODFVZvNGw45CFLbkmqGnJ03U6dNvcS2/XC2g0GeeMp0oxQQyIfBFIs46lQYRaAvvK4pIfXV+urki98bHYrq6npXNhzzy3Yo4/RxL7lYxd5fzp8hkPnhU5Fonlo8HCSov5y/0iFlEXLMIlsYcsrI3vx5WU7elgnDemQ5qGKms3F0PsfvflRC5OAVagwK0Bf/VtpMGEqffaKnskjGlaTU8AXJ1/8/LIdWAkDtUejvvScSXy9t70MDw9mlhQhtvAX4aX+0VAWamgE03CA3LRPzWfmR2yotuQzAvVkYI+cXVFT4riaD/Ql6vwBr/wxTx2KVPg8idxw+q4VKux3uLbqJ2MmEyp16TL9hUW/b1kysmZj5C8onDm1bAtt2UjRlZOQW6aWUs570WpZhSE6hCnbmg7b7Ey7PGy30FnBTJKii1pERv+IL30ng0yp6crgWQsFGb5GxyzQYSZoas086dpwtGHNTLXmYM1W27n92sufs9UF5j3sWlLvWk3KAkPWm01Ls8SyWmYtxZW5ElSoMBug+9ynlvVxiAoMRcsKS1oKjYEVwy1bbtftt371KTsw17Wid8sHem91r1vSZJwaxFcnhjLI1soQKCSVjZVB24Enp+1ztohxJkkx4E61EEOy+RN06KPUVXqLOsA47LpIr9e9qdqxsCceWbUnH6nLMVQN6cNveJ2PO/C0mf4W3oIJCjbDQqvwEMJpC3vwyjx+skGrKLRIiwlpM3mE586YPXJm3pbmzQZ9OQwteh/Da7AeS+kMTNvVZN0j9DXOdmIMa75vljCj9g3xBY+QWmqSDYqBhyKQmvekaAm58ZpTeNWJD0DhN/J1Nz4fkKRbNr84sFe+eM4WV4iDLmkKV6zp3+YI07f7faRAPvr1IRvMWuGXAJiI2wT2gm5Lr9FvJ0n5fNq9sGj2+S8+agtL2M2GjsuWhlyIPfFxMALeXwx4gcTJpx5YEpNOmW61+f0CWc4KZpIUXcQSvH+rl2UUutd8hFBQTmJOjGoiqxDDZA6808nTN/0Oe7a4NLJzjy7b40+JMp0PuS7E7e+BepVHwVLAHOtoHYKtUGFG4Hrflf6i4NJl9Fl6HfQ789dced2VuSGeetbs7CNL1mh0bDjgGvRezoaToAK6H+3KbQubwN7K3kTMjz8nRuKnmT1bmElSROyhxqNwET77gpcYCouCiksKi/3UZiJHvEXVgPQcNrKRasee/cqXzlnLP1Va2HDIkAV8yag4AgXtTQeu51OVxF2hwqwAR6CrpWzAP+nq/6V+8xSaj+PnljYKt4Nf/bVH5Sz0rJFqn1ME5IeXGEgwtMQwih32pm1iDL7JxFvUlsLsYEZJUVCBbpu9IxZSKJG4syx96q5Qk4UQZgdp1Ad2+nTbPxzOa3xppqZ14o1rXcNyCkTrK6USVKgwM0BfIcbtCPoNBUjXfYPX/Ib22BNmjz+xaq2mmsfMueikyAkxYEWsaemRxv3TpEgobZRDM4TZJcVtiIUSA6Awpvo2fF0+IEGFzLufB5YT+8IXH7N6Q4JQszgMXG2GWUKIZ6cW+Y4YKlSYFdxFb31Tfp9U3T9NUPTdDhp1sy996UlbWWK4WtftJbAfAcooW2m+HgiSeKao0s8c+yYzhtklxVhzuXdYkpj/qjhEgKEfMPSZsB46fUN2a6O+CnvdPzPw/LMN462mUVFOqqlrEn/aTLxqkodyD/ANxTfDYqvwMKLUWyc2oTSRse24N5equdzQmaF/8ZmnUzt6pGHtZk/2IC8TU3PHQrbhYWJbO8kxeIyl11junSXMqHUjbAqUPr7YnCWA0B/IuOssbVueJzbUej1r+ZRIvOxez4a2vDK03/rNR40XW/gUJG+vFLzDpxjTjGE4PFnThfQhOukClIGn0ShChQqzgh166/rMRA98YJ8HkLKmQpak3XyCl89wYBf/1X/1pNXrt22Ub1o+0Lm57E4kmA9kJ0XdUtmXTxyheP2lCBCJ1pvc0TZnixhnlBRBSYxOjlOC99owVYE1RYCJk2Gr1fbvMfd7m940qNe79ugjC3bksFlL2zkzaeepn0s0eR6HGrDkiRsFTNwSF59E9dqxQoUZAR5dwRAc6a/0GH32p8ilbvOIMjwxDt/wDjRntrRg9vTTh63ZGNj8XF0eY2GtJl8DbFg+FKX2GNXB5ws4Ozae9TsmRpazRYhghkkxCj0ufaegLHnhM8Jem0z+UKjwCzqM1RRIOirkrr344nE7yNf5dB1f9kusqcCofQqWJ2y5fiMpKvBqlN+K+Mc3q1Bh/8PtwNmw3MCDixV/mOwkvNrPELe6v/nipLho9oVXzsip6Ir8tnRpV2QYnmInPn0eX7ykCc06IcDtZxsxhv2zgklOZhJe2lNrsRdDtZ4KLVHuChHicLhlw3zd2m3I7ZYdP9m2J5+c82nZ0Y9MJzL0oFDTGgVJmSXEY6U0ERHLsMcX5WqFCjODsc6yMtFrbGXS0sJblGuQ+Dzz/hmOxx9v2NmzSzp8y1tYg/4tORhdYyadLE1kWxBsGY/HpVMJ47/Zw0yTIsWwDWW5EBIVWlgfWL1ZqCbcUMV229LGbXv582d9OnYO8x0qvuvDesJEEcwO4k0L9tBXAnMipooJK/wyAD2m3x29lpfnuk33EA8adUz8yB5e3GJKvUU1ob/4xcesPbdlWbbub4A1Gkwr1vMxvWF27oCxM8o6ARMizBhmlhSDrIPUtxVELAVtMLM2ncnNlmqs2qb1h9fs2MmWPft8W/v5jKm8QkmAb7OMpBdpppoyGVgOU44Jkb4YKU8s4DL6ChVmEygwZBg+6RsoAE+xpyNaYkS0eLX0ERnyIj/3VGZHjzUsL27KRjpWFynmeUetr77WY5dTMIxgg4IcDPb5+oxhZklxXA2Nq6O4HlDw+KzG5LFDGwzXlVPVcO2+vfDyOVviHWd5hD6KX5cQQv8j/Yfhk6cojvex+F/iv/yPQ4UKs4Sx3upnbCdhcojQv9j3FxhgMUyHveHTp11bVKvq+RfOqMXF4O4NkeOmZWpap+4rTGgvNqEDGcYbxnvNDmaWFEcqMP4grISnZiro8C4KbWF5ellPBacCUzug1x2o+Jt28tBBe/HpQ5aq7BtyEUe88ykJUMAs/alzkelcxms5DTo/hmItC3c2y7nCw4wdOuubpV7ziDFU/vL48O60E7+Rg6lYj95FphF76flVO3ZwxW2t3x9aWk8slcfYG97WZbwaq5aXmtLhBQnskZZW+Js1zCgpStSMI6SDWMKvMWaqoDB4U4V3NJkrcd2KtKsmM83ktiWDeXvu8afs9CGzdrIhFahbBht6lahLpBNpnW8/L6qAIUUevlBb6hQFn3m7PBeFqVBhZoC+orfSX8Ykos/eQvJdPGJs6ZR5bYkCZQfuJMgL5MkycwRkozU7Ibt58Zlntb4o5yG13qAnUlTLKtmUQ8FbL31LZX8Zdlg0RIq4kTAvFDtbxDijpAgo6chOCD00dH1dhMnX92ryEpk1uN1u2Fy7Zs89s2x1NREyv6y8djoaByKh9rzDoQoVfkmwXb931PZjpWeFyZV53W9oTz+1ZHPzic3NNX1UR5gEQkHN79BgJh6uwR6DTU7C7GBGSVFCLl8vCuOh6BPR+nhQNQWkYlLzOE0S7xQ++9iKnT6nK7TN6P1ZK6gKFfYOgexOMQntYwdkXvIMZT75UC0zH68YCDDOvO1zLvpDG9nj2CZnBzNKigBiDAUSBqFCchNSzNIw1qpRp8DW7JUvHDW1jn3sYs73CCpSrFDhUyC8AsinTlM1rT//hWPat2F80SBRK6zOzjGwP3xGHJVok1jhbNnajJKiCkmE6EFF4H0X4wKIa4kKTIVUdOz4sTl7+lmRIeUkpGlDvxUpVqjwyYAQeQhjNpT9PPW02THZU23Uc/vy6cHKM8cEKHv05rTb6OzZ2YySIkDYiJ4s8Nw5eoyUifaLAUd5T07jbXvppTO2uKj9SfiSWcLc6xUqVPhUoK/QP92R9Gx+wezFF0+r2bwuO+OjVzkc6Jh8pCra5WxihkmxBP0YBJWM9y+qQPxVpVpqg+6mLcwN7eWXGXjKRBAMyqZjePZqrwoV9gbu81lN9tVo8MpsYS+92LTFhdzy/pYazHiK2BP2J1KU4+GE6F1bs4kZTTlNZuZrA4zKhxQZosNUXxAjxTi0LOnYo48u2YnjFO2As8pryqqtQoUKn4hCHgUPKHkKTXfUiRNmj5xblPOxJRuTLfHmA+5i/GQBw3G8fxFbxAmZLXubWTqn/vKCcE+RkfkSfkKh+L8NVIvNtQr70q8+YQVeYgqJFubThFWoUOGeADFCbrzVxxsvX/zCI9ZqypZGzBUQuq5wSnBO3FHxp85cQ5gtzK6Py1ReBKAajJEBjEvkXc1ENVarOXAX/8knE8sH8ho5R9ll8KpPA1ahQoVPhTRN1WweynpSa2Z16/e69uQTDTu4yiz1HdkV3VL01+f+ei2zTQF6+hm6M2uYYVLESyzdcgmeh1yhk5eaitk71uzZZ0/4bDhNRt4zLVhRszRJ/XW+ChUqfDpAcoxH9OkEtN2sD2152ez5509r323ZFLN3h1dm3Q5LWwwPPgmlnc4IZpcUVTwUEP0YPq26SqIoVHCqrUa2ZWm2bl/8leP+KYJmJnde7j+DTWs++axfWaFChU8BvgudZU0nRZ42z7Wablcvv3TQGq0t2WCYeJZ3A2tyOmop7CnvUU5LaJTNlr3NJimq4onPvMKU6gMRIs1iHqVQIB07eWrOTp/mPLn1+SAM5hYh4tnzonuFChU+LZhhO5EN1UUYidVkRLXR0I4eMzt7bsny0YackaFsC4eDfqy+nA8+qVpa6Ww5irPsKZJ0ESGdu/6Bem2PVGhapNnQXnz5cZ/aqNmgTxEPkZmCM6+5fDLZChUqfCrwqiw9VTyB9tdmh4U1m5lldbMXXnpU+yFBnSD7gxTD9HvsEyX6lzFnCzNKipBaTHooAIYBJLWWf0ogq+f27LOHVCBy/Qdy/dOGlnQGQ4hMoe6rFSpU+LTA2/N+fPoX1eJSk5rvpT/x5Ko126b1zFLZX5gyjMmdZZOCzy41Y5hRUhz5LDiMieIrfRRUbZRbg4kSizU7e3rRjh4x/56zj0/05jI1mE7lzb8ZzXVE7MSOX2ULn6qMgW01ZcqQa18uJR1aV2FLYUNhvVzv6xgf6JJM0HcXUAz88ECKygRPnH4jlt5JNIMg3eQFY2XJcBLlzw1dmywUXBb6Q27IbCB5DWxNIcqs6/LkeJRxlPlHy4HyoZy4weyCFrF/r411WRQPKxM1l7Gvo4fNzp1eVpN63RqZjkqIfAoV54PRIDSr3YeZIcwmPcCDKB39FnLbUxUAswSPcils/6a9/OI5azFVYm1LBUWJ6Bz5+iOdxwQ5ePSzq6al9crYAmnh9mLkMWCMGCKmzV8gxsINORDjwDYVWIcUOSfIw/nBV+IGpBHjhxAhlFklRTJFPmhVaOn5KnMe81wiSDaXfKhMOgrr2tpy+QU5RkIMcibcqRxC+ejYWKizB0859kaQAxKawyOry89IJJO5ltlLL5yzYe+msttzQsmSTOdhaLqaMGOYTVJUodC/wVyJjK7J0qb3dfDVPr7H8tRTi2XtRIGw4htCKKC4NYugpuY1Kr61Ox3oDI+BmZT5XGtqfKqyqa22lvNaLlo2WrWsOKKwojBnqdyAMDkv/a4y4HFAVsRX102l+TYnebNk3yyCdKudN5pT3pSPGjOpSv3JayICS/geyUBy4M2nXLJictU5q48OSE5HtX5Q+xa0FzkiT+mcT0Zcd3lH2RN2lk0or9nVuphyf2GiXAtB21p87nMLbne8MJGKOLFH3pHAPr0lN75uNjCjpIjAqYH170+8RASSfSLlPnfuqB1YLU+KoExk5LEoZx14u+H9nO3k6EZJ/4CIrsZ0T6owklykl6eW5jLzoYhykFnWTywbyLvWsVTtIlUnkl9PoSMB9eQV0PxDbKnukXnI6USHIGdYgj5sy2UWQiAxcopnhyes/GvpU+szplXySvqSG0FyS4eqZCRH5IlckS9y9vYlci/LIQbu5eX0S6B04yzcwfNbOWB25swR1THIUX6zZOPD4wreIMNbni3MLilK3Wi4JKrxR0Mp4bCrJnTHXpArTwnWvOkC2KBIeVIdCnSWdTT0T5E3AhIAyj+vOvLOqXcAaaHgB/0Ezg3NuyCJSZg08wB7MHBem8Swyyi0exw4bQaxLR9x28O0l6eD7C27DdAhDITXe4PqTDWLywhczi5rEW0sg1J24QCypW8x7JlFIBUQ8sBWDPyqhSEhvfTSOaunXWW5L1mp4k2a5Wmzl++ZJcWED0/xJIxmYq2u2qlrjXrPnniiIfed8kCpKRCyGIt1sjbZM2vA0DBMAusoa5mbUv9cF/2HIKOs6VwG0yb9sA1QVvZ5PFFxdYF7PEEt4l6Woe+Ma+Pe2UPIxyQHYYmQYp5ZZ6EjY7lJxuxOtO3yk8x8P8f1TwhXjSOeNJU/WlazhpiTcR4dyEqesud0aLwbgd01Gn3v10/lqCQiRW8+8w3hGcPspbgEtRO1Ph2/FFjNunby5KIdOmSW+WzbPHCYNoBYrJO1WQSDYVFHQjDl0Bj0POkntuRGqer1VB4KT+Tp12EOSb7OhXFnkSBLg3c1KGPSPh5gYfg+AFch9rON7zODCD2x5CF4gOhHeGeXca50F0BayAGpIitkpn2pzskkK+Tm8tMxyRO5Bvki5yB3hIN8YpkQUywr/mYVk5QHGox2FWxraKlkcfCg2YnjCzoqb9Ef0tWs0HIWPWSKciaR8z5mElSuGA6tLkN/+qmT1m7rWL6m/dTOwrhEtaKCmhTpbMKNTvkghM9Jah9tOHkukBkGHobg9BV4gup1uQ1HjRBUm+SJjqjkcwbi4mWrZufRQuhvQzbIjs9W0r/W114RI1757IrNwXARz4dkRL7oPwxj6sKTZCizEJUVan0gD6qDobzGXLJFbmMZ+jHkinx5gk8cIlavTJh0NcgqlE9ZViEJM4tAh2Ft+0JSkL21Wub2hx2OcqSjfKcQI5XNbGFmSbEoVEiqzYuip4JQbZVs2FNP8RRalTs1vBu3ilLnSCe1qh/WvRbb3wVFB7WncwrjbVySXIbb07aWDCDLhzJcyQP/x6lMrktv1LRu0bD1bmYfXk/s/ctmFxTev8x22za6TesN69YdZLbVT62jZWega3NIlSEnXRvmWxKVPCUEOEht1NfShTmDULrVslM+yINUYSRjLrZCPkVqneHAuqopunlT65LLsKHQtPWtln14s20XPsjs/Utm7ykgzw3JtSeC7FtTIRAoD1WYYYvy8IF9Kp8R3Es5TcmNsoxhFoBmhR78QI1kBbvCvkAmb5khOo8/3pDtbcqRJtOhpRZnzJkl1P74T9Zmo2S2gWLqqTBUH8lYG0lHzear9n/+v7xoR46J6Ws3paL8MVyCYSSR+/GDRB3KcerjrSaKup+AIoVXpEL6ogH5PnSsL48k4ZVFZSSjUSgV5FRlqadD125t2TvvfGjvv3/dblwf2tZmasMe3+Kds7TRlYfd8fwvLy/byVNH7OzZJTty1Gx+XtFSoRS3fSA8jwtquWSoYLU57dc9ZvXzNmg5tupp37Qi7UleeHry8URgtWRZlUDd1tfMPvhAFcj7N+zSxet26/aa9uP5zFmRt3X2lmTYs7n53A6spnbq1KqdO3vEDh1YDGNjVRhoFo9bRiJHaIR375OmZMho5xI7CTGW9f6DLIYHT0qed9iIET3lrojBQ/YXAEYH7ANVGP+3/+sP7fr1IzYYtS3PJN8hnxTGBmdHaWaSFKG2QoVRz+SiD+UbFdftN3/jgP2Tf3LClpYhRWm2CoHxY7XxODK/ULvxfNSMon9onxZUJMCISIrAKZBB6vI+MNQtunBka5Dha28M7Gc/P2+XPrxhN291bHNLTWoppykM5QnmqkBqiZrDUtZ6mlmW1VWxFDa/ULfTpxdl3Mv2zNMLPi1UWwaeJQNLC8UxlCeuvxpfbsMlmB39ngDx4cYN6FaQDqhJkTONnCrNnjZvSWV+/ONb9vbbt+zChTXb2hIZDFMbKO9DySAf0k2TWtaQkdfV0E67KqOuLcynduBA244fPmBPP3nOnv5cw9rUIbpVq6l6JN+0VPKuZSJUZpHZQX6xbOkK2p/A2oLX5+82s/Qs0MVCkH5gjfm8bW4k9m//7Xv2rW9tiBRXrNZqW6+X+4MXrHFWMKOkiNMy9Hcvk+Ftqw0v2f/0P/2KvfL5zJp1vvXc9dfW/GmMaMRJUcxBsdSYQAIlZPDujBRUJETAAONRsakamOmb5qwvg/7Za2bf+d55u3i5q+aePEM5QT6mkP7CQmSYq3bXMk1b2j/0V69QUl7FGvF2h1yodotJeQs7uBpmVX7+2ZbNi08bEmG7gS8qj0CEkrYWSrnOGEbSmO66CI1yr1svz6yvbG2qUvnRT7bsO989b1euFra5qWZxH8+GD76LNOW1p5nIMGGEg4iykHBrPHHFmxdZFGHA93w7sSUR5IljLfviKyLHp/i8ru5U74hI0TnJXqQSMU2ClO9+9hTxBkFRIDvtwR2WHrk9uTWO1Hipy6PO7Fvf7tq//Fc/0NGjVmuuWq8r+UkPZ4cSVV8+98o//xfl+kyBPo3Q1LthCwsb9od/8KitLNF0gfACGUrTtEUBihDHpKha3kto/zafd8KbzWUYykg3ugMraot2e8Psy1+5bH/x5Tfs/QsjW99YtG53Ucq5IkNbEPnJOxkF4x4xoFaiYFBtTc2ZJG1IhqlvQ6A0HTtqZq+vm736s4t245rZwUOLNicOHOqcpD5UwHjxumeQFHkQlYrElP5Ov+Gf67yo5t5//I+X7K/+6rzdvNmWZz1nXRHiwI2/KY+65bLKh5k87cK7K2gQ+1NoeZh5zrE5VRYLNhi0rNOpq+m4bm+9fUH3MDtyfNHqcht7/iW8MO3WdAUHYrnuZzDkHfiLEiydFOX90nqIYaQKRE3rTC2Jb33nLcmwaXmNt6AgRP5mBzNMipAetfR1Nfsa9ht/74S1myJEkZ97QBhuDSWmAFUoKjQKxpufXkIY9iwVlfIsg1JjxLpFy15785b92X/+sf3g767YrdsQ4CE5cEekvotazmtbHqK/baGGb5Kp1dtUaLi3SJCVihjkNYpkEzWjk1rbjbwmMs3SA2pCXre33rpm84sH7OgJyZNWc8LjBJR89kiRJh5PkQfWUHM5se99f2D/n//1VXv9ja4qiNNqJqsykVxreNPSHwycipMWRWJtBfRKMvC+aFUw8rwLGXxSW5A3uKh9cqsVINvNbs8+uHrJLl+5as25eVtZXbJWXeUwVblNY3+TIjQIAcrBYOwRECkiz0QtMEJNlaYyoYq1r4oztZ/+7EOvsAe5dJGms6LYzznciRklRRWQe4NMHnvdPv/54/bM00vW5Cl0SX7hHJEiwyRUdIyyZz9NHi8lKfwsFRWEOBzSNE7t52+Z/ac/+4m99votGfOyau4VeSNqxOmcIqHjuyPllGwyBpmoEshzK2StxQDFlbdI9pktubalazfldW5KTmoiSRwDnTMQaTQaapqrfXnx8ntyjJoixnmRopqRIoXZo0S6WxIezdnWILWvf/2a/cVf/NxuXMeTWbXNjo7JmxulPQXJJdtSXummUKXhT5JFfhi2BBem3VdI6SfU8VpP125p2Zd3FCaLwFvqS9CXP7huH17dtOWVE7ayWLO6rvFhZCIQyjN6jbNAir4mG2ILHcN7pILECfGd7KdrR574h9cKe/vd21K7A9rbDHbnZ8wG9ql+RzHeLehXCsUg3DTr2YmTeEfah8JyGAX206jf+BuXm8DWXmeb1ExStH0rgj0oI7WyCDGveb/N+xfM/t2//4ldutySWp7U0VUbqok8kjeYi/CHo47Wu/JYtkSYm1oy2aeqAH+w0rBGnbcNaMZhoGo4q6XIpLx43bW0sHqzYc32ojyltm10Gnbh8kBN9J/bX3/tsnWHjOGLYI30lXu2ZYIV9n80V58tdtyHxfiW29PH72Yvsb/66gWF1+XF5bbVbUpePJGfl7coVzilb2xLst7yAcn1Ol4deqZ2h2SGDPmIE/t8XKJotpaKBJsQpAKtap3TzxvykpYl++NqorfsT//0J3b+Xd2/k/rAAa7mSYy/Isf6GH5kHPYPID4pkf5JF2nGioItCdrJKLc6IyGK3E6fXZWMOmqhcCDmhHM/Luwf7LGnOF30UTBaetPl7gEjT9QUytJ1m5u7aL//e0/bsmpiHgp4nxlnOUlCiGzzUCEUJM1oHzARWHMPoDzLA0GL/J0HJSNIgV+llAWuHOMD5ckN8q4TXqef2jvvm/2bf/sjeW8teXOLigJPh9ep3BqVR7yQsknjQU1d7wPkPsFz5q78ujCQhbwgUxw1BVOTEO8FshyIGJIsNK2vXlu36zcKm28fsVPHzLY2uiKDjuSvfMA2tK1DX3zID/132hHuRQWEGYVcUha7RYghLEPc3FRpIFY8FqVFdYB+htruSUkYi5jb+joDszP73g/lYf+Xt+zSpb68uVVdpjyL7OIAY+SWal9ic+IsNaMLnppKPs4JypNCITLzLHu+JD9kSOvEWyjoWrntslfFlbdsc9Ps/fcv2ckzR21xGd7MLR+siUREjD5bBN09ypGTLXETgmIE0mRl93K7P+i+NI+VL/9SprxkculNZ/rpZauIj3GySRb8RyqGb3/7VanwqrYkY88L6f+YwGIM8hyx7cADAbndI0xnHOzc/hjIcBlMUSs6duRw2xZ4IOqqquxAfmWuMMBADvxBMsGA7uVWvxiQ1mCIJCWGMcpaueBpb6YmX6+w67fM/vpvLtnlD5VzNUuKfEnKOK/Q0vnKY2mYiS/Zpu8PshTRSSDYHgYdvsure+s8KyDCttVyNY3pT4PclBKa0vmoL69mYGl90Vpzp+3a1Tn7L//lvP3gh7nNzbfUlCcepXqkZiePwLU6ZKIZdil+ej/D0nd9pohxTt+HHUO1fMVxtrG27qowZIfy3p5v2s9eNfuz//y2XbnS1PZpz1c/FzmNmDIMj02n0kcozzHJpVB5W7KRGw0Z8ZT5I4QoWVEZIWdVJkH+kEQgRKZbGxULXk6U15XrTXncl9S0VPo6Q5GyzlHFN2IWmVJAUCI5woccywxPy72t8Z4HjvChtyAH3gQK5I9dBbgD4jaXuPwZ73r0yJxkKI8bfRt7i58GO8998Pn2rMwWJCSITwqa5z179NGz1m6r1vJHyiI/V+Jw5rRASz8xbOwpSFPIQ2jeBUDbDhSIUuGJb6ommDzCQb9pf/d3V+1HPz5vvd5nkA/uHcMOBPuTv5PyvQ2ZQI8np/Ql1eyDD67bl7/8bduQ5+Npy0UMSV3EonxoNYyHj3GSRjIyla/7xNhrcuyIX/dVMn2zzlgYJWZk8qiHTet0zL7ylR/IW/vA85bIe+Zpsq/rIqbMv2Pq7iCf3QDZDQep/ejv3rbvf++yypPhOYtK/pI8cp1QZiGsBJOc7NIJ0vX9g3HKSkhGSnLsF+X7R+12ao8+ckb2qRYFOu5y/Gxk+SAQSmBWgHAVgldIZ+/Azp09ZVS6kVT81+U/XQg7C3KPEXrtPZCymDrveCePNK8xXF41k7NzQc3mb37jLTWZGWLTcLLaPZDLzhABYSTuBfIdjmZzToo9sl6HB1oNeeQH7e23b9hffvm88pBYp4c1iFTKmVB0imKLBsy+iXptJ7Tdg3gmuZ/cg/uKn/0OLXmyPHkf5E3xXs2+8tVL9tprl+XBrFqWtayr/DB2s9FAnqqahro2uDpTiOmNaY7LXUDlVRR1yXXOvvudd+2iynNrS/fN5Zlm8tZdFzgxtGli/pxQXJ73ce/PHKQuBhDShocI4EbG9589e1JbYbINt9fSdmcBOzVhH6IUpteWMUhZRj0peWqHD4VH/jj0rk5a58P3obAIYLoQ9wNIF4QY8kPK3JFSRmigdQYdb+6uy3B6fbyc9+3iJRpWeBe/qFemgowS3vIQKfrrWWK5uo/Vkzc4FAkqPVl21L76N6/bhYtar/OwJ7Uhf2pu0+QO/YnkkGYkzUnPVvlDuB/Ecg3REf943kfdtzcggbl11Y6vKe1DNWtv3zb7q6+8Kq92xXpd0kO/aap88Z58Q16bmtA5fWXu5hKRx78d95tuHkCIANMDdvVqqvJ8zzaV1HV53LUss26/ozuQt2movMuKM+j+/abhfhHvH/QkoNxXJi8SOuHwoZbNz9G/Sp9KJPeYH67b6/zcHXtMitPCKcW5U1Yu/3heGWhSWNeOHl70/kQ6eset5tD+0wbLiFhc+w8xVWFJfx6DpJl7RIWjGvc9eRU/+ck1eRoHvCnI2xiTqz574K3SdKZZCTEOlRDIg9ciB2oCZo2jdvVaYn/ztbedP3i9MFcBMLCb99GDAQBUa1q9tvWU3QcUzzia6XswaUFPaeIpemKbHZ6kq0L5mw/t+g2ayAdF7GGcJn1+g4F8GDWhGXfIWy5MMLKNEMer3CyG3WMwlOc6pOwO2Y9+dFUet24hzmDEj3dPOmmUnTza58vP4L6fCcYkNk17Zcp0zAe1M1xJm5QG9rjo/YrL2uINIHQixlGGEMUEIbIygHjug8e01u4BdmTalfJO0iLEWgbloWO8a6dPHvCX8PG4PCM6zSdTiL58jH9bvNq38xYPHKSPENIVjZxhMhhHltX8FTQI5+vfvCZvcdG9DD4LUNzRk/nsgNfkQ09EioN+IeIQ2RQMR2laq3XAOt22yPqYff+HF+z8O5I34uQDwCqTNCUjwbinVWsiffaXmb1n3O1a7sN+SJAB6T1L5QV2+4l9+KHJq33NGs1T1h8uKv0rylf4fgiB+pMB7XWRIvkeY0wC0wHE5b1CuZdODuWhjmqLXp7f/PYlL9+eyjkViQdSVNAtpksYqpnuMNh7TEozyglyL3hdSvCpO7WvqQrpzOlVnVlWlGPbJUzLNEIXfkS3dyvv+8NEc/cV7iAcL4AgVH9aWOvZoUNz3n/BcBt/zqJTQr9cec02IHQW/Ow89qBBAqeJsUyWlAZ/q08/jPJ18bLZz159T8SzIKLnLRWdG07/hYHxeBBEr8dT2dTarXkRSV1Nz6H1eyPr9uoin6O2vl63n/7suhsEie0MtzztoYxAKW/HZynzqXh8NQoE2TG4fcs6/YHNL5p97/u3bGNThFcs+YOhjrxH8oGnOD+/5E1ovOHQ0ijj+Vj92J3wiY0B3Uy6mjOEqrZgP3/zsl0Saav1L6mFcnfdLi9gqEu433TYK3iCyvXpdLCPY0q5nJFyMh23x4b09/DBOa3z7Z+oFwi6vGYb9jJvH8U+JMUgoCC6KEBCUBy8qaKgo3zTzp6ds1Sn8xXToT/Go6mnDbTcCyEIPzStEy2VXaIn7Bm4OWKnv0V1qpLtwZMalAfPYKMjUvygZ7fWu1bw0EVE5W9SjJXzFwcIIssyKTT9i0qPbsmMOox5TLN5paWptCyLdN6Q56gUex8d3iJp9xj89xeFcVdJCe4ZpGbWVNMBTxEPlvRZbUleo7zeIa87Kt3KA3npi/R5iIRHPH7Q8omy5Q67CZRvbo1WGB6V1Of83ejX31rzwdykPXiKKn94w1VX1+FZjivPvUPQOULZoNcP3fZ8DsTJXMu6SJ9yQZZ1qTafKDhzti25r+vcoed/UmmG+MJfRJDTfsDeSvuuCH0X/OH5oTD8ujEkUhM105aW6j7bL8Jn5DzvlU4QhB5CRDy+c/+DB4oefILyQYTW6AIID17IKe/emr359vtWl6fmHgYDkj0LnHM/CHebyONO2CE3N1AMIqSbt2vyomlbWzW7dDEYSFT1cdzbRLxt4zPAVHxa9QrP7wuCSl++ZPIMGZjddtJm8otAm5FkQp5CeuOCeGPccT1u3y9UrmpiDoYiY7p40oadf+eSPG+oEHc7nFOmxoG8Q9hLTMnBF9OUMX2MZRAjniLEiH1ip0mq/MpG0V+02+1Z50cbH5fBPsE+JUWJqSQ5r43c8ytJUQLHHT9yZNHm2ubCD+oezvfrfBXh8xsDOwnTe/cCkfqk7FNJmJAihly3rjzFn7/+jtUb8npkNrm841Ik9w8ng52YlksZtnlO4Rqay8wvaKOGbW2O7K03r/ipPNGdyHh7/OFNjTsf+/SYXO8luy0aNlBlyIVB66pQ3lizTaWPwdU8CKrR38mBkuC3yWBbPgHbMdw/wp2UatdlXiKAJOr21vmLtr7BIR6g8bQeKaEHkyQFUgxH9g4kBt0M6XDJuAjjfkJY+CcYtMLH47DPw4cX3F6D3XJSlEO4ZtxtsY+wb0kRxZ8oPwINBYALXhR9O3pkxYXOELmgSDqOd+7XxHMRvvaUIayoMMoC2QuQDE9xTNMYnnghtWLYtFs3c7txY1PbDExXQSWifV638leu7gPxnr7cqZDs3BGidQLadUyUUBuqidpQUymzd89/6LEkxitxvOWAcccqSghtQVb0e38GMElVKFtAjOF+ECKTVYgUddI7b1+2QU8GyiB0nuinyHcqLxGevxjA9PpnBaWvfCWO3p00lSy0vr7etxvXe1JHNXc8/SDkK+osW2HPHgIZKYTSmy7DsN/ZTgsSGsqDIU5mbXmKR48uu73GpvO4Ke6XlDa+z3CfFvYLRGAxF3KckDMQosJoaIePLPmgbQgOA/Gi4hKveVhBle4k8Lvtf3Agxf7tGK2HbJYKo1+MOh/U7INLGzIe5umTr6ADGeNzeJ2swHg8t/cJxTEWgyfi7mFMHPQLdeXlDFQmkF/DrlxZs6G/b8w71xQIZTUhxeD9ci177jfdMQ70IlBFiJH70YSWfOTB8mT5ww9vS7ZUKCLKbOjpDmXP6WWexvm6W/gMQWWWpypTyU1NSYY61dNF+/DypsqbHAQyD5VjuHdIRSSOzzg9nxrc9w42M94MaXOPT6toNf2HNQXs8/AhkaLsFbsNxBjsOZSbLtjuGewL7FtSjIqwrTksAbKJd3jwYEmKjOhzUgmFMkG4/s7Yy4IISh6aEL4poHQKvp55di5dvG3N+pIVuQxemeaBQI13cf395KBSuwPXxuvjcpyQHdixT15fUXRk1Kr56ReTd7Nxu2sdObRMYhu8RDyi8nRfCQYVqrf7R4gnxBubZNyZezNJAaPeu1tmG2s9rUtRJOQkgRQZL6e0xMR5HHcKd8P9pF/XqjLz99HlIfrHnEZM4NEWKa7bkHkttB3uQBomLZxQ5SPDvcbHyKa0UdJLSYTqXqSo4jgkUvTWnB9nv5+kbXIbbGG/Yd+SIhgTooQZ+xX5uHajWbeV5cz7LcbTL7nQ/bKPYp/J3Zt/pXGSPVQ/BDKRyGhMHtiG5TlP9NT8y5V/kWPis9lQE4Sr7g+fFEcU2rTwMNaeSEbeug/0S/jkiXU2tKo0JzQB6Wwag2tDuX0WoHyDEd0p3uAtUqFsKT39rjwTEWQuNzaRZ1uM8BSDpzK5Lsa1M+zEfcpbMqHcMmt7+oqcp7Vt66t5f+umms/a570Mfp/taQjdBPuROqYw3R1FN49SS4WF07Kykrm9ho/il3Yc2LMkxv2HPSNFCrmohU5klxCK43tZp9bc3kwcqdanTy1TrT8/VyjQN4Ng+VGVxKm8U+wnsxH7tzgnxuQnlWEvQV5DukLC+CG/TLwQZLOxuWYDXleTkjE+EaIcy6TM5p3hEX4KxDuBmJCdAZRLJ3GlWyTNhAqMCXSSxDOTExYIS8FnlMG/YTs+JACfhWErtrJyDCD+GDOEF+TUE//RBcG+PGdWF8lNOhXysjMVMa+fJuweDPnB23c5qTx5B7s/GFmHl9sVtavs1H3cy9aqVzSux2H/gwf3lb2U8ospDIF9tFx0nD6eaFrSD2Yqx2nBTufaI60zkxKVKqXFHzGQLy6gTGh5qAwRhCoQ1xvXo53l9YsHKdoTYDC8h8K7q7HpQD9R6JDGGwoTmvorZGK/etrUnoZq1Q07erjuX0oLcyRSKL5htbpicV897KOfxstKIRAQxxS3H2fHXgBVQtXDNEteAvQX+oe0Gv7OM3TTL9asIYXiDQ0JQEnn6a7+XEc8M3cJnwA3Nhg2GF0AK+PE7AigVEyVDdPv8x4vH/bjoQsTKzD7FacGBY6d6trWJuVM/OFYGc+uoJiU5lDmwG8YHEZJLHzUPsiHPjpe4Ws0ZHKp6HuAkfI+KEY8jSizmNe7hbGgdg0qtwFfnkxJU2qbm32bn1+2ze6aSYRhpIsrKWlUHpOupbW+tlJpOPq6VyBN2Ayvjsk2tYk9YWbh4ZpsD3ty+ytPZz/EKCcFOz18iI9+rbkTw9s76PiA8a/Kl89SVBIis+I7STIdnvJdMOgbPX3AoCj2BgjPBTheCWteZeKRhFqJGpb3Uqldve9oNFDTuenjE4MPQhZCNoLhAb+yXO5EiH8/IngLAXzvgloVz8cNhcoCQrhvJeH66fBpwbnBE6Nfk7fiIGomcUXZwc6+ryDpUA5l6fn+3eGTryUtSpKP8eR0Jj7lPW76ZQss8b7uf38Ir8FJQyUivGu87Vy1Cd8uL58jlqUR08kWZLEfENO0MzVsT+xsYn+xzEV7slPs1UZ47OEMKq7wKu4kPo5BjsEIwhb/kzgfHMri2AtMZzYIIsDFNt7lc90xfoXA/lFuhw8fKB+yzCLIx/Qygu3gYaEvWYp3I43iCer4qS7nbCeevQBdFgwj8Vm9VZvzSQPSHGawdh9YxziPIoQOw18gyPuAN62IY4pefYUfpUnWBikSQleK0lJ+iGovjGsa9KX5sCrSL4+V8qVfttViso3yJE8jG+SRTIwPzCyw00OHVlQp0P5RKaiMIMXwSYy9aR5/Eu5TS+8XUSBThe+ekIIbmJQcReIPC0OaNrADBxb9ydasYpsNAPLsPe3hoRF9MYvziyocNf8hHxGjX+PNiSCXvQLlwDAX/2yqDBxCbKq1g7cYfMFgzKR3EgKR3T9CbBNyDXLAq6AbhmYpPSTNts5K1RRjAtw88TGVztB7hpBOvCMqFGZHT7UOKS4vzZeVR1nZuaekTJR9eHQNjI/NILDTlZUFrfFgjpwFLWEy2jACY0KL7h3uA+wdKUoSoSUoQbgHMC0QahAEJmXgPEQpIaIcGN/8vLbRmRlGoI1poPiMzeA9UbODqwfDZ1oYghMHbPO9Xb51vae6w81l0EOMWuS91LQG3UraHYyb2opzyE9s/umXsvbyvh8QG4TBUsErCbxr5EPFUfNmPaTYaosgRUC9Hk3ofVCDlknmx+t7tXwYy3fo4HIpFnYC8scyVi7kL3hZswjsdGEBz1jkpzzTHUagcg3fDKIMyR0/LqAJYjk/YOwdKW5DyHywG5GhP3WSQWm3z3OnYy4aKVGrmfhI+UmTY7YwndNt8BoCw2AoidmJo0dsNMzDO92SgVcQkgsDfz9y7QOE1+7esagqajS0Q4cXnRTjx5+k9n4sGDIGLXxmSVa8bijxHkFerHNfl6DS0ZB+HDzMt7AZ7I/s8EbQqT0CSSUFyMhloZ+iL6LI7fixg6URlqnzcwXy6V0FtB7KYWczCLpV+GZLq0WLh+yFbhT0iAlOQhn6AWGceV/D6uOeB4lQHnsBz20s6JB1F4VLDkWHFGV4MkAesoQzcpufy8KT571L+WcC8hPyJPhKMFwMgPe5T5/gS2gjq7tLLJlARjrGOXsHykv3VxnhufME8sixJffMIjkFYyZDoQz9kulw3xhLTUAW8b5sS4NStSbqqlROrsprHBizt0CO1C2h4tkjeC1eyk2rfACqmRV27HDLGipiSG8sojI7gRRiHvcw7fcB7LQl/ZifLx8CuG6o5FQmzL8ZHxxi+6FCFcbl5IUWVh8g9oxawnebnQYFzJ+kxPoQRWBNwQmRmoX1whYXm96P5Uo+o4hF7Xkt88F62D+yJp3Tq1KkFn0vPZEPw1z4ZCivOCKbvQLlxTRbkI08wdqWnRT5eH+iEo8PEDIFQvkGkix3fUaY1hyPXP9hC6JWUHpOnDzg6SOdEFAYyvMZJ+ReoPvzyQT/RGgylKw6trRYs5Wl0O9G+r3q3yYul6jCHqb7PgEpNmSviws0J9hDjiL5aQdyCRseQrmW+f0F6M6nwZ6RYoBy7BkPAglB+0phMYwhlafkg17xGIuhHTy44E+03BB3uIv+MGYGEHMKKPNQ7mEPv3hgDHo9IS9slK8rr3zqFC+RM/c2j4nKphh2VAY0/7r25BMHPQNUWqFpRAonufos00v+JzPu7Ch73c7vLj1BLc6eO2RZvWeJ0jhirKea+nsJuhrw9GtqMlPRjUZr9ui5gz6pCaIKUtJvzFrYIUQ57n/stD+22VXPRnZgRW1o8jlKlX9GLqhNlPe9op/kMF4f97C9Pc4Hge2a9UBBxu+Qea9RJ01F5hKENFF6yILPmTYaMosHL6vPHjHbnhd+wkMK6gT6TZ9++riM+rblo5sixaENc2Z7oTm9N4DsUnk6+XBdWzfskUeXbXmF4UNmw0FJOp4XyjV4/9vqOz92H0AJgrshTCINTUyhPNyUGI8cNjt+nPGsa9rP94fpmuCEvQD9iYyhRK87Es2G9Pe2PfvsKe8Korwn+dFGXHVA9eONmYOTYiP3z576BNDkxR0hlQUZZ+ngWKhUkVcoqrD1oLF3pOj5nVbSKICSECHGoC2l3GRiycgW5xvWhBT9yCyDTIX8hzWKgjd7qEklDe189rkFa811ZEwbOr6lZSLj8kv2CJDiSJXS0Ab5B/aFLz7qRs3DDGbx8fGkJNwLJ+SHdX9ewAMiJ7X7AYSBTigej4oKgsjRB1WmzKTNto4tyNN+8flTNuhftiZNaDzFsQE+eDBJcMrHvQoRokhxeSW3x59oBil5ebOmXKiJjS8cgfcd8jibGg8pNpqFLSzw9gsVvnYQPIuUJytsU24hn+SUsFcgFXsDKSiK7JmXXCbfpGCB4ocHLYjMH9qV5y8sNL2DdrYRizwQv+fRDZzOaGrUkfczHZa389RTh3TspgiRiQ1UkzJwenz9g4WXVzEQAfZs9UBuzz2/4DyTDwZKL69gUm54jCxJJ8GLVyF4/rsHsYQKE0MKcaK+VCTEK09Mfynvwg/DkZc/f8Lm59XUT9WMlpyDNj14cNdEzFeMBlryOuJte+GFM/4lSlo/eNrkA3MMDgHvj7NPcKLwE2YSZIOn7AvzfEVRJSBheEAq46fPEeNM++82TniA2DNSDNl16ZTZ1q/Lgh8IUXuUOo6F3VBBYXPyFOmo/qWAGzdKQS4ZDM03rGUA8ir4GhrTub/yxUesPd+VkWzJy0Aue2kgSq9IkX7OV754zlbUdMaoeaJKNlD2yZPSMDaQtVCikRT9pF0CUqRvjsqEbd3cBzkrTh+zKA0ZKE1a4n0dP2b20ksnJM51SXcvn+DKk66n8q57NizWJbdEhP2INegbLxUch4nB8EF+TOSrhedR+Ss9qNkEzwWGIkXmIlAeyJhnjkxTjrFMdubP/cqP7H0QQNr7CBMRTJoQCAYPSUuF+bmWe1JuhbOKYNHCNEmwT0EG4BNyyroZ/3f69II99fQZGQzvQkvF/MXevUKomI4ePWC/8itPycD78hr5HocIUFkJKoxRR+93OpDX+yuz6B/yW64Kuqcblu4rT7XAS9QuyGZkffvVX33aDh9c0Ck8hfYL9gwj0lAb2AsvPmmHDjVU6dE/SyXDQc5AfsgoyNABITopziYod7q95uaaXnliw55NFizJuJZkP7SAfKewd2W1z6SNgMoQ3A4XYhgFr2al3JJ2S00kbz6H47ONqXzEVQU6pPOio+bWui0uyVt85SlbXZVhq7iKONvBHgBSybLEfv3XX7Fjx1EdHrgMQmqULMoIg3ZPTtse/BB/ECVb94MQzzZ4lNonr6MYhgkW4JSavxm0ZmfPztuXfuVFETepvN/77x6Mx+MJ9MlTR+QlHrPWHKnZcl3eXpo7SNGPIuvtZ80K0BmfLadVV0VVvs1S/kXNcB1xhozV1t6VE9gzUqTXRyYmYchYEvpRMCaakPI6mE+NZpE8Kr6AxnRUNTUf2+2hPBMl2t8F3md8fi9QnlF6FIN+sKgirheSxRCiyVIZkXZIP544l9kXXzhuC8k7Nl//QAYOGW3qmo6u6esc5JP72y7+5stYqbhecpIsaZbX+GRAkXrgswb+aQOfnbqUJcTCFFw1xZt2RMy3RDI8uV2XzNeskd6wF59N7eXnmJjNrFGb86n/Xa3hQ4+GI3wOVZsE301pU2actHvwCiHTVXmcilv/QWbeVG9ooSNqknp2lN+6zVlbt3z5hbo9+xT9jVeVgnWdtqnreeAhGSqfo1pXEdJkpTlHfpRiRTJy+QR5JdpOCpVTWSaAfBeQnQeuJdAfyEfGKJctpXHT6sm6te2qLWdX7UsvnbLTx5VaokbH67o21b1VdlACU3HVrKUUoBOQvQRMiDedMVBmmcqB/M7NM0Hxuvb1JEflh0mUy/f68YPQlCADvHryPHahHyhcjfcGyr6UAkUqEvrMMGY65pmIE6NiCSmGwbeQwNycXHGt8UJ9oJFZBIUcSFGZljJIEViyX4Y0IjB9vjLKZzCLYWHzsvdfe3nVfuW5ts1nl0VUMuysKxl13PCSFK+o7+O+tr0GiAGjaJEQtcTA09LQ/b1ql7nujq2rDAbyUNM6L11vWLPJh8xv67zb1qpv2bFDuf3D3z5sR1e7UJBlRUtXKw7V/oEYuClGDXlRVoWOE7hLXdvcb7flhoyIl3jIFeP96GNFlpEUazYYiZC4oc5ORy04x44fGdjfV7qPHeYj7Ztqrt6wuvKTaT2tdyxrDqyfbyn9VM5cyh1grVBx+AQOvlQlRjERvaQWZKZ8J1Ts0mOu5/10ylAVVpKochltKFnr1hp9aL/+/EH7wnNz8HaIo1bXfVUJpdJvSJSS8NnVWwqcQVyUxd6Qw/3Cu7xUUklR92+zQ4pWY4gUpKhV7cfBQZD+hy0gAyp45T0QI+X7YLGHpPjJQC1iXyIeQb0uIUIWfmRW4blyRXDxw35jfQ/5YkJSDKIoej4DDaeuHjL7nX/wgh0/sSTy2/QnlkEuKJUqEBGDP5l2Ix0o9BXw+oYlYfGoQSTrQefhnctLsnTTg78xo7Q0s8M26K5Yf2tJZx1QCnlqesOWD9623/7dR+z02TmlqWlDkTVI5Z2FMfQoc0j/XoLXQn3YkpLCEKHhcGRtNd0eeWzJfu+PPmcLK9flAV+X/CSP/pz1Nxet6B30vOIZIgeTB2nykC2TFyk5Ia8gu7bCZFZoq2HkgdDgUaa5ozzxZik07l+XfAaDTTuqcvuN33rWlg8obTqNt7IKPu2g5jNjGCeUR8K1cP0gINy9l+t9QcnnbdV6ho6yHex5oi6T3Dt2bD5ouDrvW5QCjGg06hbGLu+x1O4b5CkY0ASeWV8b8l0R8ihCq8mLqKtFio0cOWYyrJftzNmjMuyeP5DJMsZ/0WbEoLmKJhzNMXkrqc6R1+mkKMOGLGi0+2cgnBTVbJTxjxIFmn3uUbYs781bMz1kRV8koPbx4nJuv/7bp+wLv9YOJK2ImCA1gn5OxipuJ8Xp9QeDMGQJMsILVwrom+XhizZ5//alVzL7rX9wzlYPp9bZkgdnKzbqH7DeVlOezLzyr/JADiLFkVcWasG4/Eq/V8chxYJ7uFcYPHuGIfEFO598gg+NKea6vHy/sY498sgJ++3f+YIdPKqqTuniARpEymdXM6V5MBC5fkSnS30Yk+ODl+dnCey23qD1V+ZznJ275HsP87uPSRFhlUGCpK8MUmQmX+/DmmkgdsKOgi8NwOcrlG/Ck12jj2+k5mpTXoeM6dnnzX7390/Y556mgvjAhoOrqoELnUuTWARJ4OPqZbNEO2S8JUnqlqH/luYdMqXvDK+GJhvNa+y4Z/NzuTUb6zp2wVYObNof/MEL9qUvHXPvFE8Mssm81hc5cA2PT6OyO2K+fhGKHWR0N/irn+XhLFWDndk1tA1hMUHEb/zGMftH/+hZO7DKmyWXrD13W/Kjb3ao5jgnynAL5Ce50CzXLpfXuGlNH19ZIVCJMIyK6fMHKg8t6/Lck6Jv+fCa7n3FnnwqtT/4oxP2/IvBO2y2eH+9I7Le8ipMN1Q5UtN75IqTiEt4pUmhcWx2gWpQLNiv93mHgceug1oJJ90Re5NvpL4vEWwsCM29HyfFxsRT3GaEs4RS+XcWuGcHL6NmvO9Nnvk+SyIjLEYbyvvAssbQp8V68imzvy+P5/OvHFXTcMv63TURGn4in9BUKFi6oDye4P0Ez3GkJrWx7jKVWXKuiJT+vlQeZSqvsZZct073LTt5emR/+IfP26//vRWbb8tXqsm7ynROKuIWgeTyIqn53UMTUfqnO8eI+ftFKPYd5CfgvSI70uNesadN2dWpqdLdbHSV/tx+5VeX7X/3jz9vx04g20uqcNbk7d72YTx4eSZ5IJdASnjekCJyo3+PPu7oJSvf/vAKT7NtSS6SxIMW4bUam/bSy4ftd3/vMXv8cyIElVuzNbBmMxc5b/i77HnBFwYZ0oS3f6c8sU0a9q2ZfiqgI9itk2Jpy9sIkQ7GuD5GlMdOmfzikT73yj//F+X6HiFkmg5ZFIMaGe+G2phhDDz1k6q5QZ49u2zPPNu2OXkyboj6mz1EBSDsUHYRDc4Kr4QxdGEwYNIFGYzyisHTLEzrhL6tLDfs5LEDIsWWra3dVnPwlqSBzHg4Ep5+hg8B8aYHndY8lGCdprmMW4pZE3PgrXA8TTq615rOuWytJq/wHbR/+A8esxdfqMuTkkLLiBPdH0+IsuJ7KAUkJG8sNltDFqbLJK6zjOF+gMzuFEeI2wla6XEZqtkcmmrhGDO401QdqqnaVOV6/FhiR46uiiS3bH3jsnW7132iEe/cpysAFdSV4WEOw45KObpcB1pnphvl34O2eb9aze60ds2OHBrYb/3WGfvt3zppJ06ObK69KeLT9ZI//YjelJQcB0NVdKkqJRGxf6zNSThgnEsS4kuOjffODKC/XC2JbjexN9/o2aVLG9puW03l5AO33Qsm/3jdCshbMnWidLJ88PneB6QYMCFFKYGaeMGItSqhhcbFhp07u2JPPdW0dhsFm1VSBBT2xGCnAalICvK6lMc0s6GIp+6fzuPYSIatppnJgNPC5ufbdvSwwpFDIrK6FG/Den0Rm4zUjVeGSwjGDNEOSgPWfkgREtHxTOdCiPX6DXvsscx+5++ftd/4zdN26qQpXjXjmdVFZNJQOuhPDM09lY1IhgBh4yWyfzspgpjHnfs/K8R4qVDCffiushhxnJ7gzeqQjLOuZZZKFunIVg7U7Ix0avWAKh7JZu3WDSdE7xdEProE+SBLJ0HJ0OXnpBiWqSqZjCEmtmYHFd9LLx6x3/qN0/bSS207fBjv9LqIknjxtElPMHa8WD6q1dkaWKM+p+tDGUeEXMHMs02KaDnT3fV6qZPihUvrqlCVX5GiFFHHydf+IsXaH//JGnd+4OCm0zf28UoSCg8GvA+M90QltDp9XVLyWnHJ/sFvP2p/+EfztnpQtW2NGhaBzRrItQpdiqI6SctJobs8tIpi0P+FIftEAjy60wGeejJYOreO5NPQsaaWTZGA2bXrZu+9P7Tz7161t89/aFevrtnmJv1fklNNzUHdJzQNMXhFLK8lzzsy1J4dWG2JDA/bI4+uyhtfsVOnEmvTrabmcT0R2TEzzkAEUKdZKcVNFM8UwkTAEM/EY/zFIGrNznts3/aHPlqGp/i6QpcgPca7BpJRVSEZDHKlVxUPn17+4IrZ+fNr9vbb1+ytt67YjRtMOdZSnpCx8qtIvLpSheLTp8njI775ucQOHVq0Rx85ItkdsnNnmnbkiEoWESc9eaLhvEKeYFJjuBJUB2nL3OUt9vu5SLEd0kgSSwTyhBwUSuLQBodmBugED/kG0uGbNxv2Z//buv31V95W9XJY2cksV974AJqqXh+24/3hqmgYgodzFMcuh/w/OOxjUmQCBDXX6CMb0nS7bL/3u0/a7/1BSzU7fW2zTIpqvrL0poPyoHyj8FEe7hQ4opQIpUFgPVIyjJs/vlTHwLyh5NeR/a1v1GTQQ7t6ZcuuX+/ZrVsdu3mjI4+EcY2QYuZN8qWVTGTYVAWTyaNpKcypSV7zKctCJU4dHjz2QOAKEF7CA4jgKT54RAmBeyQI5DYKfXjByELHgSjfnybzVLinYrl50+zK1Y5du9q1G9cGkmXPbt8a+ut4TFTLV+narYa8zJatrDTt4EFIsO1yXFzgw+9qGssT9ZoKmXEvytm963HBCmXZA4qUU4WQKxGwdN8rzzEp4klOX7//4aSov6H+bt1s2l/8edf+85+/Kl09ZCORImM744O+8UPCihQnmJAiT0ohDZqAuaV58BQz+8D+6A+esd/9R5ktr4gUcbn3zDjvB+Sa/Enpx16i8uEEWZpEWNwR7ujI5oxXHZGVlMiH00ge9HoN85YMWJ6QzunLMdraMtvc0B2Hfdmlmrs8HVX8fOCuLQOemw9Lf8gg8mOUHanyB9/jAsIwMVDtoCm/zRv8mMT+QkCidnFPSDGXQFy46E3QHYoAkfqMVsQNQWpHR/y5taml5Ddg1A3nan8+lC5KjkwCPKfAxB08VWZURJryAftSVvKonch4YMPX7nE2Xag70s6u6aVWtnuJHKBEZpkUB7a21rIv/+XA/uN/+rE8R5EiDxMzvG954mrxjEnR7R6djqTo2hgifEDYp6RIMwfLH1ompUqlpcnosv3j//oF+/v/oGbLy12JCU9xVkmRvEGKbGMkZcGXxPhxBTIhRYUEw+nIoHkjiKM8tVZzWkqW55KlzoUAY3dUoSb5cIDRyVts0KdFRGUFJHbI8L4ZjoJBxwKKiYmG6qPGxzt3LPcxSLJaHM6CsdZhQWAXg7RrPTdhn57MSagugqyLFHmyLl1U1rOEZrAOEZ/ki2xTXcvUbmZ4omW5juRym2obNdE9OkiRMoui24lyv7+h42TI0iNSoABnlBSVn+EokOJX/3pof/r//aENa0cCKbo3PE2KdC/QhwspihAhRs/zg9WvfSRlFf5YCYJA6cOJM2vw4AEHBUMP7/fOLnh90UVPhry8yY8MAWNQwFNg952C/2BcDjqqZSyjthSrLdnIEGXEdOgzPI9xjklNHqJIs5FuWqu+Ia9wy5qtDRmy3EeGhEig4XUrmjGyXOJHWdEM7sPS9ZIDOh5SUSKU1WS5v+FNMfIR8xaDjM+zrfz5u9WMPZT+MT40qa1LXuvWUqjXb1tW5/MQ8ggTkaTEAVFyZaEWTSEvnXJwMlQF47LiXohNy9grfMdAmZfl7/LUTs4OY0m9ABRmEegGzWQtlAVGLWDTjAZAe/ejLSPt/QEv8x3GhaJIeDxwQHhhyVk7zpspkNGg6K705CV6B+4dYxRTxjEG65ynpcgOj8bVCe8uaUvReIKJdyKC0y/9go2s8P4tSLE26mh/T9FsymG6rWag2oVS0AyvMWnqfEiRK8u04K3L8CGN6Fz5u81eTtOYnbIg/ThuPgcGZEb+VGmQXyQ60gHe0U5rTHMlT0be4XAgeQ1uirC2rKFWTGKS24jPCWxJH2nqUYqKmAqFd5YhxJIUKR/5n3K8yzL2PV5qO8Dxssw9eENeOoJ+BD2ZaUhGBVlETCORomw6PJCDFPef/mAF+xIuMyHUJEFwWYYwfXXGgdhhG3dTFMhfMCEnxtIwvHl8h1CkMjSMW8LgQcvYcLTNhBC5mivDYVdOIEaM57ig6JbVSl61dHTImulheY4HZfxLIseGDfsMqwlJoblTqPmSe+jbkCFA8hwhE5K7/1T400DGp7yRfuTm+VHeQhh4fsNQMIkoH3lf7JA3VGzJmnXJKzsqKR6SePhG84rkxkeYUhtIxoPBluQtjxvvmvhVBh50di4yGCreXH9h/K3K1suQMtb5MbDPy17rUcK+INEIXoH1GQYOTRbcakdwbCI57i8g7T0D4ogh6kJErEl8wlWa0tr2mYol1yDG2TRPB0mfVnrPUcxPPBgNhOX2gEKFyyBDmZN254yvY5d+fayXovTX1njirKad5TSz5Q3mTRsNmYWFTu1MHqKajEmq9RAX8saMQwj9a8z+wkwwpf+iMIugfwtyVC6UH8+Xe9shrwwwZuwgckhTntCLFOk/VHOaWWusUNNYFUihwBPTRJ41k0owWqrGnIgqDyQzVDl4eWgD74h93Jdy2xacELU/EqErNecBL0VtsjPqxyyDt7TUhqkHEsSe/Xs+HHE7319A4nuCIAqKfiq4boR1n0dR2wzSRoi43AMqUymh68oMAwPyIIXwmVXoF7TmVGCbjihq1hjYDoHnw5kEwbT7XI3CZZIP0zMpRu2XQfubMIoHpZu6nCGGTJTNbam9CVQ0yJcmY0pTWs3wTE3A1IOMX7/clfvxx10+GvYzQhoZr0A+yA/5In8hn8qvmsx834Un9MgDmUokLj5fahvd41srXmbaqCGrtKXrqGB4sq/4dTLX8jS/LuHWxZr18s6TciXopHGIBaRKy4NSySgBXevlQgJmEK7f+osGy1P8RApIizkGxpTuN1AiewTILyCQYbleLqPUgv8T4DzJ7m17Zx3TRhED24Rpw4nnMQg7vM2DrAh+VCthm79wTjjiO8uTQsDQCb5/OuiHJ/q8XUEIcxfKMP1vHJvwkQv3PUjlRAT8ka+QzxCCt7wzR76tn+3y4oeYYjkRQnlQDpP7cCTGyjmxbOPRGE84c3uIx2cf2KoToMJEa/dv3pD8vkQQpMhvKvjUTH7AT6lQocK+R6imQXjQPCFDP+IVzBS8q2FvDXx/kqJkMq5RpuTj5LhDsBUqVNj/CEPpZL++9Un2u7fEuA9JMZChNzpUi9B/E0IteInCbE8GUaHCw4Zgu/5wxW04ODuhA23/2fG+bT6LBSWukiDp2GadcVtRqBUqVJgBBPvFU+TpfrTdqScK5fJO4Hw3+AeKfUKKgfB2wkWinxgQ6qT5/HHCrFChwv5BsFXnRCE8BAxOT+hT3F/2vM88xSiYKSG6IPEQFbxfgl37R4AVKlS4OyA+t9/SdoNt77Tfu9lzyaIPGPuIFEthuceIKEO/IZ2z7KvXG9bpdH28GNgbcVWoUOFewKMVRo3wnni3w6zjWpGJBw9RxnyHFuJeY595imBaSIEgY/Ap+WHDfSjIChUq3B3YbfiGj2y3dHx8/z50b/YhKUZEwZHEIMjBIA9zd46PVahQYX8j2C58iP2O7XYfN/X2KSmWghs/gQ7o9wdh4oIKFSrMDGgqY7d9ZtoIe3yft6D3Ifa5pxgW8QlVr9cPpFg1nytUmCmMSdE9xOAmhq4wX91X2ENSLIltG8EF8ov7gp/ItjYUEKo3n3d4kBUqVNjPCE+fpz3FEPYn9thTnBYM5Ldje0cY0qdIX+1+rF4qVKhwF4Tv3gz5cNA2m96f2FNP0ccb+hQ5uH/OdgJDcZQs+dbhexVQIOemNsxHNtTpBbMlm67x4Tpcx/Vxfrw4R16Y/4+jYwplJYa9xFQ6whM5nsH54AUPIeXhuVz4LeGr/PAUPsqsPB5O3gY2OSPKgVkEQ3zldS6/sPqRsCvEi8NdQwhlEwLb94Odccf7xfBJuNO105iOi3MmaUeC4ffuV39kp3QzlBNBB7y9GBBPDSUS/0K5+96dZbOXmEpDXI1yCLoVZqecSEhnePqxXB1N+PYNpKgfZgoaMXcQCPn0T+66QxRiDt9nQRLQ04Mnzz0jRbIfMiyFqfVKYhRcQKlqFmZD7us8iVsnMzfgZmdg/WJLtLepE+mf0DWFzlEorGf94aZ1hhs63reB//FxRQpLp01KMYQ9xLBPupWD7sA2NzaV10Do/WHf+vnAeoO+DQulXEY1GAx9KBLkmbtWaan8+ozPQ74pLOFIQHxlLleNEQfJksWhNoaSEao60J4OH65SCHIj6CwPHq1HFYPXNayzYNsNvIw/Bt8fwmSn4vWgtI64F4GyIq2kRKu7DOFmMX7SX4aYGBRFYTpd29Lq92fi3CBH9vjM7uMTy6XHGdNPBdyTHPvW1T5pZRnDVKWry7Tql+UD7WWGWcUzVPn0KSeVF+nt96SnkjflitdEuVPeQ8VLbD2VP8TC8c5Wx/WDeMnqXsJFg1gISg/JISAL9IrUd/pbCh0dR2466mWDYPo6d0N569jW1sDSlM81MFYx8Xk9HUyJ7lSk8uDLlCJRrekvU3jwFLVnpAiCpxjWyq0yMFFn4pNr8mpfX8QwkMHnOYLkOyR8JEgLJwGuCN5lI2taltVVAFKmnZhEHsIeIqsz/X/fGq3UFpcWZBwj29gUgfPhKeNLfC17552+XbhQSJHqttVNrdNNZECZ5dSyTFzaaFiSJsq/DF0am6ZhctOgvdqXSzkVWKKo+NoNXceX5/gCoNWYQp/KSLLyQBlMQTIa92a4x07QtUy7H7dlDOHTCZBNue1lOQ0iIWFR1XYev1cQT1mIvoiJVLxKk39WAJP1Spb0KXie2QaT9ASDUyCjY29FwaMkvngd37kxqzPLrOLm2y0FcnX5ImsC3xBSeybjhQMRm46laWoNlRPl1RsmauE0pceJra8ndvt2ZpcumV26yOcP6moFMaFsy7rdwrr9vs3Nt10//F5UZHsJL+/JB9UmYCuxgfLfaLSs1WjrHNKMCso2B7nIn2syt1u+MDkYkF/yxH79lc8HiCnEjX4ge34pnweP9LlX/vm/KNcfMIJC1qRkNdUOtRHT5VODIBAFPnVKjV7Uyw8riRgHt+z5Fw/b4SNStpoKQE3qGtWNlJmmdQ0irfEBJgiC2Y61TVQUpit4+HxiMGgUfHsRPxhwb9Weo26YRVxb3X4hkhMhauPKh2Y/+3HP/vX/8uf2zW++JSNasVZ7PsyWzUTaEhue41DEP+STnaiOKg//VrCM0eWpczB5DNlny9Yh/6YzX/cz3de2JKIgDycRD6RE8JMRIUrLPvwh7hODyoRvjXhgm/yE6wOn+E8ZogdA0Lp2lV8v2UUgHYoHr8JfayJ+liX8/qS9zI+uGaeTdc8LuoJ7outIp3a5lzeGJ1Ao4ynTGvIoXSWDkn2ii5hVG/n65L5+GfcLciAM5QHi5fN5gsIrssxw/DY2zK5dNfv2d67Y/+vffNm+8+03bXXlCWs0E2tRJ0opyGmWcV3Pev1Nyxq6txOyJ+4Bg7xTecrbLfMW3zZzMfmSGcdRZr5qqFLyb4srzwqJnJS+zrl00ezrf3NZlyxLaPOSloiROP3Txsxc7jHpGspMghIf4Cn6Pm70ALGHpBiy6wpPLbSNFFGuYHRBYHx8iRq6I1I8bgdWw1T8kGYi5YQM8SKLXGSo2jljzn2RgBugrtNR3YvCpUBBaaTl1oMFyt53kqPJNJCHUUtb2lezC++b/d3fXbf/8B++Zb3esmrTVfvRT96z733/bbu1ISVJlr0W5tsgfH0vqzeVf5SH7JI/ZOk34TbKnuSr4BTChZCm8wg/QenCOkouGtW1fj1lwMJ/PXZfm4Aj4boQ4jYyjfum12MQnEhjnPcS+CW9JJItfmKIcbP0g+Uybsf1SZmHfPrqZN23da8y/2FHmQ+EIxl7LCKAycxN6CrXaFXrfKWxwJhVkScp3+BuWLeX2ofXzN48b/bVr76n8v2B/eTHV3TJIZVz3V599bwtLB7y8lxcMhEk3+9Ww1QeIt4/90riJ1P3BJSZoNtjdYGkwpL+QGwR8xp4gyPxV/pcXPqjjbLZSe3yxdS+/93rOkE6zCc3sGcnP8nSZz4PpDipyGg6Q4rxfg8Oe+spSoBOiASvMaSAsbaVZ8iX6fAU84FMVvsajZo99cyyHT2mbZ1a8CF44pHS8G2M0ATSpVokajLyzeMagRKL91QBeEEEdtgDjGyrsyGFoDsA70KFL+/2/Du37c///Pv2ta/9XMZwVF7gAZ17yJL6QRFn2965cN1eff19u3x5yzqb5AFClM8p/SF3aSZjHDG4PQ8VhrwZ92wQiO4VvissAtZ1hS1oP4rJ92AiMaJ6KF9QQq4MwVVVv4E4w/kxQBgErKAkD50VrvY7bwsem5PibkCcyCps7URIJ4E0xHQp8OEuX1f6lYhQUcY8omuUQQjBa9ap/qNrqKjRF2uUOaOlUcZPhnQ6REh8A3mGikFxNL2rY3PLbFNe4QV5SH/34zX7y6+8ZV/7xtv27rt9G/RXVbEdUzhkedGUNziw19/8qchzzQ4eXhExNlTBd7zi5K6bm11rNed8/cEDXSLP2Crbyq9TXfCYEwpEx+lGxATlGEoPRZAFvmBPZ9WVv5pdvGD26k87avm0vKugluIMyO5Vpm77fif9xvKgrNnPrlJ7HhT2vvksAbiiStECKaK5UlgJzR+25Jk16nNeYw76HVtabtjJk3Wbk1036g2dw1Ad1Sllnxod2Qnf2VVNC8F6s9KNojRkV3SMU4s9Qj0V0Q9Vi6qpQV/M5kbPvvvdH9nP5DHUbE77m1KDlhQrk0JJSvSjypvc6o7s9u2evfn6BXvjzSt28yZ9NfOqE2rWl+LV5D3WG5Cdal6+vqT8u9Hqz8nBmyR8jS6qIPtZp8EGteJVcz4B8AuZECifssy2/W2HPzWVzCPBTocQL3/EcW/B9aXUjUnQbi0nZTlJjR8ah/JP+R4bGdcrv8HA8UwwRAL7CeU9ge/Co5FMvZmIty+ZIWKVZSHDLyTXTq9hN2/X7Paa2Xvy+r/+zav25b9+1X74o4t25YbZ+mZDOnpA5LHgfYuFmERVpKLckqc4tPWNC9Lpnp06edDm2yp/FT5yn28v6kakZZK/BwnXF3RAaQiyRiBxgUxDP2IkxE5fG9LJTPbJm303b5p9//sde+vNTUvri+5BD3n4lOAJcxFlHP4CIaKLpadI+cb7PSDsA1LEUMh4VH4JQILA8aYvqyaPhj5FdDgf9G1j85pq1KHVm5nNL0EKvOkysHrGl9gkznxLS4SKoiNM7US4XuOLFNiF7PdGvwSZYE8pEsk16lL8QWHtuZade+SMLS0etFtrGzIY+hmVdxkcn9/D4NL6gnIzLw+yLoVqyNtsyOvYsJ/85Iq8ETyVBVdIicI/R5rIq8bbRhIMZ6rJGy3oYkC8Zd6dIAguq7L2HxMDoDwgAS3LXVw6DuOy0128AuJaKiM8KvqgCGyz7MlOVMJ8ZtXjvbfgulHr6m5ywRh5wH0UIqGFz7oSvOcxECDLGGKW2GLD0xryHeJhO1bQgFjQnQCMno/le1eNtnNdP1Ll21fFdXtzZNeu1+yDD+UNvWb2V399xb7y1XfsrfNbttltWz+ft3y0orQvSwY8fU1FGEpDsql9t2z14MiOn6jbb//Oi/b3fv05W5xXpSZFbUhHMum/35cOzD2C98wgMv9DH8J2MKZQ9oVIrlavm/wT68pOs2bdOtp4860t+/a3bttPfnTNNtfbIsQ5qZNIlCYy37+OFS5/rozER7x0IaC3D54Ua3/8J2sP9o4lUF3PtJQyQSnL5jN0SDNmOOpaKsOujeZs0A0fiGw1eBL9rnjiQ3v+xVX71S89ak88tqimhZl4RfH0bTTcsmYdduQugRClUYo3mK82/B+V3xOUejToirhE6JCXnEZvFjIGEy/je9+/Yd/9/jtqKvdUAbRFkm0RvUhRnl7Ok2S+wazmCZ85xaiHg441sp4dPtiwc+dW7LHHVu3I0ZYdOmi2MG/Wlh3yHXKaOOhd6qRAh3hUODwWHZSSB5IE/BK/JMUp7l2yrhBOKIGgQ3ws8X6II25PPEZ20Xekwgqb9wbFOXJS7GnVb1AG0sRBGRfyGKeT5U7oxpChX0oiSHsIZQoVdK2W6GZJrx4XZQQ50F3NyKhOV56fmsfXr5tdudK1t9++ae+8s2bXbvSlo01V1i2PA8nS7x1aMzyAoLzWLcvkHc4P7cTxpr300ml7Wfq8ekDlxO2kCM26VrinuJ97elGQvD0AvTyglEYA5FWodmcIjtLWU02e1FVpqwLvqs6ihfP6m7ftW9942376kzU5NEfUQjpjW9pPdPIHFGHH8j5SwukJFV8Yo0hlHvq8/ZmDl9GDw56RIn2BKB31boIhaQ3B+MfKUVK8HBd8+HC7919wbnLLg9Vu29FjdfvCF87ZK68ctoMigMTWJfihFAuPhIcz8kqK8CCCTl83CMXL5y2D57gHWkZi0IoodXQ/6L+8j7DkKeWFS2Y//dklhQ/sww9yG/Tn5OnNyTNRFYLxK3ifIUEXhXqV6LoyvoEdWK3Z2bOL9siji3bseEPbiS0sjWyx1bWmmmte47sctKQdGGtsNXsCUeIxlTLzVEn5dW8biWX9gZh2Ac9HmRkRDQ98iCMwo/azzz0KgFlx3ylsi6fEnfYBeZ3Bo2NdJznxKSh5eHIMfRnvA+ViEk9HSSBNpEF5QN/8/ABOIzhFOnmGQIXRy1u20c1sXZXWzRu5fXh5aO+cX5e3vm43bo5ElDT3WirD2AER9Jj8E+qFWjfonmTfaHRUaSX27DPH7LlnTqi5XFOFHyTjoyXK4IkhkESIcZLUBwjlrRwSlMiW3KPzLclJpJiPOnJewviEnlox9FdfU0Xx3e99YN/+9nnJqa8m8iGduxKCclmo7BiDbElX+ZTeydveaf+FyohzkSQSfZDYQ1JEMJCXMo2HgnCU/Qkp5oEU6QOUEdKh6+fWZNA1OqG7qpFvqunZtReeP2lf+rVH7fFHE/cY+72elmp2DuU5QqYYKdrFQgqaMmRANdqeaBnSpox3SN2JUQHl6vRD90BPPPTuO2avvXbV3nzzml2+tGm3N7TflYu045WF/DEEAlal2UXfT+oPmHqS04YtigxPnV4RQR6yU0datrpotrg4b/Pitzr8pqhCUN3sfIfcQyKd31hTvHx4KJAoe3QvnvT40clxvCLyps2wX8Hj1pKSFb1rW9cSnIDDOVzANZzLT9xPnB63Ah+rp0LjCH/8e5OrTAPeM2kK+wLGH0vSLvoB/Z46zi7/vIXy4k1T7WCEE94gWec4T1N5YLKxMbAb6yO7eHXLzp+/au+/d1PkKCnli7q+KWKQjhKF5JergvcK2NME6UoeIsSmKvKVxVzN5Hl7/PHD9tTTh1RpmamYbaCCntPKNkIEcal4lfmYzQcMJB1KzlVCSkpZ8EAvUZoSKUxX+po1WralOuettwv75rfeth/9+JJtbTasXl+1fNjUNarUCVQa5Ifmsyq5QIqQX0mK3Et2D3FyLvrM3geJPSTFoESB7Cj3khRLoeBGOyn6PsYbIiDOCB3jAzWTW200cUskeN3Onlu03/yNp+2pz6XuNfpA5tq6ln15j2gT5yJ8mjB85H2vql5l1t+UYKk0uJem3UoKpIiH3M+7rhQ8lZaP4cZ54YLZj3/0vv38zZ59eG3Z1mWtg2JDSilL1jW8zRLyhUfZlLzol8IbppYn0KfXs9X5mh1bbck4V+z48SVbPZTZ0vJIXiR9m7nNzTGIGHYgfZQJFYiIgzQKWYaBDHSPkOjwNFZl5MaiPX5NQOQmrvXscmqd/sAyshJOcTqBP+jQCXMcS4S2B8qT7uO3LA97vGFNmiPS083cU0WPIrGnKnfJgmYg5yPncATD1A54S95KZ4s3SdTeEOGt3za7ca2wy5fXVBndsg9udO1Gh3TyoIoKNQSGlTDeLkl7Wm4qnoH3c9eKhriQ4WHztqCa+tihNXvqyZY9//wpO3VKcnQehRToOiq8/zChC4mEjUH6CEpwskeVuMBgdCdF9Mg950L2x4NQbIi+7sTHXr726sC+9rev2TvvblijdVjH5qzTKaQzbZ1D3zijB3S1MukVr0Kwa8oHvZkmRcoJZ4m9DxZ7R4pOfBKKmmRBMCGEAbgIDlJUAZR64B3nTqCYC+YjsmuoMTXE86BJ3FGttCmlOyqv8YTXwt6XJo+Svg9qnHoqskCZFQdvzOwNUAaIQUsnRUJIS8i7LFcBf6Mv12WYi5QSxjGqWa2sXLtp9pPXbtv5d6/IY/nQbq8N1XSjJqaThjcKePos5ZNcw1AKlKqMX25QneY1b7OMZMjJQDKq2eEjC5LXITt2bEkEmdmcPMjFBXNPsilxISq3S4W6tiEeRc6/SCCuo8CcDxFzL+4cwLWsU5aUqdZ8PxivEYcWfk3JpuE3grKX8SA2HeDe42u1zSW9vloGvq4fJTYMate6gCzoC8QTJMks6ffa2jRb2xhpWdja2sA+EAm+9951u3plw7a2lCYMX5XT0OZVCfGkP+ioP31WGTkJK4zoX8MzT9HHrsKWZJhKrkftsUeP2/NPLdrBA+YDtEnRaKRzVZk1M7xfCdiJoawgHQgQEuKBo2zDh0+FcnzQ4NVFl2PK66dBxlTYA+kd3uElVdh/+7eX7Ed/d1kV+HzwCGVnadawfp9rqdwpe8mpDIAFZUogUuw7OESQokKia1Vu8MODxB6SIoRHf6KEIvc5EiOJcaVzoXBOEBKK5KRIv4bOoy8DC8l4l1Jx0KeW5/IM67fsxIma/cZvnbEzpzOt163VGFqq2q7OUBX6xYQwBmwvgD8jUsKgVHO6IcQmKZlUPvA2GKPJLmYXyZGLzqPXEE9yIIO78uHAzstrfOuNvr3/bs2u35Bhd+shmlQ1uZpsdEGktZai5QmmrLHgIceWTKsrzsBr1smQDP2A7oEP1NRObeVAKqKs26HDma2s1nxA8dKSyHKuJsLMRHypNZsMINflXC+G8oc3LLWPSot8eFOefMqg3Kh0T/LA4ah0nmUwXhHKg9vO4XJVFTwtil4l5KaI9UO8Okpi5EbixNK/CIkjP8iSsNXpiehyeYJDW5MneOuG2fVrQxHgwG7dZB8EhPcnPSlrAjfQkfYXi7qPWE0tDx4QFCN587yVJN3NGECvpFFhz7WHdlAyO3WmsMeerNujj7ft6LGGZaO267lS5PnIVL486MI/8gpE99RvGbTDq0XdF09R+UvNn0woPGBIljlZVrKKFN9apCjZ9vqZXbzct/feH9rXvvKuXbygSry/ovJf1CUyLuVvoBYP+UkS6Z/bM/MZUHLaW9r7xPZdG8N5fm5wirAPJ80HiD0kRYxWHp5qYg/K+J1IkfPCo3sECSny4AWhM+yDp9Ghj6pRl8JQ+6ZdeQTX1WTp2TNPH7UvvPKIPXZOhk3/mWSraL3fjD75vQAqId/O16IJEDCOuMW7tDRLkQWe2FCWjV+S8PRS6S6kpYxl5F1SXht7n4Gxr9+w8+/csus3t9S0zuVlSp5JW0o6r/Pk6QykgKqxaeoxeYYkqW0CawKWOTXg3XzSjS153wNbWKzb6uq8LS/NeZif480Lli1rNGv+9L8tm8VJJDS1TYj9lXh1gNxFTK/H4yzifue6EuXhgHI/C0iRfsCenDS8PpZ9OVfiPuuy3sttc7Nj6+ubtrnVlVe9odCxG9c3bH2Dp8A0SRkUTX+XZKMK18dzJjw0IX7JnT5CLemWSEbzSmtP+qPKPBuIcLfEGGqhaHtJXuHBAy07c2rZnv7cITunlsqSeNRfrUy60su6VyAFfXFKfCbSdU9W9/GxpIwnK3MaSptlSSC6e0YFGjP/oCF1dS+bVf2sK9tvvzO07/7wHXv1tSt2+7ZIOzsoPZtTubXVepMOy5azesgzwI4LycG9RC88bB7bvxMpSuaybwIPYTjvQWIPSVG1hmoOPD8PTorU+KiGvD4pk3uKPmkBRqoFNUuuJiJPo9XsGAzl8UgheY84V/MFD8bf5siHqpl1bb5pRw817PMvnbIXn5+3k8cxVmbqkNfIIOc9UDLyR26CsstAxoFt0gPracuf9GqbA6y6dyTN5G2AvpQIe1YkXblFRVazjiK9cLmwt95atzffXFcNvmU3b2FoPC1uO7lieLlkyuxBbm54cm7wWpa3ovvV6Vj7mWwiaHXwaCRZbTPRgQivLv+zlYgY6ZNsiCwb7kk26kPvtmhrvdmQz1DPvcJqqGzqGSMCZCwi90w1E69kTpq3ShHp0fb0vvCetwjMJ7aQ96H1fl95UJNuIKKHDL0vUA2H/iCVNxgGuK+t9USEufW64dych1DyWDy3ZI/8UMPgEWrpBKsf9ntQGoI9kxZ8+rplkj0TNIT+anlBtY6tLA/s7Jk5e+yxRTWTF+zU8dTadDkorpaEydU+SVBD8oRMVb5eDel+fgNIgkk2CNIDUhDWePpKSYgUtE1xB6k8eAx68oxVyQ5UiXzwgdkPfrRu3/vh+/bB1Z4aaapQVIkwppYXKfp9pTidlx7N2bAPWWZSITzEnjzNjpOeQzZcU8sFUkzpJ/Y/7YYQnRQHHmrODaFL5kFhz0gR4SAAmrPe0aqip7bwY34cb1FreIo6LxyQ4PwBgs5XLctL9xyry+AKKSszz6TSWIw507XU4KOCMWGbakrP2+c//6g99VTLjhyUb4Di+o20ROtYhThcSUmH0of1UFj0I7GnTF8Y31em6VNhos5cSWOVZdwKgzgAvwr0MmMKYacDb4I/rzh0nLQxaQBJRBkH7JON88T6xz8z+0//6V3V5pIhSifFxawLiFZNoJEy7n/ODsRJvnU77ocMytR5YCen6Rzk6k0+Xc/DDgZrj0ZSeFk9IfRTSvZZIWNQQ1n3witvNjN5kw2Ro4glEy2IDOtOijJ4b6aSQYWIctunSxMZQoSBHNVEGwyt26U5TF+qSFNeyVAB0iOv1Bb0YdEcJeCxUK4FS3kcNXmC4UEMuWQ/v9pWPklCSIbWXRgq+3JJmdR0H3iUfOfyEKmsH5FH+Ed/dMaee9qsJdtleCEvVOVyYclamNkJHSJuGbnIjoqBKMubCZBivDvpYQ86R5rkCPgvOlISykdAZHdC2B/jYiuULWVPpUdZKi0c8bRoWZY3lajvErFvyi+5et3sjdf79oMfnLf33ttQOeBdz1lPFZO/QZUw0w8PVXhrp+FeetA9CQyyp2XofaQeq+6h/XiKbtMhbb5bx6kWfLyi9ynK1lV2DxJ7RoqfDUpRlmQVBI7iKDiZqimYYrQdeQGbtrwyZ08/87i98lzdXnjMbFFNPjwj9IAYCjqgVID05zGvnSsMBlSTh4Wi4MVpMxWhM1D8k0CcDk9f3ArxOentAlCxVMub0JlIqCHvx6SYg0KEpNXbnbZ97VtX7M/+ywV5iiekYDIllK5QLUDNjPHFSuaegXx1bVRs354Kvj8GML0OdC2db9v2fVpEuRGm5QnKbY82Hps+DiRvDHGXcudajLyWDtU6CQQ1kge0vPSe/dEfnrbf+JXDtjzXU0tGtYA8Sn/zV2WSiyxSVQZN3Za77w7jUvetaQRJRlIJ+S7pzNcJPPXFR/XKjy4SHXeC5TTfh0wISmFJ2DQQqIw6w8x++KbZ937ct1d/9pat3aIrYEFnz1k+yHQ574XT6tK1rueK1BPjkZfbpJv12cAevub3WcFLoFwqeM3OaqhxKAwfkqHC5sNX165dtwvvfmjDjpp6jXlrq3WJPvjzF/eiRKJSIa6mGMMQntB4jLU104/xYCIUNPdDzej3UHBXv1x3M2BJ5GXaFLz55NftDn5XFJCamTSbmiVyYYajlr1/oWZf/8YVu3hJ3tVoYXJbpSutNX39Tsb16TCVZo9oZ4j5UsC4tu1jKTnygAdvbRchyJMQ4lKmp7Z33otlDJw7vf/e4e/9+ppk57ol8iFOVbb0nR47sqKmtLa9O0IUlNXl0aq14vMpKpU6xN13i6DLxFDKwPWMFxPwiKf1jVSiIQSu4cEOVyrFjONUmt33dHmI2BV8RID0iIHnvBxAQ4WJRt59L7FvfedD+/JX31Kr47ptbYlQk5brEf3ZIyoJNezDiwC6iCgJ4/uXafB9s4MZJkUEXmJsoEBL/TulhVX9SBHk8SX0HalZ0NkY2sV310WQfdvsNvw9zfaSFIcxeImaRfKmwoBvFbYK3psZRKemoahVK9Ta1N6cQ82MQkpJUbSpZMXjIX1SaBblvli33ytUsctLVMoUZ0bzkIcm6YYUuWWbnbr96Mcd+8531q2jfI1wHV0pReTyFJMRpIhkSPv9IKY95MWD5zFix3p5DHPEgHYbAgmGmEJgO65/zL4xIcbr7x2BEpGd5IlueFoY+jSwQXdgR4+27dgxughEPvSf5WpGkm4lmy4FHmjtusz9D3C9dM0fPOj+ni/SUsate9DQ5orQvRNJETJUGvw8rgu+Ik3UnBZPit6LHNXs7am5zzvcP/hhx772tYv2ve9fsVsbcgHkKXulChEzTEkhvBXGknvGvJHSMuAhjlsVs4MZ9xSnBO5lUiqJAn1g9Gc4EcqjYlaaoEQoFWOsGnb15oa9d+FDu35rS+rDk9Sm1estKTBkEjxE+iqZRZnCdZ5U3K4MIiEfvDv2DEtMkuAh6q2HEoEcdgc5IsqL7ghHMPA37YsQeUd6xd5/vyZFviYvUWlL2lJ0+tp0P/rS6JvheifJ+1HU6QztDDIOJ8Cp7W3HlQaasBDKLkLs55vEO70szxvfK4ad+3YH+hETHg46OTMuVHqQhKf39J+lKoejR5dtfkFly1NWvCi8S92ebjXvR7wPhBIr8+NyKBdlKHcFeDcBZMXjGbpNlFZV7DIGHVOViBLpfFoXPsNPbd4GamVcv5nYT1/dtL/52/ftm9953967yOcxFiR38qsm+DBVk1nlUKjVIY+R+KmgwwS4EaRUwZvMBDCduP2PGfcUg6oElNoxDlJIlFJ/eFex2YbC5FLqIe/wpvPWVSFfuXZbzc4rdv3GpvSmZfPzDTWJuA7vMk71rziJyFlOpIORRoNj1zTYhnh86XvGKSU94e8+IEX0h8IyPksZ4NO327eX7bvfGdgPfnDb+oMTbonMZydO173ktZB/N4YyXbuCLozEM7ZCltOhPB7D2HIxSAil9HJ2Fabi+tjt6f3T27sHLwjwdlRNlWGRt/0BjRu+8lPkddtYv24LCw07drxlrTbv+4ow1KDwTxSgO9tY616BBxhC2Ao/E1Kc0icUzZVNeyBu9BWvjokbOI8n4koPHUGMx2TALkNsXn+ja1/7+vv2jW+9Z2+9oxZUZ0k2smp5wWBs4qfc1FTmqTHL0kvk2ITwy5uPCZEAxqmbCcwwKSJwCsG1ogzRCBgCIqXU4ZwnJDJkPMZIiv4UWcrB+DPaNxT0xnpuly/esksX1uzGNbzDOSk330JJrd/PfLgG/UREz+XhHdvydkELtT6tEGFfOIW/comCcb0fvXe4kyf97g82rC7j46lzP1+08+fr9jdfvWXXVNvnjBWrMR5RRszDFZv3wcImkvQnzrv2WkIuJqkvlxNBlMvpwL0mYdLU2mXwtO8Mdzjvrvt3CXmJvAHkw5vUygijI5AnD+ZUJAMmjx3ZiZOLtrpKNwV9z3xcjAlKpDdOjGVcu4ET0/Sf71Sc26gyFIWvlHv04090dX9IkBlsuozPlD2sq1n8xpvhbZRvfON9e/W1NVWuLZ23onq3LZ2X3ahyDY5l9DxpPtMniZecyXmgtRR0Peg8aSptwJekgrKYHcy2pxgVwFdimBiDv59LTZaEzmgfkqJmjXao0IfiQ5oE1PR4Uksq7HnbWKvZ1SubdvnyLbtxQ56WvMrWXGZZXZ6XiJFB5f4iPJ3TrvgEGQZLKcKkTifob6zMpKhc8rNb4CXKNtNMTbk6Xy6cV7NnTs3mm/aTn9BZzvRNhbzhvkicISILPg6UOSZHtuEVQuiY3w22yzdgejkVxkQ5FTAkLSHGIIt7+wvmfx+Bxa7RE/nxuuickyKyHclTp2JNs1TeYNs213l/3OzkKfoWB9KZdct8CBmkKLnt8v5+WanuHvQzWQ9EFKQTdND10i8IF0GIAxFXn6ficgo2O0zcMLRvfvND+9a3LtlrP9+069dFgsNV5UeEqKZ08CJ5tKh45WnSj4h3yPv1PtSJIWDcmhuMwf0gwvLevhynVGE28EvwoCUaKZgI39/JFWhCT8Zi4d2FdcZp8bDCr1DpUobUfLwFgtLfvhUmA7h4cc3fjU3qc9acTyz119toOHcUh9hJSjBOgetA6Q3lugf66aSofSw5HivPkMxdgY7zUSpaVzo2t1bs1VdDbX9rjQk84X1er6IPlHFgNJ1U2+PV+DAiVQrb+oDuBTHhMfHTy+n9EdP7FXwRl7sIjjsdiOET8ClOuTsgHfSGCkWBz3AyuBgCUsFCGDSjO53rdujQih08TEW6KS8Rr5HzdXMniF0AvZkO7OMRsW+j08TNeeGEQIx8fBT9HIoQU+sq3XiJ775v9u1vXbVvfP2yvfYaZNgUGS5KPxZ0vhwE4hZ8NqFSj5kvwPUI3fZuKDReQbfjEVDIljZCgrYvPWGc7yfNBGb8QQtA2GVwuQfhxzcj+MNb9ODHKKBSRylQqUE8l4cmo7wtMlN1rxpzyBx6G2aXPrxm71y8YDfWVMU2MptrqiGRMlCZuOQ9ioCDcmpbwb/7i17qXq5Y3Btt+0x0hAHTPemqKE7KfuVK0778l7zix4v6K1bwbm45XyJN56ifzF8XZsbGqIMM7h0kOoaIO+0D0/unjo+NZTeBOKLwdgYQl3fBJxz+eFCOqlxY5YELcvbWgvZAjLx+Kq99c/OWv1119pEFm5vfUinIu/KKSDcn7BboTwzckuikV4yM4N31QE6+M5zAHqVrOOzbra3E3ny/Y9/45gVVnuft5z/v2q0bKzYYHLI8X1ULqK00S/c9iVwre9AGIVSq8g7Jg8tAJ3GMP93P+dFBouK9hfE6eY5lNhuYcVJE0DEAlmWhREwfLo9BhD7mEA9x/KdCl9LjSfH6F0f4ODlN5qGU7vball3+8LZdvHTbbn4wtFF3yZrNRcvSphSKF96lVLpuMORNh6Ga2HEEP+9o+00Vv+LiTQceR47TdG8Ir0HxkaQFW99o2ve/17NvfuumdQdq7tCkox8R75VBtQzB0ZkMEQmgT2isxbvALhMdsaMc7g1RiNNp2BlP3NZy+vTxZbu5bwn3EFXJeKWzrvjKitCJAu+J93wVvyqsjc0NW1oyO3Z0Wa2KVOUtr13LMhH3DkU77PFeuq7ndZkE3aISVFlnQ+/SQU+ZSYdXHZmsgfe412837a035Bl+/6p9/TsX7ac/uW5Xryqu4bL0dM6/Re0fL1O8QTJoPaks/0rywya2p52zFcbEF5laCwf7BNILid6Xzj14zDApRmFPF5bAJoW1Y3fYH1dLUhzvotCJC7JKnAQZzZ82VENmUnYdG9X4mHfLbtws7MqFrl0637UPP+BVwzlrybFMZTPYRE1Ky4QL/k0SXlPinVa1o/0+ZdPDJzUt03KvYIzhgL9hy956y+wv/vyC3bp1wGp1kXON75co3UQvonbvRYbDU+owDyDfB9ExGdHusMtER/jlpcHsCtPlHePZGV8s+/u5z0cRPvgFKXZUfjcDIUqmYegL3S6JKsehv9fNMJW1tQ/txImDIkc+TcCgZ5X9OO33Dqcn5ybeW2emGsLQtYGGCa83Dugz1L2ZHfznr5p9/W9v2He+9aH97I1N++A67y6v6Dy1JkYLuo7PJfAA0aMfe3yBBvEQ4xpp5mB5QpTvmBCnwh2z5yeH1RnBjJKihCylHAt8LPNYQLHm0tIJsgy+jxoVkgraMJKmMfYsBNWYfg0PYaTIDOZGCd0DyKQWc7p80Yr+knXW5+Q5btkbb92w90SS3X7bGq3EMjWvR0lbRkAfDEYTnnbTC+njueiroQYdp/newBNBhhHdWkvtK1+5Za++dlv7ltVsljUwl5/u47OPqMnD7EM08civG7V7isr7rklRcJFPyfSuIZ47FZSCOx+4lwCIp1xuO1xuTx8fBxCvv3dAIOhITWTEZL3hExkMUVGZ0ryUOlIBDtS64Ha93rruNrIzZ5bL970Vdn97zwH3wPGi62QkEub7yZDbIJ+3Ti+1GzfMfvLTkX31q1fsW9+6ZufP9+3mTYadMRGsXFdViv6dHxU/06FhH5m/l03jG5DA8ia+Ffb6+FB2uXzRHfZjJwT2ETgzwk9WiDY6W5hdUnSBE0pQMBTWtoIqw7gQwzaFHWtAChzCCuv0w4gEIRjVwoFQeGChpqmaIwWTuarZkUjBimLOBvLGumqu3Li5bu9euGwXL98SWfWs3V5ycixETkUh+hWB+6uGNKF0PyfFXYIZuTdkAD/4Qde++Y1rttlROvxpodKbDGR4ImORoc9T6c078kQVwDASiFp5KiuE3SHK8+PCx4G87zaUKMtxelfAzvvfKS0fuehTwUkRT1+eOK2MMLsT2zSrFUSI6M2gjyeX+IQXa2vrdmB10Y4cbdicnMxdk6Kucz1VhUp1zmdD8QoHedM6/dSuXOObKJft69+4ZN/73iW7cLGw9Y1FNaX5bMUBXc9XIOVJDoKu87Q84YuXshWfeMHlROKwCtmCp5P1IL9AilrfZlvoEMfjEsQMhriU4LCMu2cEMzohBAKnLYHQKRQKS5riy3J7XFCgLKQY6ANiggSdgyI7EZbKATEyASueXj4Y2XBA49msWWdYi5pIalYzWYT37RUM0hXBjvrav2ntZm4HV5s2P5/buTMH7IXnT9gj58xnsuaZDGMm82HH5lvyJHdJjF1x38/eyu3f/buf2nvvzFtPXoJl80pPofT0rE7aJQpmH4IUc3kTEGIuoyUk8hCYrmD32CnbOyHKeickhNIL2TUwSMfOJWB9x3a8nd+3NNJdwKfykmzTkfxFtRz4LEYqWfLEFrJkqruhyoBy9j7dYsMa6bo98ujA/pt//Kw99UhiLfhzF2Cg+GaXiRhaIjQRo4qAGcPPv2v2ox9dtHfeu2kbm4ndvMXsQZkq5Hkv877Yk/GETFBLoIlP11DOO9B4rvJgsRea/XTLxIcr4Q0oAjaG6IKDMJHttIwjpuTrso6BMvg0OrN/MOOeYil0F/yOJfAajZVyewxpJ31sXgNKcZgEwvveYBMRI97dUMfkCWRJyzIejCgO3nNN6MdJOjZMN8u+QdLR0DlLunRBylr3WZ0//KBjb775gZ1/+5Z/tjRrzFmjrXo4qetcvEVPiCPWyGVipzCd7nDsxi2zv/7aBTWTbvpMxzUZCrNsc5y3KHjfFt4K0lGa8SKl4FTaPPiZfNZ0t/g015LWnXkB7IvltpvAYvr+d1svUV4SsCOeewV64WSHh8gDLHwq5B5aGxQokmU8q5OMl0EisrphzUbNzp5eUmUYorpTuU4QjhFXhHuHavb285pduiyv8LvX7Ct/fdG+/e3L9tZbfbt+oym9Y0jNksp5zoYipSEklinUu0q6SJyWg3TVh50ReCNFt2J6Np+nkwlducYJjDJKXW9Y0p0USLFEtKsYtm0QpsuYc6fzu/8xw57iTqHvDCAuOS+CdRiCAkfRoyLgKUboOOPApBDhFSYdQctRT+0OT4BRVY6F23M2jRvecODNh6LoaNmzVrOwujzIpaWGPf74GXv66UU7c8xsZdH8AQ3vVtuoa3URL7V5wbgwj4x3VJmcAvPjyWZmGyLXH/5kaP/vP33d1tZ1LlPkS8FznqIrncFQdTFPIlkKPsxI17sn7GkOYfeYSOnjEe7/EYzLbRcYl/PdcKdjcd993FeIVcnkPXJIZMCecExRS5uCavGWi/SFbzzXahu2vNS1P/5vP2cvPZvavIrMB/7rep5W87mI8P6wgvgnt571h6q8VNlBXv2e2a11s3cu8qH9W6po31OlO1AzPbNeFwJmOjiGkanlowhIC/Nuuqw8u1pX5R76l6nc6YsMcuCRoKfZ00PuSr3xZq/yWHqK41bYNnA+CHEFsM71cb3EJ5bb/sKMz6e4R3ClKcmSEJXGyZU3HKTcasoyQao7mdoP+TWbzFBdt6MHBvb0E4v27POrdvwEH/kPsVFhw71MRcUHgmrZVvh41YCJOxftgwtm/49/+SN754ODugtjKXcqZFyW4SPHCTGdFe4NO+T5EUPfuT7Z5rO8j568bv/j/+l5O3ZSZZtvyKMcqCKUBz9oez8wn1VwznJiNJ9R/PLlwn760+v22hvr9sGNVC2OgfV6ePvy8tTaYYJdbx2kDV+f6CWIaWU5nbYKn4SKFHeDj5BiIMO49OYIqq1tHtTQF8mrgUN5AMNez+bFes2Uj0R17eSpBXvyieP2+GNzdvigCJIvEIoku4PbltQ3dJcF6w2Wbf2G2V/+p3X7yt++Y/3kiO6ikypSfIDYIc97IUXrW7N2xX7n7521f/iHi7a4atZI19TM3bBisGjt+qIN5BHytcar18zefHvTXn/jol28uGnra0znldnWcGhZs2kZQ8TUmmCmJD5m5rqI9ypiDXoZyxmQ5rAIKxU+DSpS3A3uSIqsB8LJ8/DtX2bX4Y0Cvi+SZanV66FJUhu0LJNbkDIPYqE2sW3Kg0zs0UcO29lH5u3JZxbsxGkeknBszjbWM/vx98z+13/zMxsUK9ZnKqc4PmOMKUOI4Y7HY3or3Bt2yPMTSXGypEHbGHVEhLfsf/9/eNaef4WHb1ScW5aOluzy+2av/XTd3j2/Ye+8c83W1tX8TuZFdIvSn7aq2NxGdb5vkttgwGcZRpbJQ8wyJntV9auo0gTvcQcp+u21PmPN171GRYq7wUdIMSpdSY7aDq9Lqdk84gkgfY1l/40Ma8SU9Vpn0oBGvabTcyvkRdblUbbbubXnO3by3JwdP9W0p545bZ0ts3/9L39gN660LclWre/XTyn/eAni/nIfydh2HsTtOyvcE6IMpzEtx7utA5Fi0heBXbdDx7r2x//0894iePWn79mHFwd26b2ObW20/EP8Qx6K1Bn3mFi3xzdpGB+pfWpZkITQd6yKVZUqD01ob/ss2tFLdOLekdaKFO8JFSnuBnckRRC26TRn2APGED/UxGwqfHyJMYp1WUSv31ENT/O4UKAjKTxoYe69Yb5uK6u6JrnhA8jVcrIPP9iy1ZXHbGODfkreTImKv3MJdqx/rIdT4bPBx8mUMtywxaXMrt98044cnfNy5gt5mR202zcKq2dLYbgMXwlkhMOIUBMZzlmz0dS5Ydq3NMnMh4sNiRMdk94kJTHuLOuIqszvCRUp7gaueJEUp7DNA6N+D8pYiCAZ+gAh8slH3khgrsMkVfNJHgBPm0fDxEb9trzIhnekMzlprmY1D204u9liuE+uJnjL8gFNLzBtAJ+wHo2lMpBfED5OpmruMi/noKOWQM26nXX38vJBTc3gBekGT4TlCaY9q6mZXEv5TABjWuUlFnwkqk61qfMHIj9pHu9T+7vUYcSB66Lffrrcp1CV+T0By65wr3Ddu4OSQTwKYXp21d6Md1RlDsk16nNqHovQhvIE/c0ChsowpEL0OFTTyoaWNGQkTSaWqNugaMizXJARLMtzXLTNTcVZm7deD6olAdEAptfvhNIgthF2hQcJyqvfVxHUFrwc82JJ+3gPeVnl3vLyTuhvVgU4HA2slzOPpzQoa3qrgIkeINB61rZGY84JFb1ipIITow8b+zgdqHAvqDzFXUEKeKdmyhh3OxbGtOX+FoQ8RyYX8BlshuGIj52M9RTkxzg3eRHs57sghQxEVzPJw2Ss4Z3u9Un7qiLfHT5Jbncud8rcJ+RQS6HmH9GXR8iAaOLzsYDxukLn8HYJUOXIBBQj3reXVvA9nmmPr1z4tVw+3r4DKk/xnlB5ir8woKl3CuUga55CM4uNvMFavqywJJtg7CFPETmVJ5AYDoQZ+icDEUbljvF9WkTDqIxjb0Clh+wpR8pTZVtOLeeg3FX+6EEtX1FYlH6oEmSm+NiH7S2Rcjld/lWRfqaoPMVd4S5kNPYepxTWsf18n4nHV/AACSh62OWn+gSmdLgzgzYGBDAOXs3yd1aE7XFux8cdq7B7fJKp3F3u3r9MuftbMKWXSJmqYrSRQiGvELCbaPDunDBjhRjjjmkol3fqFvFdU2mpPMV7QuUp7gpRyXaEsYJO7wdxCUIDmtfA4mcQPOjIeL1oBC8ST0EG4zMf01fJdf72TIUHD8pwZ/g4eImWgd/g6YcJFyjPWL7Me8kUZDqHwLlxHf2gzMctBAIo1znJ1zk+dU64ZYVdovIUd407iW1iBOHw1PY2oOzaXzaD2Ar1U7mMHqcrvUgQIhx7DSBcd2d8UnHe7boKHw/kWnr4jjuVwfS21sctB107XqWcp5rE4/JiyXlh6YvyGDM3BYRjIa5yvTxnAg6WwQ9pOSbPCp8GlEqFe0ZUsp2KNrUfRRwr4/bgOs26yM4/WeAfQdpS4K0FBZ+1h8HeDNXIjNe5mAJqghBDhX0MinqMSXkx4sDLk3LVfi9nPi1A2aebrgd0nYRPWQQSDk1n9KUMY89wZ+DYVKjUZFeoSHHXQPHuhJ2KeYfgCgwhBi/Q56sTEUKOIdCfqCXTmcXOeD+XdbxF4qgwM/Ayj+UXA2VLiOXNU+lQ3nHmJsanBmK8A+HFAPFt060dwfdVuBdUpLhrfNpqeIeSKnhzaOfl002tkjQDGRKiUXyae37adFW4dyDbGHZix767FkNJdOOyjZXcHeL2VR7R7NSXqXPRm+mw/USBuAkVPi0qUtwVUDxER4iKeKdwN0z3IyaqzMun0AVPl8MT5gDIMBBi6IPkmM772LhBvP+dQoXdAdnFMo/hE+S6zXvT+QzD8nOniIpxipQr8yHyBNofumjb49ehcfTl+eP7TadDcXiY3ucXVdgFkF6FPUVQ8jA9bBjDGP7Y671OHgKiQVTY/4jEF8sOhLKbLtdY+pPy30loO+OYRtSH6VDhflGRYoUKFSpMoSLFChUqVJhCRYoVKlSoMIWKFCtUqFBhChUpVqhQocIUKlKsUKFChSlUpFihQoUKU6hIsUKFChWmUJFihQoVKkyhIsUKFSpUmEJFihUqVKgwhYoUK1SoUGEKFSlWqFChwhQqUqxQoUKFKVSkWKFChQpTqEixQoUKFaZQkWKFChUqTKEixQoVKlSYQkWKFSpUqDCFihQrVKhQYQoVKVaoUKHCFCpSrFChQoUpVKRYoUKFClOoSLFChQoVplCRYoUKFSpMoSLFChUqVJhCRYoVKlSoMIWKFCtUqFBhChUpVqhQocIUKlKsUKFChSlUpFihQoUKU6hIsUKFChWmUJFihQoVKkyhIsUKFSpUmEJFihUqVKgwhYoUK1SoUGEKFSlWqFChwhQqUqxQoUKFKVSkWKFChQpTqEixQoUKFcYw+/8DHkHJRM431cYAAAAASUVORK5CYII=;" vertex="1" parent="1">
                    <mxGeometry x="190" y="62.5" width="100.51" height="90" as="geometry"/>
                </mxCell>
                <mxCell id="24" value="" style="endArrow=none;html=1;" edge="1" parent="1">
                    <mxGeometry width="50" height="50" relative="1" as="geometry">
                        <mxPoint x="50" y="250" as="sourcePoint"/>
                        <mxPoint x="1111" y="250" as="targetPoint"/>
                    </mxGeometry>
                </mxCell>
                <mxCell id="25" value="リアクション受けて、答え返すやつ" style="text;html=1;strokeColor=none;fillColor=none;align=center;verticalAlign=middle;whiteSpace=wrap;rounded=0;" vertex="1" parent="1">
                    <mxGeometry x="135.26" y="250" width="210" height="30" as="geometry"/>
                </mxCell>
                <mxCell id="26" value="投稿するやつ" style="text;html=1;strokeColor=none;fillColor=none;align=center;verticalAlign=middle;whiteSpace=wrap;rounded=0;" vertex="1" parent="1">
                    <mxGeometry x="120" y="32.5" width="210" height="30" as="geometry"/>
                </mxCell>
                <mxCell id="27" value="" style="dashed=0;outlineConnect=0;html=1;align=center;labelPosition=center;verticalLabelPosition=bottom;verticalAlign=top;shape=mxgraph.weblogos.github" vertex="1" parent="1">
                    <mxGeometry x="1060" y="336" width="75" height="75" as="geometry"/>
                </mxCell>
                <mxCell id="28" value="" style="edgeStyle=none;html=1;exitX=1;exitY=0.5;exitDx=0;exitDy=0;exitPerimeter=0;" edge="1" parent="1" source="10" target="27">
                    <mxGeometry relative="1" as="geometry">
                        <mxPoint x="838" y="385" as="sourcePoint"/>
                        <mxPoint x="950" y="385" as="targetPoint"/>
                    </mxGeometry>
                </mxCell>
                <mxCell id="32" value="https&lt;br&gt;POST" style="edgeLabel;html=1;align=center;verticalAlign=middle;resizable=0;points=[];" vertex="1" connectable="0" parent="28">
                    <mxGeometry x="-0.3042" y="1" relative="1" as="geometry">
                        <mxPoint as="offset"/>
                    </mxGeometry>
                </mxCell>
                <mxCell id="30" value="" style="shape=flexArrow;endArrow=classic;startArrow=classic;html=1;" edge="1" parent="1">
                    <mxGeometry width="100" height="100" relative="1" as="geometry">
                        <mxPoint x="240" y="310" as="sourcePoint"/>
                        <mxPoint x="600" y="310" as="targetPoint"/>
                    </mxGeometry>
                </mxCell>
                <mxCell id="31" value="３秒" style="edgeLabel;html=1;align=center;verticalAlign=middle;resizable=0;points=[];" vertex="1" connectable="0" parent="30">
                    <mxGeometry x="0.2278" y="-3" relative="1" as="geometry">
                        <mxPoint x="-41" y="7" as="offset"/>
                    </mxGeometry>
                </mxCell>
            </root>
        </mxGraphModel>
    </diagram>
</mxfile>
